<?xml version="1.0" encoding="utf-8"?>
<!-- Generator: Adobe Illustrator 22.0.1, SVG Export Plug-In . SVG Version: 6.00 Build 0)  -->
<svg version="1.1" id="Capa_1" xmlns="http://www.w3.org/2000/svg" xmlns:xlink="http://www.w3.org/1999/xlink" x="0px" y="0px"
	 viewBox="0 0 155 155" style="enable-background:new 0 0 155 155;" xml:space="preserve">
<style type="text/css">
	.st0{fill:#070308;}
</style>
<g>
	<g>
		<path class="st0" d="M150.9,29.7c-2.6-3.3-6.6-5.1-10.8-5.1H39.6l-1-4.8c-0.9-4.4-3.9-8.1-8.1-9.9l-15-6.5
			c-1.3-0.6-2.8-0.9-4.2-0.9C7.3,2.5,3.5,5,1.8,8.8c-1.1,2.6-1.2,5.4-0.1,8c1,2.6,3,4.7,5.6,5.8l11.6,5l15.8,76.6
			c1.3,6.4,7.1,11.1,13.6,11.1H130c5.8,0,10.5-4.7,10.5-10.5c0-3.1-1.3-5.8-3.4-7.7c3.6-1.9,6.3-5.3,7.1-9.5l9.6-46.4
			C154.6,37.1,153.6,32.9,150.9,29.7z M148.2,40.1l-9.6,46.3c-0.8,3.8-4.2,6.6-8,6.6H47.9l1.4,7H130c2.7,0,4.8,2.2,4.8,4.8
			c0,2.6-2.1,4.8-4.8,4.8H48.2c-3.9,0-7.3-2.8-8.1-6.5L23.8,23.6L9.5,17.4c-1.2-0.5-2.1-1.5-2.5-2.6c-0.5-1.2-0.5-2.5,0-3.7
			c0.8-1.8,2.5-2.9,4.4-2.9c0.7,0,1.3,0.1,1.9,0.4l15,6.5c2.4,1.1,4.2,3.3,4.8,5.9l1.9,9.3h105.2c2.5,0,4.8,1.1,6.4,3
			C148.1,35.2,148.7,37.7,148.2,40.1z"/>
		<g>
			<rect x="58" y="50.4" class="st0" width="59.5" height="5.6"/>
			<rect x="58" y="65.9" class="st0" width="59.5" height="5.6"/>
		</g>
	</g>
	<g>
		<path class="st0" d="M108.4,120.5c-8.8,0-16,7.2-16,16s7.2,16,16,16c8.8,0,16-7.2,16-16S117.3,120.5,108.4,120.5z M108.4,146.8
			c-5.7,0-10.3-4.6-10.3-10.3c0-5.7,4.6-10.3,10.3-10.3c5.7,0,10.3,4.6,10.3,10.3C118.8,142.2,114.1,146.8,108.4,146.8z"/>
		<path class="st0" d="M65.6,120.5c-8.8,0-16,7.2-16,16s7.2,16,16,16s16-7.2,16-16S74.4,120.5,65.6,120.5z M65.6,146.8
			c-5.7,0-10.3-4.6-10.3-10.3c0-5.7,4.6-10.3,10.3-10.3s10.3,4.6,10.3,10.3C75.9,142.2,71.3,146.8,65.6,146.8z"/>
	</g>
</g>
</svg>
