<?xml version="1.0" encoding="utf-8"?>
<!-- Generator: Adobe Illustrator 22.0.1, SVG Export Plug-In . SVG Version: 6.00 Build 0)  -->
<svg version="1.1" id="Capa_1" xmlns="http://www.w3.org/2000/svg" xmlns:xlink="http://www.w3.org/1999/xlink" x="0px" y="0px"
	 viewBox="0 0 155 155" style="enable-background:new 0 0 155 155;" xml:space="preserve">
<path d="M73.9,36c-1.1,0.5-2.2,1.2-3,2L5.2,103.6c-1.8,1.8-2.7,4.1-2.7,6.7c0,2.5,1,4.9,2.7,6.7c1.8,1.8,4.2,2.8,6.7,2.8
	c2.5,0,4.9-1,6.7-2.8l58.9-59l58.9,59c1.8,1.8,4.1,2.8,6.6,2.8c2.5,0,4.9-1,6.7-2.8c1.8-1.8,2.8-4.2,2.8-6.7c0-2.5-1-4.9-2.8-6.7
	L84.2,38c-1.8-1.8-4.1-2.7-6.7-2.7C76.2,35.3,75,35.5,73.9,36z M77.5,52.2l-61.8,61.9c-1,1-2.3,1.6-3.8,1.6c-1.4,0-2.7-0.6-3.7-1.5
	c-1-1-1.5-2.4-1.5-3.8c0-1.4,0.5-2.8,1.5-3.8l65.6-65.6c1-1,2.3-1.5,3.8-1.5c1.4,0,2.8,0.5,3.8,1.5l65.6,65.6c1,1,1.6,2.3,1.6,3.8
	c0,1.4-0.6,2.8-1.6,3.8c-1,1-2.3,1.6-3.8,1.6c-1.4,0-2.7-0.6-3.7-1.6L77.5,52.2z"/>
</svg>
