<?xml version="1.0" encoding="utf-8"?>
<!-- Generator: Adobe Illustrator 22.0.1, SVG Export Plug-In . SVG Version: 6.00 Build 0)  -->
<svg version="1.1" id="Capa_1" xmlns="http://www.w3.org/2000/svg" xmlns:xlink="http://www.w3.org/1999/xlink" x="0px" y="0px"
	 viewBox="0 0 155 155" style="enable-background:new 0 0 155 155;" xml:space="preserve">
<style type="text/css">
	.st0{fill:#070308;}
</style>
<path class="st0" d="M148.7,130.3l-37.4-37.4c6-9.4,9.1-20.2,9.1-31.4c0-32.5-26.4-58.9-58.9-58.9C28.9,2.5,2.5,28.9,2.5,61.4
	s26.4,58.9,58.9,58.9c11.2,0,22-3.1,31.4-9.1l37.4,37.4c2.5,2.5,5.7,3.8,9.2,3.8c3.5,0,6.7-1.4,9.2-3.8c2.5-2.5,3.8-5.7,3.8-9.2
	C152.5,136,151.1,132.7,148.7,130.3z M139.5,146.6c-1.9,0-3.7-0.7-5.1-2.1L110,120.1c3.7-3,7.1-6.4,10.1-10.1l24.5,24.5
	c2.8,2.8,2.8,7.3,0,10.1C143.2,145.9,141.4,146.6,139.5,146.6z M61.4,114.5c-29.3,0-53-23.8-53-53c0-29.3,23.8-53,53-53
	c29.3,0,53,23.8,53,53c0,10.2-2.9,20.1-8.5,28.7c-0.5,0.7-1,1.5-1.6,2.4c-3.3,4.6-7.3,8.5-11.8,11.8c-0.9,0.6-1.7,1.2-2.4,1.6
	C81.6,111.5,71.7,114.5,61.4,114.5z M107.8,97.7l8.1,8.1c-3,3.7-6.4,7.1-10.1,10.1l-8.1-8.1C101.5,104.9,104.9,101.5,107.8,97.7z"/>
</svg>
