<?xml version="1.0" encoding="utf-8"?>
<!-- Generator: Adobe Illustrator 22.0.1, SVG Export Plug-In . SVG Version: 6.00 Build 0)  -->
<svg version="1.1" id="Capa_1" xmlns="http://www.w3.org/2000/svg" xmlns:xlink="http://www.w3.org/1999/xlink" x="0px" y="0px"
	 viewBox="0 0 155 155" style="enable-background:new 0 0 155 155;" xml:space="preserve">
<style type="text/css">
	.st0{fill:#040006;}
</style>
<g>
	<path class="st0" d="M144.1,105.2c-1.4-3.1-4.4-5-7.9-5h-17.6c-0.3,0-0.7,0-1,0.1c-3.2,0.3-5.8,2.3-7,5.3c-0.9,2.3-1.5,4.3-2,6.4
		c-0.1,0.4-0.5,0.7-0.9,0.7H66.9l-8.8,9.1l9,9.1h19v-5.6H69.4l-3.5-3.6l3.4-3.5h38.4c3,0,5.6-2,6.3-4.9c0.4-1.8,1-3.6,1.8-5.7
		c0.3-0.9,1.2-1.5,2.2-1.7c0.2,0,0.4,0,0.6,0h17.6c1.3,0,2.3,0.7,2.8,1.7c1.5,3.3,3.3,8.4,3.3,14c0,5.6-1.8,10.9-3.2,14.3
		c-0.5,1.1-1.6,1.8-2.8,1.8h-20.3v5.6h20.3c3.4,0,6.5-2,7.9-5.1c1.7-3.9,3.7-9.9,3.7-16.5C147.8,114.9,145.8,109,144.1,105.2z"/>
	<path class="st0" d="M131.5,113.1c-4.6,0-8.4,3.8-8.4,8.4s3.8,8.4,8.4,8.4c4.6,0,8.4-3.8,8.4-8.4S136.2,113.1,131.5,113.1z
		 M131.5,124.4c-1.6,0-2.9-1.3-2.9-2.9c0-1.6,1.3-2.9,2.9-2.9c1.6,0,2.9,1.3,2.9,2.9C134.4,123.1,133.1,124.4,131.5,124.4z"/>
	<path class="st0" d="M113.7,77.1c0.9,2,1,4.3,0.2,6.4c-0.8,2.1-2.4,3.8-4.4,4.7c-1.1,0.5-2.3,0.8-3.5,0.8c-1,0-2-0.2-3-0.6
		c-6.2-2.3-12.7-3.6-19.4-3.7c-0.4,0-0.9,0-1.3,0h-1.8v-5.6h1.8c0.4,0,0.8,0,1.2,0h0.1c7.3,0.2,14.5,1.5,21.4,4.1
		c0.4,0.1,0.7,0.2,1,0.2c0.4,0,0.8-0.1,1.2-0.3c0.7-0.3,1.2-0.9,1.5-1.6c0.3-0.7,0.2-1.5-0.1-2.2c-0.3-0.7-0.9-1.2-1.6-1.5
		c-1-0.4-1.9-0.7-2.7-0.9l-5.1-1.7l4.3-3.2c9.1-6.8,14.3-17.2,14.3-28.5c0-19.6-15.9-35.5-35.5-35.6h-0.5
		C67.3,8.2,54,17.5,48.9,31.1c-1.5,4-2.3,8.2-2.3,12.5c0,4.4,0.8,8.6,2.3,12.6c2.4,6.3,6.5,11.8,12,15.9l4.2,3.2l-5,1.7
		c-4.2,1.4-8.2,3.1-12,5.2c-3.8,2.1-7.4,4.5-10.7,7.3C24.9,99.7,16.3,114,13,129.6c-0.9,4.3,0.2,8.7,2.9,12.1
		c2.7,3.4,6.8,5.3,11.1,5.3h19.2v5.6H27.1c-6,0-11.6-2.7-15.4-7.3c-3.8-4.7-5.3-10.8-4-16.7c3.5-16.9,12.8-32.2,26.2-43.3
		c3.9-3.2,8.1-6,12.5-8.4c2.4-1.3,4.9-2.4,7.4-3.4c-3.3-3.2-6.1-6.8-8.2-10.9c-3-5.7-4.5-12.3-4.5-18.9c0-6.6,1.5-12.9,4.5-18.8
		c7-13.7,20.9-22.2,36.2-22.4h0.5c22.6,0.1,41,18.5,41,41.2c0,11.4-4.6,22.1-12.8,29.8C111.9,74.4,113,75.6,113.7,77.1z"/>
</g>
</svg>
