<?xml version="1.0" encoding="utf-8"?>
<!-- Generator: Adobe Illustrator 22.1.0, SVG Export Plug-In . SVG Version: 6.00 Build 0)  -->
<svg version="1.1" id="Capa_1" xmlns="http://www.w3.org/2000/svg" xmlns:xlink="http://www.w3.org/1999/xlink" x="0px" y="0px"
	 viewBox="0 0 768 576" style="enable-background:new 0 0 768 576;" xml:space="preserve">
<style type="text/css">
	.st0{clip-path:url(#SVGID_2_);}
	.st1{fill:#FFFFFF;}
	.st2{fill:#F5F8F9;}
	.st3{fill:#ECF4FF;}
	.st4{fill:#91B1FA;}
	.st5{fill:#F19580;}
	.st6{fill:#6600FF;}
	.st7{fill:url(#SVGID_3_);}
	.st8{fill:#5ED09B;}
	.st9{clip-path:url(#SVGID_5_);}
	.st10{fill:#FCFCFC;}
	.st11{fill:none;}
</style>
<g>
	<defs>
		<rect id="SVGID_1_" y="0" width="768" height="576"/>
	</defs>
	<clipPath id="SVGID_2_">
		<use xlink:href="#SVGID_1_"  style="overflow:visible;"/>
	</clipPath>
	<g class="st0">
		<g>
			<g>
				<path d="M-181.2,391.1c24.8-37.1,59.2-69,99.1-92.7c63.4-37.6,137.6-61.4,213.2-60.1c70.8,1.2,145.6,33.7,184.1,101
					c31.2,54.7,40.7,105.5,91.3,146.4c34.9,28.2,91,37.5,108.4,77c4.9,11.1,5.8,22.9,4.7,34.8h-700.7V391.1z"/>
			</g>
		</g>
		<g>
			<path class="st1" d="M265.5,327c-3.5-3.2-7.3-2.6-9.2-2c-1.7-4.4-5.4-9.4-13.3-9.4c-14,0-15.2,13.8-15.2,13.8
				c-9.9-3-11.8,5.8-11.8,6.1h53.1C269.2,329.9,265.5,327,265.5,327z"/>
			
				<rect x="109.2" y="310.3" transform="matrix(-1 -4.491841e-11 4.491841e-11 -1 262.5747 882.7524)" class="st2" width="44.1" height="262.2"/>
			<path class="st3" d="M114.4,377.2c0-8.9,7.2-16.1,16.1-16.1c8.9,0,16.1,7.2,16.1,16.1c0,0,2.1,38.1-16.1,58.4
				C112.4,415.3,114.4,377.2,114.4,377.2z"/>
			<g>
				<path class="st4" d="M186.9,289.9c0,0,60.4,29.2,36.5,115.5c0,0-12.8-43.4-53.7-54.6L186.9,289.9z"/>
				<path class="st5" d="M73.7,289.9c0,0-60.4,29.2-36.5,115.5c0,0,12.8-43.4,53.7-54.6L73.7,289.9z"/>
				<path class="st6" d="M110.7,368.8h41c1.6,0,3-1.1,3.4-2.7l2.3-9.9c0.5-2.2-1.2-4.2-3.4-4.2h-45.6c-2.2,0-3.9,2.1-3.4,4.2
					l2.3,9.9C107.7,367.6,109.1,368.8,110.7,368.8z"/>
				<linearGradient id="SVGID_3_" gradientUnits="userSpaceOnUse" x1="69.3276" y1="250.1597" x2="191.8019" y2="250.1597">
					<stop  offset="0" style="stop-color:#D2B640"/>
					<stop  offset="0.4677" style="stop-color:#EFDA89"/>
					<stop  offset="0.7204" style="stop-color:#D2B640"/>
					<stop  offset="0.8332" style="stop-color:#CFB340"/>
					<stop  offset="0.9146" style="stop-color:#C7AA40"/>
					<stop  offset="0.986" style="stop-color:#B89A40"/>
					<stop  offset="1" style="stop-color:#B49640"/>
				</linearGradient>
				<path class="st7" d="M190.5,266.6c0,0-6.3,57.8-25.8,94.5c0,0-30.9-14.9-67.6,0c0,0-22.3-30.9-26.9-99.1
					c-2.6-39.3,0.5-84.1,13.5-122.7h90.8C186.6,170.7,195.2,213,190.5,266.6z"/>
				<path class="st6" d="M137.6,76.6c9.1,10.3,24.8,31.1,37,62.7H83.7c8.3-24.7,20.7-46.9,38.2-63.4
					C126.4,71.6,133.5,71.9,137.6,76.6z"/>
				<path class="st4" d="M131.9,263.8c0,0,27.9,63.3,0,138.6C131.9,402.4,100.9,339.5,131.9,263.8z"/>
				<circle class="st6" cx="129.3" cy="205" r="35"/>
				
					<ellipse transform="matrix(0.9735 -0.2287 0.2287 0.9735 -43.4581 35.0017)" class="st8" cx="129.3" cy="205" rx="24.3" ry="24.3"/>
			</g>
			<g>
				<defs>
					
						<rect id="SVGID_4_" x="-181.2" y="468.9" transform="matrix(-1 -4.489932e-11 4.489932e-11 -1 301.8114 1066.3998)" width="664.2" height="128.6"/>
				</defs>
				<clipPath id="SVGID_5_">
					<use xlink:href="#SVGID_4_"  style="overflow:visible;"/>
				</clipPath>
				<g class="st9">
					<ellipse class="st10" cx="176.2" cy="520.6" rx="25" ry="24.7"/>
					<ellipse class="st10" cx="112.3" cy="500.2" rx="17.1" ry="16.9"/>
					<ellipse class="st2" cx="191.8" cy="581.3" rx="51.3" ry="50.6"/>
					<ellipse class="st2" cx="34.9" cy="581.3" rx="46" ry="45.3"/>
					<ellipse class="st2" cx="110.7" cy="542.1" rx="35.9" ry="35.4"/>
					<ellipse class="st11" cx="142.8" cy="541.7" rx="30.3" ry="29.9"/>
					<ellipse class="st2" cx="384.8" cy="656.9" rx="92.7" ry="91.4"/>
					<ellipse class="st10" cx="273.5" cy="604.6" rx="69.5" ry="68.5"/>
					<ellipse class="st1" cx="-66.4" cy="651.2" rx="98.2" ry="96.9"/>
					<ellipse class="st11" cx="177.2" cy="628.5" rx="69.5" ry="68.5"/>
					<ellipse class="st10" cx="93.7" cy="620" rx="78.1" ry="77"/>
				</g>
			</g>
			<g>
				<g>
					<path class="st6" d="M217.1,114.2c0,0.6,0.5,1.1,1.1,1.1l0,0c0.6,0,1.1-0.5,1.1-1.1v-11.8c0-0.6-0.5-1.1-1.1-1.1l0,0
						c-0.6,0-1.1,0.5-1.1,1.1V114.2z"/>
					<path class="st6" d="M224.1,109.4c0.6,0,1.1-0.5,1.1-1.1l0,0c0-0.6-0.5-1.1-1.1-1.1h-11.8c-0.6,0-1.1,0.5-1.1,1.1l0,0
						c0,0.6,0.5,1.1,1.1,1.1H224.1z"/>
				</g>
			</g>
			<g>
				<g>
					<path class="st6" d="M306,137.3c0,0.6,0.5,1.1,1.1,1.1l0,0c0.6,0,1.1-0.5,1.1-1.1v-11.8c0-0.6-0.5-1.1-1.1-1.1l0,0
						c-0.6,0-1.1,0.5-1.1,1.1V137.3z"/>
					<path class="st6" d="M313,132.4c0.6,0,1.1-0.5,1.1-1.1l0,0c0-0.6-0.5-1.1-1.1-1.1h-11.8c-0.6,0-1.1,0.5-1.1,1.1l0,0
						c0,0.6,0.5,1.1,1.1,1.1H313z"/>
				</g>
			</g>
			<g>
				<g>
					<path class="st6" d="M65.8,85.1c0,0.6,0.5,1.1,1.1,1.1l0,0c0.6,0,1.1-0.5,1.1-1.1V73.3c0-0.6-0.5-1.1-1.1-1.1l0,0
						c-0.6,0-1.1,0.5-1.1,1.1V85.1z"/>
					<path class="st6" d="M72.8,80.3c0.6,0,1.1-0.5,1.1-1.1l0,0c0-0.6-0.5-1.1-1.1-1.1H61c-0.6,0-1.1,0.5-1.1,1.1l0,0
						c0,0.6,0.5,1.1,1.1,1.1H72.8z"/>
				</g>
			</g>
			<g>
				<path class="st6" d="M36.8,217.5c0,0.6,0.5,1.1,1.1,1.1l0,0c0.6,0,1.1-0.5,1.1-1.1v-11.8c0-0.6-0.5-1.1-1.1-1.1l0,0
					c-0.6,0-1.1,0.5-1.1,1.1V217.5z"/>
				<path class="st6" d="M43.8,212.7c0.6,0,1.1-0.5,1.1-1.1l0,0c0-0.6-0.5-1.1-1.1-1.1H32c-0.6,0-1.1,0.5-1.1,1.1l0,0
					c0,0.6,0.5,1.1,1.1,1.1H43.8z"/>
			</g>
		</g>
	</g>
</g>
</svg>
