<?xml version="1.0" encoding="utf-8"?>
<!-- Generator: Adobe Illustrator 22.1.0, SVG Export Plug-In . SVG Version: 6.00 Build 0)  -->
<svg version="1.1" id="Capa_1" xmlns="http://www.w3.org/2000/svg" xmlns:xlink="http://www.w3.org/1999/xlink" x="0px" y="0px"
	 viewBox="0 0 1366 1024.5" style="enable-background:new 0 0 1366 1024.5;" xml:space="preserve">
<style type="text/css">
	.st0{fill:#FFFFFF;}
	.st1{clip-path:url(#SVGID_3_);}
	.st2{fill:url(#SVGID_4_);}
	.st3{fill:url(#SVGID_5_);}
	.st4{opacity:0.15;fill:#FFFFFF;enable-background:new    ;}
	.st5{fill:url(#SVGID_6_);}
	.st6{fill:#F19580;}
	.st7{fill:#5ED09B;}
	.st8{opacity:0.1;fill:#FFFFFF;enable-background:new    ;}
	.st9{opacity:0.4;fill:#FFFFFF;enable-background:new    ;}
</style>
<g>
	<g>
		<rect id="SVGID_1_" class="st0" width="1366" height="1024.5"/>
	</g>
	<g>
		<defs>
			<rect id="SVGID_2_" width="1366" height="1024.5"/>
		</defs>
		<clipPath id="SVGID_3_">
			<use xlink:href="#SVGID_2_"  style="overflow:visible;"/>
		</clipPath>
		<g class="st1">
			<g>
				<path d="M-160.3,0h654.5c175.9,180.4,174.5,469-4.1,647.6c-179.6,179.6-470.1,180-650.5,1.6C-160.3,649.2-160.3,0-160.3,0z"/>
				
					<linearGradient id="SVGID_4_" gradientUnits="userSpaceOnUse" x1="1851.5264" y1="528.6694" x2="1668.2316" y2="317.0949" gradientTransform="matrix(-1 0 0 -1 1800.825 1023.5)">
					<stop  offset="0" style="stop-color:#333333"/>
					<stop  offset="1" style="stop-color:#000000;stop-opacity:0"/>
				</linearGradient>
				<path class="st2" d="M-160.3,494.5C-15.7,517.6,193,668.8,390.6,723.4c-175.2,98.9-401.1,74.2-550.8-74.2
					C-160.3,649.2-160.3,494.5-160.3,494.5z"/>
				
					<linearGradient id="SVGID_5_" gradientUnits="userSpaceOnUse" x1="1552.0227" y1="435.7189" x2="1130.7324" y2="849.3484" gradientTransform="matrix(-1 0 0 -1 1800.825 1023.5)">
					<stop  offset="0" style="stop-color:#333333"/>
					<stop  offset="1" style="stop-color:#000000;stop-opacity:0"/>
				</linearGradient>
				<path class="st3" d="M222.3,510.3c100-129.7,309.7-147.4,393.6-280c29.5,146.2-12.5,304-125.8,417.3
					C318,819.8,43.6,827.2-137.5,670.2C-6.9,680,141.4,615.1,222.3,510.3z"/>
				<g>
					<path class="st4" d="M318.6,555.6c71.1,0,132.5,42,160.6,102.5c-92.7,86.8-212.4,128.2-330.8,124.1
						c-4.6-15.7-6.9-32.2-6.9-49.3C141.2,635.2,220.7,555.6,318.6,555.6z"/>
					
						<linearGradient id="SVGID_6_" gradientUnits="userSpaceOnUse" x1="220.9079" y1="317.0219" x2="413.3573" y2="317.0219" gradientTransform="matrix(1 0 0 -1 0 1023.5)">
						<stop  offset="0" style="stop-color:#D2B640"/>
						<stop  offset="0.4677" style="stop-color:#EFDA89"/>
						<stop  offset="0.7204" style="stop-color:#D2B640"/>
						<stop  offset="0.8332" style="stop-color:#CFB340"/>
						<stop  offset="0.9146" style="stop-color:#C7AA40"/>
						<stop  offset="0.986" style="stop-color:#B89A40"/>
						<stop  offset="1" style="stop-color:#B49640"/>
					</linearGradient>
					<path class="st5" d="M318.6,635.3c45.9,0,84.3,31.7,94.8,74.2c-55.8,35.9-117.9,58.7-181.6,68.1c-6.9-13.3-10.8-28.6-10.8-44.6
						C220.9,679.1,264.7,635.3,318.6,635.3z"/>
				</g>
				<g>
					
						<ellipse transform="matrix(0.9976 -6.980921e-02 6.980921e-02 0.9976 -13.0366 33.2511)" class="st4" cx="469.2" cy="203.1" rx="29.9" ry="29.9"/>
					<path class="st6" d="M452.8,203.1c0,9.1,7.3,16.4,16.4,16.4c9.1,0,16.4-7.3,16.4-16.4s-7.3-16.4-16.4-16.4
						C460.1,186.8,452.8,194.1,452.8,203.1z"/>
				</g>
				<g>
					<path class="st4" d="M88.8,420.3c0,32.9,26.7,59.4,59.4,59.4c32.9,0,59.4-26.7,59.4-59.4c0-32.9-26.7-59.4-59.4-59.4
						C115.4,360.9,88.8,387.6,88.8,420.3z"/>
					<path class="st7" d="M115.4,420.3c0,18.1,14.6,32.7,32.7,32.7s32.7-14.6,32.7-32.7s-14.6-32.7-32.7-32.7
						C130.2,387.6,115.4,402.3,115.4,420.3z"/>
				</g>
				<g>
					<path class="st8" d="M382.1,115.3c0,3,2.5,5.5,5.5,5.5c3,0,5.5-2.5,5.5-5.5c0-3-2.5-5.5-5.5-5.5
						C384.5,109.7,382.1,112.2,382.1,115.3z"/>
					<path class="st0" d="M386.1,115.3c0,0.7,0.5,1.2,1.2,1.2s1.2-0.5,1.2-1.2s-0.5-1.2-1.2-1.2C386.9,114,386.1,114.5,386.1,115.3z
						"/>
				</g>
				<g>
					<path class="st8" d="M234.8,226.1c0,3,2.5,5.5,5.5,5.5c3,0,5.5-2.5,5.5-5.5s-2.5-5.5-5.5-5.5
						C237.3,220.6,234.8,223,234.8,226.1z"/>
					<circle class="st0" cx="240.3" cy="226.1" r="1.2"/>
				</g>
				<g>
					<path class="st8" d="M519.4,385.1c0,10.7,8.7,19.4,19.4,19.4s19.4-8.7,19.4-19.4s-8.7-19.4-19.4-19.4S519.4,374.4,519.4,385.1z
						"/>
					<path class="st0" d="M534.3,385.1c0,2.5,2,4.6,4.6,4.6c2.5,0,4.6-2,4.6-4.6c0-2.5-2-4.6-4.6-4.6
						C536.3,380.6,534.3,382.6,534.3,385.1z"/>
				</g>
				<g>
					<path class="st8" d="M119.5,118.3c0,20.1,16.2,36.3,36.3,36.3s36.3-16.2,36.3-36.3S175.9,82,155.8,82
						C135.7,82.2,119.5,98.4,119.5,118.3z"/>
					<path class="st9" d="M141.9,118.3c0,7.6,6.2,13.9,13.9,13.9s13.9-6.2,13.9-13.9c0-7.6-6.2-13.9-13.9-13.9
						C148.2,104.6,141.9,110.8,141.9,118.3z"/>
				</g>
				<g>
					<path class="st0" d="M279.1,44.6c0,0.5,0.5,1.1,1.1,1.1l0,0c0.5,0,1.1-0.5,1.1-1.1V32.7c0-0.5-0.5-1.1-1.1-1.1l0,0
						c-0.5,0-1.1,0.5-1.1,1.1V44.6z"/>
					<path class="st0" d="M286.2,39.8c0.5,0,1.1-0.5,1.1-1.1l0,0c0-0.5-0.5-1.1-1.1-1.1h-11.9c-0.5,0-1.1,0.5-1.1,1.1l0,0
						c0,0.5,0.5,1.1,1.1,1.1H286.2z"/>
				</g>
				<g>
					<path class="st0" d="M369.6,253.8c0,0.5,0.5,1.1,1.1,1.1l0,0c0.5,0,1.1-0.5,1.1-1.1v-11.9c0-0.5-0.5-1.1-1.1-1.1l0,0
						c-0.5,0-1.1,0.5-1.1,1.1V253.8z"/>
					<path class="st0" d="M376.5,249c0.5,0,1.1-0.5,1.1-1.1l0,0c0-0.5-0.5-1.1-1.1-1.1h-11.9c-0.5,0-1.1,0.5-1.1,1.1l0,0
						c0,0.5,0.5,1.1,1.1,1.1H376.5z"/>
				</g>
				<g>
					<path class="st0" d="M290.8,353.2c0,0.5,0.5,1.1,1.1,1.1l0,0c0.5,0,1.1-0.5,1.1-1.1v-11.9c0-0.5-0.5-1.1-1.1-1.1l0,0
						c-0.5,0-1.1,0.5-1.1,1.1V353.2z"/>
					<path class="st0" d="M297.7,348.4c0.5,0,1.1-0.5,1.1-1.1l0,0c0-0.5-0.5-1.1-1.1-1.1h-11.9c-0.5,0-1.1,0.5-1.1,1.1l0,0
						c0,0.5,0.5,1.1,1.1,1.1H297.7z"/>
				</g>
				<g>
					<path class="st0" d="M47.1,716.6c0,0.4,0.4,0.7,0.7,0.7l0,0c0.4,0,0.7-0.4,0.7-0.7V709c0-0.4-0.4-0.7-0.7-0.7l0,0
						c-0.4,0-0.7,0.4-0.7,0.7V716.6z"/>
					<path class="st0" d="M51.8,713.6c0.4,0,0.7-0.4,0.7-0.7l0,0c0-0.4-0.4-0.7-0.7-0.7h-7.6c-0.4,0-0.7,0.4-0.7,0.7l0,0
						c0,0.4,0.4,0.7,0.7,0.7H51.8z"/>
				</g>
			</g>
		</g>
	</g>
</g>
</svg>
