<?xml version="1.0" encoding="utf-8"?>
<!-- Generator: Adobe Illustrator 22.1.0, SVG Export Plug-In . SVG Version: 6.00 Build 0)  -->
<svg version="1.1" id="Capa_1" xmlns="http://www.w3.org/2000/svg" xmlns:xlink="http://www.w3.org/1999/xlink" x="0px" y="0px"
	 viewBox="0 0 768 576" style="enable-background:new 0 0 768 576;" xml:space="preserve">
<style type="text/css">
	.st0{clip-path:url(#SVGID_2_);}
	.st1{fill:url(#SVGID_3_);}
	.st2{fill:url(#SVGID_4_);}
	.st3{opacity:0.15;fill:#FFFFFF;}
	.st4{fill:url(#SVGID_5_);}
	.st5{fill:#F19580;}
	.st6{fill:#5ED09B;}
	.st7{opacity:0.1;fill:#FFFFFF;}
	.st8{fill:#FFFFFF;}
	.st9{opacity:0.4;fill:#FFFFFF;}
</style>
<g>
	<defs>
		<rect id="SVGID_1_" x="0" y="0" width="768" height="576"/>
	</defs>
	<use xlink:href="#SVGID_1_"  style="overflow:visible;fill:#FFFFFF;"/>
	<clipPath id="SVGID_2_">
		<use xlink:href="#SVGID_1_"  style="overflow:visible;"/>
	</clipPath>
	<g class="st0">
		<g>
			<path d="M-90.1,0l368,0c98.9,101.4,98.1,263.7-2.3,364.1c-101,101-264.3,101.2-365.7,0.9V0z"/>
			
				<linearGradient id="SVGID_3_" gradientUnits="userSpaceOnUse" x1="471.3121" y1="278.1904" x2="368.2591" y2="397.143" gradientTransform="matrix(-1 0 0 1 442.8249 0)">
				<stop  offset="0" style="stop-color:#333333"/>
				<stop  offset="1" style="stop-color:#000000;stop-opacity:0"/>
			</linearGradient>
			<path class="st1" d="M-90.1,278c81.3,13,198.6,98,309.7,128.7c-98.5,55.6-225.5,41.7-309.7-41.7V278z"/>
			
				<linearGradient id="SVGID_4_" gradientUnits="userSpaceOnUse" x1="302.9842" y1="330.4225" x2="66.1241" y2="97.8694" gradientTransform="matrix(-1 0 0 1 442.8249 0)">
				<stop  offset="0" style="stop-color:#333333"/>
				<stop  offset="1" style="stop-color:#000000;stop-opacity:0"/>
			</linearGradient>
			<path class="st2" d="M125,286.9c56.2-72.9,174.1-82.9,221.3-157.4c16.6,82.2-7,170.9-70.7,234.6c-96.8,96.8-251.1,101-352.9,12.7
				C-3.9,382.3,79.5,345.8,125,286.9z"/>
			<g>
				<path class="st3" d="M179.1,312.4c40,0,74.5,23.6,90.3,57.6c-52.1,48.8-119.4,72.1-186,69.8c-2.6-8.8-3.9-18.1-3.9-27.7
					C79.4,357.1,124.1,312.4,179.1,312.4z"/>
				<linearGradient id="SVGID_5_" gradientUnits="userSpaceOnUse" x1="124.2153" y1="397.2138" x2="232.3588" y2="397.2138">
					<stop  offset="0" style="stop-color:#D2B640"/>
					<stop  offset="0.4677" style="stop-color:#EFDA89"/>
					<stop  offset="0.7204" style="stop-color:#D2B640"/>
					<stop  offset="0.8332" style="stop-color:#CFB340"/>
					<stop  offset="0.9146" style="stop-color:#C7AA40"/>
					<stop  offset="0.986" style="stop-color:#B89A40"/>
					<stop  offset="1" style="stop-color:#B49640"/>
				</linearGradient>
				<path class="st4" d="M179.1,357.2c25.8,0,47.4,17.8,53.3,41.7c-31.4,20.2-66.3,33-102.1,38.3c-3.9-7.5-6.1-16.1-6.1-25.1
					C124.2,381.8,148.8,357.2,179.1,357.2z"/>
			</g>
			<g>
				
					<ellipse transform="matrix(0.9735 -0.2287 0.2287 0.9735 -19.1222 63.3697)" class="st3" cx="263.8" cy="114.2" rx="16.8" ry="16.8"/>
				<path class="st5" d="M254.6,114.2c0,5.1,4.1,9.2,9.2,9.2c5.1,0,9.2-4.1,9.2-9.2c0-5.1-4.1-9.2-9.2-9.2
					C258.7,105,254.6,109.1,254.6,114.2z"/>
			</g>
			<g>
				<path class="st3" d="M49.9,236.3c0,18.5,15,33.4,33.4,33.4c18.5,0,33.4-15,33.4-33.4c0-18.5-15-33.4-33.4-33.4
					C64.9,202.9,49.9,217.9,49.9,236.3z"/>
				<path class="st6" d="M64.9,236.3c0,10.2,8.2,18.4,18.4,18.4c10.2,0,18.4-8.2,18.4-18.4c0-10.2-8.2-18.4-18.4-18.4
					C73.2,217.9,64.9,226.2,64.9,236.3z"/>
			</g>
			<g>
				<path class="st7" d="M214.8,64.8c0,1.7,1.4,3.1,3.1,3.1c1.7,0,3.1-1.4,3.1-3.1c0-1.7-1.4-3.1-3.1-3.1
					C216.2,61.7,214.8,63.1,214.8,64.8z"/>
				<path class="st8" d="M217.1,64.8c0,0.4,0.3,0.7,0.7,0.7c0.4,0,0.7-0.3,0.7-0.7s-0.3-0.7-0.7-0.7
					C217.5,64.1,217.1,64.4,217.1,64.8z"/>
			</g>
			<g>
				<path class="st7" d="M132,127.1c0,1.7,1.4,3.1,3.1,3.1c1.7,0,3.1-1.4,3.1-3.1c0-1.7-1.4-3.1-3.1-3.1
					C133.4,124,132,125.4,132,127.1z"/>
				<circle class="st8" cx="135.1" cy="127.1" r="0.7"/>
			</g>
			<g>
				<path class="st7" d="M292,216.5c0,6,4.9,10.9,10.9,10.9c6,0,10.9-4.9,10.9-10.9c0-6-4.9-10.9-10.9-10.9
					C296.9,205.6,292,210.5,292,216.5z"/>
				<path class="st8" d="M300.4,216.5c0,1.4,1.1,2.6,2.6,2.6c1.4,0,2.6-1.1,2.6-2.6c0-1.4-1.1-2.6-2.6-2.6
					C301.5,214,300.4,215.1,300.4,216.5z"/>
			</g>
			<g>
				<path class="st7" d="M67.2,66.5c0,11.3,9.1,20.4,20.4,20.4c11.3,0,20.4-9.1,20.4-20.4c0-11.3-9.1-20.4-20.4-20.4
					C76.3,46.2,67.2,55.3,67.2,66.5z"/>
				<path class="st9" d="M79.8,66.5c0,4.3,3.5,7.8,7.8,7.8c4.3,0,7.8-3.5,7.8-7.8c0-4.3-3.5-7.8-7.8-7.8
					C83.3,58.8,79.8,62.3,79.8,66.5z"/>
			</g>
			<g>
				<path class="st8" d="M156.9,25.1c0,0.3,0.3,0.6,0.6,0.6l0,0c0.3,0,0.6-0.3,0.6-0.6v-6.7c0-0.3-0.3-0.6-0.6-0.6l0,0
					c-0.3,0-0.6,0.3-0.6,0.6V25.1z"/>
				<path class="st8" d="M160.9,22.4c0.3,0,0.6-0.3,0.6-0.6l0,0c0-0.3-0.3-0.6-0.6-0.6h-6.7c-0.3,0-0.6,0.3-0.6,0.6l0,0
					c0,0.3,0.3,0.6,0.6,0.6H160.9z"/>
			</g>
			<g>
				<path class="st8" d="M207.8,142.7c0,0.3,0.3,0.6,0.6,0.6l0,0c0.3,0,0.6-0.3,0.6-0.6V136c0-0.3-0.3-0.6-0.6-0.6l0,0
					c-0.3,0-0.6,0.3-0.6,0.6V142.7z"/>
				<path class="st8" d="M211.7,140c0.3,0,0.6-0.3,0.6-0.6l0,0c0-0.3-0.3-0.6-0.6-0.6h-6.7c-0.3,0-0.6,0.3-0.6,0.6l0,0
					c0,0.3,0.3,0.6,0.6,0.6H211.7z"/>
			</g>
			<g>
				<path class="st8" d="M163.5,198.6c0,0.3,0.3,0.6,0.6,0.6l0,0c0.3,0,0.6-0.3,0.6-0.6v-6.7c0-0.3-0.3-0.6-0.6-0.6l0,0
					c-0.3,0-0.6,0.3-0.6,0.6V198.6z"/>
				<path class="st8" d="M167.4,195.9c0.3,0,0.6-0.3,0.6-0.6l0,0c0-0.3-0.3-0.6-0.6-0.6h-6.7c-0.3,0-0.6,0.3-0.6,0.6l0,0
					c0,0.3,0.3,0.6,0.6,0.6H167.4z"/>
			</g>
			<g>
				<path class="st8" d="M26.5,402.9c0,0.2,0.2,0.4,0.4,0.4l0,0c0.2,0,0.4-0.2,0.4-0.4v-4.3c0-0.2-0.2-0.4-0.4-0.4l0,0
					c-0.2,0-0.4,0.2-0.4,0.4V402.9z"/>
				<path class="st8" d="M29.1,401.2c0.2,0,0.4-0.2,0.4-0.4l0,0c0-0.2-0.2-0.4-0.4-0.4h-4.3c-0.2,0-0.4,0.2-0.4,0.4l0,0
					c0,0.2,0.2,0.4,0.4,0.4H29.1z"/>
			</g>
		</g>
	</g>
</g>
</svg>
