<?xml version="1.0" encoding="utf-8"?>
<!-- Generator: Adobe Illustrator 22.1.0, SVG Export Plug-In . SVG Version: 6.00 Build 0)  -->
<svg version="1.1" id="Capa_1" xmlns="http://www.w3.org/2000/svg" xmlns:xlink="http://www.w3.org/1999/xlink" x="0px" y="0px"
	 viewBox="0 0 768 576" style="enable-background:new 0 0 768 576;" xml:space="preserve">
<style type="text/css">
	.st0{clip-path:url(#SVGID_2_);}
	.st1{fill:url(#SVGID_3_);}
	.st2{fill:url(#SVGID_4_);}
	.st3{opacity:0.15;fill:#FFFFFF;}
	.st4{fill:url(#SVGID_5_);}
	.st5{fill:#F19580;}
	.st6{fill:#5ED09B;}
	.st7{opacity:0.1;fill:#FFFFFF;}
	.st8{fill:#FFFFFF;}
	.st9{opacity:0.4;fill:#FFFFFF;}
</style>
<g>
	<defs>
		<rect id="SVGID_1_" x="0" width="768" height="576"/>
	</defs>
	<use xlink:href="#SVGID_1_"  style="overflow:visible;fill:#FFFFFF;"/>
	<clipPath id="SVGID_2_">
		<use xlink:href="#SVGID_1_"  style="overflow:visible;"/>
	</clipPath>
	<g class="st0">
		<g>
			<path d="M768,0L400,0c-98.9,101.4-98.1,263.7,2.3,364.1c101,101,264.3,101.2,365.7,0.9V0z"/>
			
				<linearGradient id="SVGID_3_" gradientUnits="userSpaceOnUse" x1="1647.8292" y1="278.1904" x2="1544.7762" y2="397.143" gradientTransform="matrix(1 0 0 1 -941.436 0)">
				<stop  offset="0" style="stop-color:#333333"/>
				<stop  offset="1" style="stop-color:#000000;stop-opacity:0"/>
			</linearGradient>
			<path class="st1" d="M768,278c-81.3,13-198.6,98-309.7,128.7c98.5,55.6,225.5,41.7,309.7-41.7V278z"/>
			
				<linearGradient id="SVGID_4_" gradientUnits="userSpaceOnUse" x1="1479.5013" y1="330.4225" x2="1242.6412" y2="97.8694" gradientTransform="matrix(1 0 0 1 -941.436 0)">
				<stop  offset="0" style="stop-color:#333333"/>
				<stop  offset="1" style="stop-color:#000000;stop-opacity:0"/>
			</linearGradient>
			<path class="st2" d="M552.9,286.9c-56.2-72.9-174.1-82.9-221.3-157.4c-16.6,82.2,7,170.9,70.7,234.6
				c96.8,96.8,251.1,101,352.9,12.7C681.8,382.3,598.4,345.8,552.9,286.9z"/>
			<g>
				<path class="st3" d="M498.8,312.4c-40,0-74.5,23.6-90.3,57.6c52.1,48.8,119.4,72.1,186,69.8c2.6-8.8,3.9-18.1,3.9-27.7
					C598.5,357.1,553.9,312.4,498.8,312.4z"/>
				
					<linearGradient id="SVGID_5_" gradientUnits="userSpaceOnUse" x1="-1054.3019" y1="397.2138" x2="-946.1583" y2="397.2138" gradientTransform="matrix(-1 0 0 1 -500.6111 0)">
					<stop  offset="0" style="stop-color:#D2B640"/>
					<stop  offset="0.4677" style="stop-color:#EFDA89"/>
					<stop  offset="0.7204" style="stop-color:#D2B640"/>
					<stop  offset="0.8332" style="stop-color:#CFB340"/>
					<stop  offset="0.9146" style="stop-color:#C7AA40"/>
					<stop  offset="0.986" style="stop-color:#B89A40"/>
					<stop  offset="1" style="stop-color:#B49640"/>
				</linearGradient>
				<path class="st4" d="M498.8,357.2c-25.8,0-47.4,17.8-53.3,41.7c31.4,20.2,66.3,33,102.1,38.3c3.9-7.5,6.1-16.1,6.1-25.1
					C553.7,381.8,529.1,357.2,498.8,357.2z"/>
			</g>
			<g>
				
					<ellipse transform="matrix(0.2287 -0.9735 0.9735 0.2287 208.2289 491.1781)" class="st3" cx="414.1" cy="114.2" rx="16.8" ry="16.8"/>
				<path class="st5" d="M423.3,114.2c0,5.1-4.1,9.2-9.2,9.2c-5.1,0-9.2-4.1-9.2-9.2c0-5.1,4.1-9.2,9.2-9.2
					C419.2,105,423.3,109.1,423.3,114.2z"/>
			</g>
			<g>
				<path class="st3" d="M628,236.3c0,18.5-15,33.4-33.4,33.4c-18.5,0-33.4-15-33.4-33.4c0-18.5,15-33.4,33.4-33.4
					C613,202.9,628,217.9,628,236.3z"/>
				<path class="st6" d="M613,236.3c0,10.2-8.2,18.4-18.4,18.4c-10.2,0-18.4-8.2-18.4-18.4c0-10.2,8.2-18.4,18.4-18.4
					C604.7,217.9,613,226.2,613,236.3z"/>
			</g>
			<g>
				<path class="st7" d="M463.1,64.8c0,1.7-1.4,3.1-3.1,3.1c-1.7,0-3.1-1.4-3.1-3.1c0-1.7,1.4-3.1,3.1-3.1
					C461.7,61.7,463.1,63.1,463.1,64.8z"/>
				<path class="st8" d="M460.8,64.8c0,0.4-0.3,0.7-0.7,0.7s-0.7-0.3-0.7-0.7s0.3-0.7,0.7-0.7S460.8,64.4,460.8,64.8z"/>
			</g>
			<g>
				<path class="st7" d="M545.9,127.1c0,1.7-1.4,3.1-3.1,3.1c-1.7,0-3.1-1.4-3.1-3.1c0-1.7,1.4-3.1,3.1-3.1
					C544.5,124,545.9,125.4,545.9,127.1z"/>
				<circle class="st8" cx="542.8" cy="127.1" r="0.7"/>
			</g>
			<g>
				<path class="st7" d="M385.9,216.5c0,6-4.9,10.9-10.9,10.9c-6,0-10.9-4.9-10.9-10.9c0-6,4.9-10.9,10.9-10.9
					C381,205.6,385.9,210.5,385.9,216.5z"/>
				<path class="st8" d="M377.5,216.5c0,1.4-1.1,2.6-2.6,2.6c-1.4,0-2.6-1.1-2.6-2.6c0-1.4,1.1-2.6,2.6-2.6
					C376.4,214,377.5,215.1,377.5,216.5z"/>
			</g>
			<g>
				<path class="st7" d="M610.7,66.5c0,11.3-9.1,20.4-20.4,20.4c-11.3,0-20.4-9.1-20.4-20.4c0-11.3,9.1-20.4,20.4-20.4
					C601.6,46.2,610.7,55.3,610.7,66.5z"/>
				<path class="st9" d="M598.1,66.5c0,4.3-3.5,7.8-7.8,7.8c-4.3,0-7.8-3.5-7.8-7.8c0-4.3,3.5-7.8,7.8-7.8
					C594.6,58.8,598.1,62.3,598.1,66.5z"/>
			</g>
			<g>
				<path class="st8" d="M434.7,25.1c0,0.3-0.3,0.6-0.6,0.6l0,0c-0.3,0-0.6-0.3-0.6-0.6v-6.7c0-0.3,0.3-0.6,0.6-0.6l0,0
					c0.3,0,0.6,0.3,0.6,0.6V25.1z"/>
				<path class="st8" d="M430.7,22.4c-0.3,0-0.6-0.3-0.6-0.6l0,0c0-0.3,0.3-0.6,0.6-0.6h6.7c0.3,0,0.6,0.3,0.6,0.6l0,0
					c0,0.3-0.3,0.6-0.6,0.6H430.7z"/>
			</g>
			<g>
				<path class="st8" d="M470.1,142.7c0,0.3-0.3,0.6-0.6,0.6l0,0c-0.3,0-0.6-0.3-0.6-0.6V136c0-0.3,0.3-0.6,0.6-0.6l0,0
					c0.3,0,0.6,0.3,0.6,0.6V142.7z"/>
				<path class="st8" d="M466.2,140c-0.3,0-0.6-0.3-0.6-0.6l0,0c0-0.3,0.3-0.6,0.6-0.6h6.7c0.3,0,0.6,0.3,0.6,0.6l0,0
					c0,0.3-0.3,0.6-0.6,0.6H466.2z"/>
			</g>
			<g>
				<path class="st8" d="M514.4,198.6c0,0.3-0.3,0.6-0.6,0.6l0,0c-0.3,0-0.6-0.3-0.6-0.6v-6.7c0-0.3,0.3-0.6,0.6-0.6l0,0
					c0.3,0,0.6,0.3,0.6,0.6V198.6z"/>
				<path class="st8" d="M510.5,195.9c-0.3,0-0.6-0.3-0.6-0.6l0,0c0-0.3,0.3-0.6,0.6-0.6h6.7c0.3,0,0.6,0.3,0.6,0.6l0,0
					c0,0.3-0.3,0.6-0.6,0.6H510.5z"/>
			</g>
			<g>
				<path class="st8" d="M651.4,402.9c0,0.2-0.2,0.4-0.4,0.4l0,0c-0.2,0-0.4-0.2-0.4-0.4v-4.3c0-0.2,0.2-0.4,0.4-0.4l0,0
					c0.2,0,0.4,0.2,0.4,0.4V402.9z"/>
				<path class="st8" d="M648.8,401.2c-0.2,0-0.4-0.2-0.4-0.4l0,0c0-0.2,0.2-0.4,0.4-0.4h4.3c0.2,0,0.4,0.2,0.4,0.4l0,0
					c0,0.2-0.2,0.4-0.4,0.4H648.8z"/>
			</g>
		</g>
	</g>
</g>
</svg>
