<?xml version="1.0" encoding="utf-8"?>
<!-- Generator: Adobe Illustrator 22.0.1, SVG Export Plug-In . SVG Version: 6.00 Build 0)  -->
<svg version="1.1" id="Capa_1" xmlns="http://www.w3.org/2000/svg" xmlns:xlink="http://www.w3.org/1999/xlink" x="0px" y="0px"
	 viewBox="0 0 54 36" style="enable-background:new 0 0 54 36;" xml:space="preserve">
<style type="text/css">
	.st0{clip-path:url(#SVGID_2_);}
	.st1{fill:#38376C;}
	.st2{fill:#FFFFFF;}
	.st3{fill:#AF272D;}
</style>
<g>
	<defs>
		<rect id="SVGID_1_" x="0.7" y="0.5" width="52.5" height="35"/>
	</defs>
	<use xlink:href="#SVGID_1_"  style="overflow:visible;fill:#FFFFFF;"/>
	<clipPath id="SVGID_2_">
		<use xlink:href="#SVGID_1_"  style="overflow:visible;"/>
	</clipPath>
	<g class="st0">
		<rect x="0.7" y="0.5" class="st1" width="26.6" height="18.8"/>
		<polygon class="st2" points="2.9,1.2 3.2,2 4,2 3.3,2.5 3.6,3.2 2.9,2.8 2.3,3.2 2.5,2.5 1.9,2 2.7,2 		"/>
		<polygon class="st2" points="7.4,1.2 7.7,2 8.5,2 7.8,2.5 8.1,3.2 7.4,2.8 6.8,3.2 7,2.5 6.4,2 7.2,2 		"/>
		<polygon class="st2" points="11.8,1.2 12.1,2 12.9,2 12.2,2.5 12.5,3.2 11.8,2.8 11.2,3.2 11.4,2.5 10.8,2 11.6,2 		"/>
		<polygon class="st2" points="16.2,1.2 16.5,2 17.3,2 16.6,2.5 16.9,3.2 16.2,2.8 15.6,3.2 15.8,2.5 15.2,2 16,2 		"/>
		<polygon class="st2" points="20.6,1.2 20.9,2 21.7,2 21,2.5 21.3,3.2 20.6,2.8 20,3.2 20.2,2.5 19.6,2 20.4,2 		"/>
		<polygon class="st2" points="23,3.2 23.2,4 24,4 23.4,4.5 23.6,5.2 23,4.8 22.3,5.2 22.5,4.5 21.9,4 22.7,4 		"/>
		<polygon class="st2" points="18.5,3.2 18.8,4 19.6,4 18.9,4.5 19.2,5.2 18.5,4.8 17.9,5.2 18.1,4.5 17.5,4 18.3,4 		"/>
		<polygon class="st2" points="14.1,3.2 14.4,4 15.2,4 14.5,4.5 14.8,5.2 14.1,4.8 13.5,5.2 13.7,4.5 13.1,4 13.9,4 		"/>
		<polygon class="st2" points="9.6,3.2 9.8,4 10.6,4 10,4.5 10.2,5.2 9.6,4.8 8.9,5.2 9.2,4.5 8.5,4 9.3,4 		"/>
		<polygon class="st2" points="5.2,3.2 5.4,4 6.2,4 5.6,4.5 5.8,5.2 5.2,4.8 4.5,5.2 4.8,4.5 4.1,4 4.9,4 		"/>
		<polygon class="st2" points="25.2,1.2 25.4,2 26.2,2 25.6,2.5 25.8,3.2 25.2,2.8 24.5,3.2 24.8,2.5 24.1,2 24.9,2 		"/>
		<polygon class="st2" points="2.9,4.9 3.2,5.7 4,5.7 3.3,6.2 3.6,6.9 2.9,6.5 2.3,6.9 2.5,6.2 1.9,5.7 2.7,5.7 		"/>
		<polygon class="st2" points="7.4,4.9 7.7,5.7 8.5,5.7 7.8,6.2 8.1,6.9 7.4,6.5 6.8,6.9 7,6.2 6.4,5.7 7.2,5.7 		"/>
		<polygon class="st2" points="11.8,4.9 12.1,5.7 12.9,5.7 12.2,6.2 12.5,6.9 11.8,6.5 11.2,6.9 11.4,6.2 10.8,5.7 11.6,5.7 		"/>
		<polygon class="st2" points="16.2,4.9 16.5,5.7 17.3,5.7 16.6,6.2 16.9,6.9 16.2,6.5 15.6,6.9 15.8,6.2 15.2,5.7 16,5.7 		"/>
		<polygon class="st2" points="20.6,4.9 20.9,5.7 21.7,5.7 21,6.2 21.3,6.9 20.6,6.5 20,6.9 20.2,6.2 19.6,5.7 20.4,5.7 		"/>
		<polygon class="st2" points="23,6.9 23.2,7.7 24,7.7 23.4,8.2 23.6,8.9 23,8.5 22.3,8.9 22.5,8.2 21.9,7.7 22.7,7.7 		"/>
		<polygon class="st2" points="18.5,6.9 18.8,7.7 19.6,7.7 18.9,8.2 19.2,8.9 18.5,8.5 17.9,8.9 18.1,8.2 17.5,7.7 18.3,7.7 		"/>
		<polygon class="st2" points="14.1,6.9 14.4,7.7 15.2,7.7 14.5,8.2 14.8,8.9 14.1,8.5 13.5,8.9 13.7,8.2 13.1,7.7 13.9,7.7 		"/>
		<polygon class="st2" points="9.6,6.9 9.8,7.7 10.6,7.7 10,8.2 10.2,8.9 9.6,8.5 8.9,8.9 9.2,8.2 8.5,7.7 9.3,7.7 		"/>
		<polygon class="st2" points="5.2,6.9 5.4,7.7 6.2,7.7 5.6,8.2 5.8,8.9 5.2,8.5 4.5,8.9 4.8,8.2 4.1,7.7 4.9,7.7 		"/>
		<polygon class="st2" points="25.2,4.9 25.4,5.7 26.2,5.7 25.6,6.2 25.8,6.9 25.2,6.5 24.5,6.9 24.8,6.2 24.1,5.7 24.9,5.7 		"/>
		<polygon class="st2" points="2.9,8.7 3.2,9.4 4,9.4 3.3,9.9 3.6,10.7 2.9,10.2 2.3,10.7 2.5,9.9 1.9,9.4 2.7,9.4 		"/>
		<polygon class="st2" points="7.4,8.7 7.7,9.4 8.5,9.4 7.8,9.9 8.1,10.7 7.4,10.2 6.8,10.7 7,9.9 6.4,9.4 7.2,9.4 		"/>
		<polygon class="st2" points="11.8,8.7 12.1,9.4 12.9,9.4 12.2,9.9 12.5,10.7 11.8,10.2 11.2,10.7 11.4,9.9 10.8,9.4 11.6,9.4 		
			"/>
		<polygon class="st2" points="16.2,8.7 16.5,9.4 17.3,9.4 16.6,9.9 16.9,10.7 16.2,10.2 15.6,10.7 15.8,9.9 15.2,9.4 16,9.4 		"/>
		<polygon class="st2" points="20.6,8.7 20.9,9.4 21.7,9.4 21,9.9 21.3,10.7 20.6,10.2 20,10.7 20.2,9.9 19.6,9.4 20.4,9.4 		"/>
		<polygon class="st2" points="23,10.7 23.2,11.4 24,11.4 23.4,11.9 23.6,12.7 23,12.2 22.3,12.7 22.5,11.9 21.9,11.4 22.7,11.4 		
			"/>
		<polygon class="st2" points="18.5,10.7 18.8,11.4 19.6,11.4 18.9,11.9 19.2,12.7 18.5,12.2 17.9,12.7 18.1,11.9 17.5,11.4 
			18.3,11.4 		"/>
		<polygon class="st2" points="14.1,10.7 14.4,11.4 15.2,11.4 14.5,11.9 14.8,12.7 14.1,12.2 13.5,12.7 13.7,11.9 13.1,11.4 
			13.9,11.4 		"/>
		<polygon class="st2" points="9.6,10.7 9.8,11.4 10.6,11.4 10,11.9 10.2,12.7 9.6,12.2 8.9,12.7 9.2,11.9 8.5,11.4 9.3,11.4 		"/>
		<polygon class="st2" points="5.2,10.7 5.4,11.4 6.2,11.4 5.6,11.9 5.8,12.7 5.2,12.2 4.5,12.7 4.8,11.9 4.1,11.4 4.9,11.4 		"/>
		<polygon class="st2" points="25.2,8.7 25.4,9.4 26.2,9.4 25.6,9.9 25.8,10.7 25.2,10.2 24.5,10.7 24.8,9.9 24.1,9.4 24.9,9.4 		
			"/>
		<polygon class="st2" points="2.9,12.4 3.2,13.1 4,13.1 3.3,13.6 3.6,14.4 2.9,13.9 2.3,14.4 2.5,13.6 1.9,13.1 2.7,13.1 		"/>
		<polygon class="st2" points="7.4,12.4 7.7,13.1 8.5,13.1 7.8,13.6 8.1,14.4 7.4,13.9 6.8,14.4 7,13.6 6.4,13.1 7.2,13.1 		"/>
		<polygon class="st2" points="11.8,12.4 12.1,13.1 12.9,13.1 12.2,13.6 12.5,14.4 11.8,13.9 11.2,14.4 11.4,13.6 10.8,13.1 
			11.6,13.1 		"/>
		<polygon class="st2" points="16.2,12.4 16.5,13.1 17.3,13.1 16.6,13.6 16.9,14.4 16.2,13.9 15.6,14.4 15.8,13.6 15.2,13.1 
			16,13.1 		"/>
		<polygon class="st2" points="20.6,12.4 20.9,13.1 21.7,13.1 21,13.6 21.3,14.4 20.6,13.9 20,14.4 20.2,13.6 19.6,13.1 20.4,13.1 
					"/>
		<polygon class="st2" points="23,14.4 23.2,15.1 24,15.1 23.4,15.6 23.6,16.4 23,15.9 22.3,16.4 22.5,15.6 21.9,15.1 22.7,15.1 		
			"/>
		<polygon class="st2" points="18.5,14.4 18.8,15.1 19.6,15.1 18.9,15.6 19.2,16.4 18.5,15.9 17.9,16.4 18.1,15.6 17.5,15.1 
			18.3,15.1 		"/>
		<polygon class="st2" points="14.1,14.4 14.4,15.1 15.2,15.1 14.5,15.6 14.8,16.4 14.1,15.9 13.5,16.4 13.7,15.6 13.1,15.1 
			13.9,15.1 		"/>
		<polygon class="st2" points="9.6,14.4 9.8,15.1 10.6,15.1 10,15.6 10.2,16.4 9.6,15.9 8.9,16.4 9.2,15.6 8.5,15.1 9.3,15.1 		"/>
		<polygon class="st2" points="5.2,14.4 5.4,15.1 6.2,15.1 5.6,15.6 5.8,16.4 5.2,15.9 4.5,16.4 4.8,15.6 4.1,15.1 4.9,15.1 		"/>
		<polygon class="st2" points="25.2,12.4 25.4,13.1 26.2,13.1 25.6,13.6 25.8,14.4 25.2,13.9 24.5,14.4 24.8,13.6 24.1,13.1 
			24.9,13.1 		"/>
		<polygon class="st2" points="2.9,16.1 3.2,16.8 4,16.8 3.3,17.3 3.6,18.1 2.9,17.6 2.3,18.1 2.5,17.3 1.9,16.8 2.7,16.8 		"/>
		<polygon class="st2" points="7.4,16.1 7.7,16.8 8.5,16.8 7.8,17.3 8.1,18.1 7.4,17.6 6.8,18.1 7,17.3 6.4,16.8 7.2,16.8 		"/>
		<polygon class="st2" points="11.8,16.1 12.1,16.8 12.9,16.8 12.2,17.3 12.5,18.1 11.8,17.6 11.2,18.1 11.4,17.3 10.8,16.8 
			11.6,16.8 		"/>
		<polygon class="st2" points="16.2,16.1 16.5,16.8 17.3,16.8 16.6,17.3 16.9,18.1 16.2,17.6 15.6,18.1 15.8,17.3 15.2,16.8 
			16,16.8 		"/>
		<polygon class="st2" points="20.6,16.1 20.9,16.8 21.7,16.8 21,17.3 21.3,18.1 20.6,17.6 20,18.1 20.2,17.3 19.6,16.8 20.4,16.8 
					"/>
		<polygon class="st2" points="25.2,16.1 25.4,16.8 26.2,16.8 25.6,17.3 25.8,18.1 25.2,17.6 24.5,18.1 24.8,17.3 24.1,16.8 
			24.9,16.8 		"/>
		<rect x="27.3" y="0.5" class="st3" width="30.1" height="2.7"/>
		<rect x="27.3" y="5.9" class="st3" width="30.1" height="2.7"/>
		<rect x="27.3" y="11.3" class="st3" width="30.1" height="2.7"/>
		<rect x="27.3" y="16.6" class="st3" width="30.1" height="2.7"/>
		<rect x="0.7" y="22" class="st3" width="56.7" height="2.7"/>
		<rect x="0.7" y="27.4" class="st3" width="56.7" height="2.7"/>
		<rect x="0.7" y="32.8" class="st3" width="56.7" height="2.7"/>
	</g>
</g>
</svg>
