<?xml version="1.0" encoding="utf-8"?>
<!-- Generator: Adobe Illustrator 22.0.1, SVG Export Plug-In . SVG Version: 6.00 Build 0)  -->
<svg version="1.1" id="Capa_1" xmlns="http://www.w3.org/2000/svg" xmlns:xlink="http://www.w3.org/1999/xlink" x="0px" y="0px"
	 viewBox="0 0 54 36" style="enable-background:new 0 0 54 36;" xml:space="preserve">
<style type="text/css">
	.st0{fill:#AE2528;}
	.st1{fill:#FFFFFF;}
	.st2{fill:#639E52;}
	.st3{fill:#CEB93A;}
	.st4{fill:#D3C038;}
	.st5{fill:#887926;}
	.st6{fill:#C1A747;}
	.st7{fill:#46779B;}
	.st8{fill:#877049;}
	.st9{fill:#272324;}
</style>
<g>
	<g>
		<rect x="0.7" y="0.5" class="st0" width="52.5" height="35"/>
		<rect x="17.8" y="0.5" class="st1" width="17.5" height="35"/>
	</g>
	<g>
		<path class="st2" d="M30.1,22.9c0,0,0.4-1.3,1.3-1.7c0,0,0.1,0.5,0.1,0.6c0,0,0.7-0.2,1-0.2c0,0-0.1,0.6-0.3,1c0,0,0.6-0.1,0.8,0
			c0,0-0.4,0.4-0.5,0.6s-0.4,0.5-1.4,0.5c-1,0-0.7,0-1.2,0.1c-0.4,0.2-4.5,1-5,1.2c-0.5,0.2-0.8-0.1-0.4-0.4
			c0.4-0.3,4.4-0.7,4.8-0.9C29.6,23.5,30.1,22.9,30.1,22.9z"/>
		<g>
			<path class="st0" d="M30,18.2c-0.5-1.6,0.5-2.4,0.5-2.4l-1.2-1.5c-1.2,0.9-2.3,0.2-2.4,0.2v0c0,0,0,0,0,0c0,0,0,0,0,0v0
				c-0.1,0.1-1.2,0.7-2.4-0.2l-1.2,1.5c0,0,1,0.8,0.5,2.4c-0.5,1.6-0.9,2.9-0.1,3.7s2,0.7,2.7,0.8c0.2,0,0.4,0.3,0.5,0.4
				c0,0,0,0,0,0c0,0,0,0,0,0s0.3-0.3,0.5-0.4c0.6-0.1,1.8-0.1,2.7-0.8C30.9,21.2,30.5,19.9,30,18.2z"/>
			<path class="st3" d="M27,23.2L27,23.2C27,23.1,26.9,23.1,27,23.2c-0.1-0.1-0.3-0.4-0.5-0.4c-0.1,0-0.3-0.1-0.5-0.1
				c-0.6-0.1-1.5-0.2-2.2-0.8c-0.8-0.7-0.4-1.9,0-3.4l0.1-0.3c0.5-1.6-0.5-2.4-0.5-2.4l0,0l1.2-1.6l0,0c1.1,0.9,2.2,0.3,2.3,0.2v0
				l0,0l0,0l0,0c0.2,0.1,1.2,0.7,2.3-0.2l0,0l1.2,1.6l0,0c0,0-1,0.8-0.5,2.4l0.1,0.3c0.5,1.5,0.8,2.7,0,3.4
				c-0.6,0.6-1.5,0.7-2.2,0.8c-0.2,0-0.4,0-0.5,0.1C27.3,22.8,27,23.1,27,23.2L27,23.2z M27,23L27,23c0.1-0.1,0.3-0.3,0.5-0.4
				c0.1,0,0.3-0.1,0.5-0.1c0.6-0.1,1.5-0.2,2.1-0.7c0.8-0.7,0.4-1.9,0-3.4L30,18.3c-0.4-1.5,0.4-2.3,0.5-2.4l-1.1-1.5
				c-1.1,0.9-2.2,0.3-2.4,0.1c-0.2,0.1-1.2,0.7-2.4-0.1l-1.1,1.5c0.2,0.1,1,0.9,0.5,2.4l-0.1,0.3c-0.5,1.5-0.8,2.7,0,3.4
				c0.6,0.6,1.5,0.7,2.1,0.7c0.2,0,0.4,0,0.5,0.1C26.7,22.7,26.9,22.9,27,23L27,23z"/>
		</g>
		<g>
			<path class="st4" d="M24.1,20.8c0,0-0.3-0.4,0.4-0.9c0.5-0.4,0.7-0.6,1.1-0.7s1.2-0.4,2,0.1c0.8,0.5,0.6,0.9,1.3,0.9
				c0.6,0,0.6,0,0.5-0.3c-0.1-0.2,0,0.1-0.2,0.1s-0.3-0.1-0.2-0.3c0-0.2,0.2-0.3,0.5-0.3s0.4,0.1,0.4,0.5s-0.1,1.1-1,1.2
				s-1.8-0.1-2-0.1l0.1,0.5C26.9,21.6,24.8,21.8,24.1,20.8z"/>
			<path class="st5" d="M26.6,21.7c-0.2,0-0.5,0-0.8-0.1c-0.8-0.1-1.4-0.4-1.6-0.8c0,0-0.1-0.1-0.1-0.3c0-0.2,0.2-0.4,0.4-0.6
				c0.1-0.1,0.2-0.2,0.3-0.2c0.3-0.3,0.5-0.4,0.8-0.5l0,0c0.4-0.1,1.2-0.4,2,0.1c0.4,0.2,0.5,0.4,0.7,0.6c0.2,0.2,0.3,0.3,0.6,0.3
				c0.3,0,0.5,0,0.5-0.1c0,0,0-0.1,0-0.1l0,0c0,0,0,0,0,0c0,0.1,0,0.2-0.1,0.2C29.1,20,29,20,29,20c-0.1-0.1-0.1-0.2-0.1-0.3
				c0.1-0.2,0.2-0.3,0.5-0.3c0.3,0,0.5,0.2,0.5,0.6c0,0.6-0.2,1.2-1.1,1.2c-0.5,0-1,0-1.4,0c-0.3,0-0.5,0-0.6,0l0.1,0.5l0,0
				C26.9,21.7,26.8,21.7,26.6,21.7z M26.6,19c-0.4,0-0.7,0.1-0.9,0.2l0,0c-0.3,0.1-0.5,0.2-0.8,0.5c-0.1,0.1-0.2,0.1-0.3,0.2
				c-0.3,0.2-0.4,0.4-0.4,0.6c0,0.2,0.1,0.2,0.1,0.2l0,0c0.6,0.9,2.4,0.8,2.7,0.8l-0.1-0.5l0,0c0.1,0,0.3,0,0.6,0
				c0.4,0,0.9,0.1,1.4,0c0.2,0,1-0.2,1-1.2c0-0.3-0.1-0.5-0.4-0.5c-0.2,0-0.4,0.1-0.4,0.3c0,0.1,0,0.2,0,0.2c0,0,0.1,0.1,0.1,0
				c0,0,0.1-0.1,0.1-0.1c0,0,0-0.1,0-0.1c0,0,0.1,0,0.1,0.1l0,0c0,0.1,0.1,0.1,0,0.2c0,0.1-0.2,0.1-0.6,0.1c-0.4,0-0.5-0.1-0.6-0.3
				c-0.1-0.2-0.3-0.4-0.7-0.6C27.2,19.1,26.9,19,26.6,19z"/>
		</g>
		<g>
			<circle class="st4" cx="24.3" cy="21" r="0.2"/>
			<path class="st5" d="M24.3,21.3c-0.2,0-0.3-0.1-0.3-0.3s0.1-0.3,0.3-0.3s0.3,0.1,0.3,0.3S24.4,21.3,24.3,21.3z M24.3,20.8
				c-0.1,0-0.2,0.1-0.2,0.2c0,0.1,0.1,0.2,0.2,0.2c0.1,0,0.2-0.1,0.2-0.2C24.5,20.9,24.4,20.8,24.3,20.8z"/>
		</g>
		<g>
			<circle class="st4" cx="24.6" cy="20.9" r="0.2"/>
			<path class="st5" d="M24.6,21.2c-0.2,0-0.3-0.1-0.3-0.3c0-0.2,0.1-0.3,0.3-0.3c0.2,0,0.3,0.1,0.3,0.3
				C24.9,21.1,24.8,21.2,24.6,21.2z M24.6,20.7c-0.1,0-0.2,0.1-0.2,0.2c0,0.1,0.1,0.2,0.2,0.2c0.1,0,0.2-0.1,0.2-0.2
				C24.8,20.8,24.8,20.7,24.6,20.7z"/>
		</g>
		<g>
			<circle class="st4" cx="24.4" cy="21.3" r="0.2"/>
			<path class="st5" d="M24.4,21.6c-0.2,0-0.3-0.1-0.3-0.3s0.1-0.3,0.3-0.3s0.3,0.1,0.3,0.3S24.6,21.6,24.4,21.6z M24.4,21.1
				c-0.1,0-0.2,0.1-0.2,0.2c0,0.1,0.1,0.2,0.2,0.2c0.1,0,0.2-0.1,0.2-0.2C24.6,21.2,24.5,21.1,24.4,21.1z"/>
		</g>
		<g>
			<circle class="st4" cx="24.5" cy="21.6" r="0.2"/>
			<path class="st5" d="M24.5,21.9c-0.2,0-0.3-0.1-0.3-0.3c0-0.2,0.1-0.3,0.3-0.3s0.3,0.1,0.3,0.3C24.8,21.7,24.7,21.9,24.5,21.9z
				 M24.5,21.4c-0.1,0-0.2,0.1-0.2,0.2c0,0.1,0.1,0.2,0.2,0.2c0.1,0,0.2-0.1,0.2-0.2C24.8,21.5,24.7,21.4,24.5,21.4z"/>
		</g>
		<g>
			<circle class="st4" cx="24.8" cy="21.3" r="0.3"/>
			<path class="st5" d="M24.8,21.6c-0.2,0-0.3-0.1-0.3-0.3c0-0.2,0.1-0.3,0.3-0.3c0.2,0,0.3,0.1,0.3,0.3
				C25.1,21.5,24.9,21.6,24.8,21.6z M24.8,21.1c-0.1,0-0.2,0.1-0.2,0.2c0,0.1,0.1,0.2,0.2,0.2c0.1,0,0.2-0.1,0.2-0.2
				C25,21.2,24.9,21.1,24.8,21.1z"/>
		</g>
		<g>
			<circle class="st4" cx="24.9" cy="21.6" r="0.3"/>
			<path class="st5" d="M24.9,21.9c-0.2,0-0.3-0.1-0.3-0.3c0-0.2,0.1-0.3,0.3-0.3c0.2,0,0.3,0.1,0.3,0.3
				C25.2,21.7,25,21.9,24.9,21.9z M24.9,21.4c-0.1,0-0.2,0.1-0.2,0.2c0,0.1,0.1,0.2,0.2,0.2s0.2-0.1,0.2-0.2
				C25.1,21.5,25,21.4,24.9,21.4z"/>
		</g>
		<g>
			<circle class="st4" cx="25.4" cy="22" r="0.3"/>
			<path class="st5" d="M25.4,22.3c-0.2,0-0.3-0.1-0.3-0.3c0-0.2,0.1-0.3,0.3-0.3c0.2,0,0.3,0.1,0.3,0.3
				C25.7,22.1,25.6,22.3,25.4,22.3z M25.4,21.7c-0.1,0-0.2,0.1-0.2,0.2c0,0.1,0.1,0.2,0.2,0.2c0.1,0,0.2-0.1,0.2-0.2
				C25.6,21.8,25.5,21.7,25.4,21.7z"/>
		</g>
		<g>
			<circle class="st4" cx="24.8" cy="21.8" r="0.3"/>
			<path class="st5" d="M24.8,22.1c-0.2,0-0.3-0.1-0.3-0.3c0-0.2,0.1-0.3,0.3-0.3s0.3,0.1,0.3,0.3C25.1,22,25,22.1,24.8,22.1z
				 M24.8,21.6c-0.1,0-0.2,0.1-0.2,0.2c0,0.1,0.1,0.2,0.2,0.2s0.2-0.1,0.2-0.2C25,21.7,24.9,21.6,24.8,21.6z"/>
		</g>
		<g>
			<circle class="st4" cx="25" cy="21.1" r="0.3"/>
			<path class="st5" d="M25,21.4c-0.2,0-0.3-0.1-0.3-0.3s0.1-0.3,0.3-0.3s0.3,0.1,0.3,0.3S25.2,21.4,25,21.4z M25,20.8
				c-0.1,0-0.2,0.1-0.2,0.2c0,0.1,0.1,0.2,0.2,0.2c0.1,0,0.2-0.1,0.2-0.2C25.3,20.9,25.2,20.8,25,20.8z"/>
		</g>
		<g>
			<circle class="st4" cx="25.6" cy="21.3" r="0.3"/>
			<path class="st5" d="M25.6,21.7c-0.2,0-0.3-0.1-0.3-0.3s0.1-0.3,0.3-0.3s0.3,0.1,0.3,0.3S25.8,21.7,25.6,21.7z M25.6,21.1
				c-0.1,0-0.2,0.1-0.2,0.2s0.1,0.2,0.2,0.2c0.1,0,0.2-0.1,0.2-0.2S25.7,21.1,25.6,21.1z"/>
		</g>
		<g>
			<circle class="st4" cx="26" cy="21.8" r="0.3"/>
			<path class="st5" d="M26,22.1c-0.2,0-0.3-0.1-0.3-0.3s0.1-0.3,0.3-0.3s0.3,0.1,0.3,0.3S26.2,22.1,26,22.1z M26,21.5
				c-0.1,0-0.2,0.1-0.2,0.2c0,0.1,0.1,0.2,0.2,0.2c0.1,0,0.2-0.1,0.2-0.2C26.3,21.7,26.2,21.5,26,21.5z"/>
		</g>
		<g>
			<circle class="st4" cx="26.1" cy="21.5" r="0.3"/>
			<path class="st5" d="M26.1,21.8c-0.2,0-0.3-0.1-0.3-0.3s0.1-0.3,0.3-0.3s0.3,0.1,0.3,0.3S26.2,21.8,26.1,21.8z M26.1,21.3
				c-0.1,0-0.2,0.1-0.2,0.2c0,0.1,0.1,0.2,0.2,0.2c0.1,0,0.2-0.1,0.2-0.2C26.3,21.4,26.2,21.3,26.1,21.3z"/>
		</g>
		<g>
			<circle class="st4" cx="26.8" cy="22.1" r="0.3"/>
			<path class="st5" d="M26.8,22.4c-0.2,0-0.3-0.1-0.3-0.3s0.1-0.3,0.3-0.3s0.3,0.1,0.3,0.3S26.9,22.4,26.8,22.4z M26.8,21.9
				c-0.1,0-0.2,0.1-0.2,0.2c0,0.1,0.1,0.2,0.2,0.2c0.1,0,0.2-0.1,0.2-0.2C27,22,26.9,21.9,26.8,21.9z"/>
		</g>
		<g>
			<circle class="st4" cx="27" cy="21.7" r="0.3"/>
			<path class="st5" d="M27,22c-0.2,0-0.3-0.1-0.3-0.3s0.1-0.3,0.3-0.3s0.3,0.1,0.3,0.3S27.2,22,27,22z M27,21.5
				c-0.1,0-0.2,0.1-0.2,0.2c0,0.1,0.1,0.2,0.2,0.2s0.2-0.1,0.2-0.2C27.2,21.6,27.1,21.5,27,21.5z"/>
		</g>
		<g>
			<circle class="st4" cx="27.5" cy="21.7" r="0.3"/>
			<path class="st5" d="M27.5,22c-0.2,0-0.3-0.1-0.3-0.3s0.1-0.3,0.3-0.3s0.3,0.1,0.3,0.3S27.7,22,27.5,22z M27.5,21.5
				c-0.1,0-0.2,0.1-0.2,0.2c0,0.1,0.1,0.2,0.2,0.2c0.1,0,0.2-0.1,0.2-0.2C27.7,21.6,27.6,21.5,27.5,21.5z"/>
		</g>
		<g>
			<circle class="st4" cx="27.2" cy="22.2" r="0.3"/>
			<path class="st5" d="M27.2,22.5c-0.2,0-0.3-0.1-0.3-0.3s0.1-0.3,0.3-0.3s0.3,0.1,0.3,0.3S27.4,22.5,27.2,22.5z M27.2,21.9
				c-0.1,0-0.2,0.1-0.2,0.2c0,0.1,0.1,0.2,0.2,0.2c0.1,0,0.2-0.1,0.2-0.2C27.5,22,27.3,21.9,27.2,21.9z"/>
		</g>
		<g>
			<circle class="st4" cx="28.2" cy="21.9" r="0.3"/>
			<path class="st5" d="M28.2,22.2c-0.2,0-0.3-0.1-0.3-0.3s0.1-0.3,0.3-0.3s0.3,0.1,0.3,0.3S28.4,22.2,28.2,22.2z M28.2,21.7
				c-0.1,0-0.2,0.1-0.2,0.2s0.1,0.2,0.2,0.2c0.1,0,0.2-0.1,0.2-0.2S28.3,21.7,28.2,21.7z"/>
		</g>
		<g>
			<circle class="st4" cx="28.5" cy="21.6" r="0.3"/>
			<path class="st5" d="M28.5,21.9c-0.2,0-0.3-0.1-0.3-0.3s0.1-0.3,0.3-0.3s0.3,0.1,0.3,0.3S28.6,21.9,28.5,21.9z M28.5,21.4
				c-0.1,0-0.2,0.1-0.2,0.2c0,0.1,0.1,0.2,0.2,0.2c0.1,0,0.2-0.1,0.2-0.2C28.7,21.5,28.6,21.4,28.5,21.4z"/>
		</g>
		<g>
			<circle class="st4" cx="26.3" cy="22.1" r="0.3"/>
			<path class="st5" d="M26.3,22.4c-0.2,0-0.3-0.1-0.3-0.3s0.1-0.3,0.3-0.3s0.3,0.1,0.3,0.3S26.5,22.4,26.3,22.4z M26.3,21.8
				c-0.1,0-0.2,0.1-0.2,0.2c0,0.1,0.1,0.2,0.2,0.2s0.2-0.1,0.2-0.2C26.5,21.9,26.4,21.8,26.3,21.8z"/>
		</g>
		<g>
			<circle class="st4" cx="25.8" cy="22" r="0.3"/>
			<path class="st5" d="M25.8,22.3c-0.2,0-0.3-0.1-0.3-0.3s0.1-0.3,0.3-0.3s0.3,0.1,0.3,0.3S26,22.3,25.8,22.3z M25.8,21.8
				c-0.1,0-0.2,0.1-0.2,0.2c0,0.1,0.1,0.2,0.2,0.2c0.1,0,0.2-0.1,0.2-0.2C26.1,21.9,26,21.8,25.8,21.8z"/>
		</g>
		<g>
			<circle class="st4" cx="25.3" cy="21.3" r="0.3"/>
			<path class="st5" d="M25.3,21.7c-0.2,0-0.3-0.1-0.3-0.3s0.1-0.3,0.3-0.3c0.2,0,0.3,0.1,0.3,0.3S25.5,21.7,25.3,21.7z M25.3,21.1
				c-0.1,0-0.2,0.1-0.2,0.2c0,0.1,0.1,0.2,0.2,0.2c0.1,0,0.2-0.1,0.2-0.2C25.5,21.2,25.4,21.1,25.3,21.1z"/>
		</g>
		<path class="st4" d="M24.1,20.6c0,0,0,0,0.1-0.1c0,0,0.1-0.1,0.1-0.1c0.1,0,0.1-0.1,0.2-0.1c0.1,0,0.2,0,0.2,0.1
			c0.1,0,0.2,0.1,0.2,0.1c0.2,0.1,0.3,0.2,0.5,0.3c0.2,0.1,0.3,0.2,0.5,0.2c0.2,0,0.4,0.1,0.5,0.1c0.1,0,0.3,0.1,0.3,0.1
			c0,0,0.1,0,0.1,0.1c0,0,0,0,0,0s0,0,0,0c0,0,0,0-0.1-0.1c-0.1,0-0.2-0.1-0.3-0.1c-0.1,0-0.3,0-0.5-0.1c-0.2,0-0.4-0.1-0.5-0.2
			c-0.2-0.1-0.3-0.2-0.5-0.3c-0.1,0-0.2-0.1-0.2-0.1c-0.1,0-0.1-0.1-0.2-0.1c-0.1,0-0.2,0.1-0.3,0.1C24.1,20.6,24.1,20.6,24.1,20.6z
			"/>
		<g>
			<path class="st4" d="M24.5,19.9c0,0,0.4-0.1,0.6,0.2s0.6,0.6,0.7,0.6c0.2,0,0.9,0.1,0.9,0.4"/>
			<path class="st5" d="M26.8,21.1c0-0.2-0.5-0.3-0.8-0.3c-0.1,0-0.1,0-0.1,0c-0.2,0-0.6-0.3-0.8-0.6c-0.2-0.3-0.6-0.2-0.6-0.2
				l0-0.1c0,0,0.5-0.1,0.7,0.2c0.2,0.3,0.6,0.6,0.7,0.6c0,0,0.1,0,0.1,0C26.3,20.7,26.8,20.8,26.8,21.1L26.8,21.1z"/>
		</g>
		<g>
			<path class="st4" d="M24.8,19.7c0,0,1.1,0.1,1.1,1"/>
			<path class="st5" d="M25.9,20.7c-0.1-0.9-1.1-1-1.1-1l0-0.1c0,0,0.3,0,0.6,0.2C25.7,20,25.9,20.3,25.9,20.7L25.9,20.7z"/>
		</g>
		<g>
			<path class="st4" d="M25.2,19.3c0,0,1,0.4,1,1.4"/>
			<path class="st5" d="M26.2,20.8L26.2,20.8c0-1-1-1.4-1-1.4l0-0.1C25.2,19.3,26.3,19.7,26.2,20.8z"/>
		</g>
		<g>
			<path class="st4" d="M25.8,19.1c0,0,0.7,0.2,0.7,1.7"/>
			<path class="st5" d="M26.5,20.8L26.5,20.8c0-1.5-0.7-1.7-0.7-1.7l0-0.1C25.9,19.1,26.6,19.3,26.5,20.8z"/>
		</g>
		<g>
			<path class="st4" d="M26.3,19c0,0,0.7,0.2,0.3,1.9"/>
			<path class="st5" d="M26.7,20.9L26.7,20.9c0.3-1.6-0.4-1.9-0.4-1.9l0-0.1C26.3,19,27.1,19.2,26.7,20.9z"/>
		</g>
		<g>
			<path class="st4" d="M26.9,19c0,0,0.4,0.8-0.2,2"/>
			<path class="st5" d="M26.8,21L26.8,21c0.5-1.2,0.1-2,0.1-2l0.1,0C27,19,27.4,19.8,26.8,21z"/>
		</g>
		<g>
			<path class="st4" d="M27.5,19.2c0,0,0.2,0.7-0.6,1.9"/>
			<path class="st5" d="M26.8,21L26.8,21c0.8-1.1,0.6-1.9,0.6-1.9l0.1,0C27.5,19.2,27.7,19.9,26.8,21z"/>
		</g>
		<g>
			<path class="st4" d="M27.8,19.4c0,0,0.1,0.7-0.7,1.7"/>
			<path class="st5" d="M27.1,21.1L27.1,21.1c0.8-1.1,0.7-1.7,0.7-1.7l0.1,0C27.8,19.4,28,20,27.1,21.1z"/>
		</g>
		<g>
			<path class="st4" d="M28.1,19.6c0,0,0,0.9-0.8,1.5"/>
			<path class="st5" d="M27.4,21.1L27.4,21.1c0.6-0.6,0.7-1.5,0.7-1.5l0.1,0C28.1,19.6,28.1,20.6,27.4,21.1z"/>
		</g>
		<g>
			<path class="st4" d="M28.3,19.9c0,0,0.1,0.9-0.6,1.3"/>
			<path class="st5" d="M27.7,21.2L27.7,21.2c0.7-0.4,0.6-1.3,0.6-1.3l0.1,0C28.3,19.9,28.5,20.8,27.7,21.2z"/>
		</g>
		<g>
			<path class="st4" d="M28.5,20c0,0,0.2,0.6-0.4,1.1"/>
			<path class="st5" d="M28.1,21.2L28.1,21.2c0.5-0.6,0.3-1.1,0.3-1.1l0.1,0C28.5,20,28.7,20.6,28.1,21.2z"/>
		</g>
		<g>
			<path class="st4" d="M28.7,20.1c0,0,0.4,0.4-0.1,1"/>
			<path class="st5" d="M28.6,21.2L28.6,21.2c0.5-0.6,0.1-1,0.1-1l0,0C28.7,20.1,29.1,20.5,28.6,21.2z"/>
		</g>
		<g>
			<path class="st4" d="M28.9,20.1c0,0,0.4,0.5,0.1,1"/>
			<path class="st5" d="M29,21.2L29,21.2c0.3-0.5-0.1-1-0.1-1l0.1,0C28.9,20.1,29.3,20.7,29,21.2z"/>
		</g>
		<g>
			<path class="st4" d="M29.1,20.1c0,0,0.4,0.3,0.3,0.9"/>
			<path class="st5" d="M29.3,21L29.3,21c0-0.5-0.3-0.9-0.3-0.9l0,0C29.1,20.1,29.5,20.5,29.3,21z"/>
		</g>
		<g>
			<path class="st4" d="M29.2,20.1c0,0,0.4,0.4,0.3,0.7"/>
			<path class="st5" d="M29.6,20.8L29.6,20.8c0-0.4-0.4-0.7-0.4-0.7l0,0C29.3,20.1,29.6,20.5,29.6,20.8z"/>
		</g>
		<g>
			<path class="st4" d="M29.4,20c0,0,0.4,0.2,0.4,0.4"/>
			<path class="st5" d="M29.8,20.4L29.8,20.4c-0.1-0.2-0.3-0.3-0.4-0.3l0-0.1C29.4,20,29.8,20.2,29.8,20.4z"/>
		</g>
		<g>
			<path class="st4" d="M29.4,19.9c0,0,0.4-0.2,0.5,0"/>
			<path class="st5" d="M29.8,20C29.8,19.9,29.8,19.9,29.8,20c-0.2-0.1-0.4-0.1-0.4,0l0-0.1c0,0,0.3-0.1,0.4-0.1
				C29.8,19.8,29.9,19.9,29.8,20L29.8,20z"/>
		</g>
		<g>
			<path class="st4" d="M29.3,19.8c0,0,0-0.4,0.3-0.4"/>
			<path class="st5" d="M29.4,19.8L29.4,19.8c-0.1-0.1,0-0.4,0.3-0.4l0,0.1C29.4,19.5,29.4,19.8,29.4,19.8z"/>
		</g>
		<g>
			<path class="st4" d="M29.2,19.9c0,0-0.3-0.3-0.1-0.5"/>
			<path class="st5" d="M29.2,20c0,0-0.3-0.3-0.1-0.5l0.1,0C29,19.7,29.3,19.9,29.2,20L29.2,20z"/>
		</g>
		<g>
			<g>
				<g>
					<g>
						<path class="st2" d="M26,11.1c-0.1,0.1,0,0.2,0,0.3c0.1,0,0.2-0.1,0.3-0.2c0.1-0.1,0.1-0.2,0-0.3C26.2,11,26.1,11,26,11.1z"/>
						<g>
							<path class="st6" d="M26,11.4c0.1-0.1,0.1-0.2,0.3-0.4C26.2,11.2,26.1,11.3,26,11.4C26,11.4,26,11.4,26,11.4z"/>
						</g>
					</g>
					<g>
						<path class="st2" d="M25.5,11.3c0,0.1,0,0.2,0.1,0.3c0.1,0,0.2-0.1,0.2-0.2c0-0.1,0-0.2,0-0.3C25.7,11.1,25.6,11.2,25.5,11.3z
							"/>
						<g>
							<path class="st6" d="M25.6,11.6c0-0.1,0.1-0.3,0.1-0.4C25.7,11.3,25.7,11.4,25.6,11.6C25.7,11.5,25.6,11.5,25.6,11.6z"/>
						</g>
					</g>
					<g>
						<path class="st2" d="M25.2,11.5c0,0.1,0.1,0.2,0.2,0.3c0.1,0,0.1-0.1,0.1-0.2c0-0.1,0-0.2-0.1-0.3
							C25.2,11.3,25.2,11.3,25.2,11.5z"/>
						<g>
							<path class="st6" d="M25.3,11.7c0-0.1,0-0.3,0-0.4C25.3,11.5,25.3,11.6,25.3,11.7C25.3,11.7,25.3,11.7,25.3,11.7z"/>
						</g>
					</g>
					<g>
						<path class="st2" d="M24.8,11.7c0,0.1,0.1,0.2,0.2,0.2c0.1-0.1,0.1-0.1,0.1-0.2c0-0.1-0.1-0.2-0.2-0.3
							C24.9,11.5,24.8,11.6,24.8,11.7z"/>
						<g>
							<path class="st6" d="M25,12c0-0.1-0.1-0.3-0.1-0.4C25,11.7,25,11.8,25,12C25.1,11.9,25.1,11.9,25,12z"/>
						</g>
					</g>
					<g>
						<path class="st2" d="M24.6,12c0,0.1,0.2,0.2,0.3,0.2c0.1-0.1,0.1-0.1,0-0.2c0-0.1-0.1-0.2-0.2-0.2
							C24.6,11.8,24.5,11.9,24.6,12z"/>
						<g>
							<path class="st6" d="M24.8,12.2c-0.1-0.1-0.1-0.2-0.2-0.4C24.7,11.9,24.8,12.1,24.8,12.2C24.9,12.2,24.9,12.2,24.8,12.2z"/>
						</g>
					</g>
					<g>
						<path class="st2" d="M24.4,12.3c0.1,0.1,0.2,0.2,0.3,0.2c0-0.1,0-0.2,0-0.2c-0.1-0.1-0.2-0.2-0.3-0.2
							C24.3,12.1,24.3,12.2,24.4,12.3z"/>
						<g>
							<path class="st6" d="M24.7,12.5c-0.1-0.1-0.2-0.2-0.2-0.4C24.5,12.2,24.6,12.3,24.7,12.5C24.7,12.4,24.7,12.5,24.7,12.5z"/>
						</g>
					</g>
					<g>
						<path class="st2" d="M24.3,12.6c0.1,0.1,0.2,0.1,0.4,0.1c0-0.1,0-0.2-0.1-0.2c-0.1-0.1-0.2-0.1-0.3-0.2
							C24.2,12.4,24.2,12.5,24.3,12.6z"/>
						<g>
							<path class="st6" d="M24.6,12.7c-0.1-0.1-0.2-0.2-0.3-0.3C24.4,12.5,24.5,12.6,24.6,12.7C24.6,12.7,24.6,12.7,24.6,12.7z"/>
						</g>
					</g>
					<g>
						<path class="st2" d="M24.2,12.9c0.1,0.1,0.2,0.1,0.4,0.1c0-0.1,0-0.2-0.1-0.2c-0.1-0.1-0.2-0.1-0.4-0.1
							C24.1,12.7,24.1,12.8,24.2,12.9z"/>
						<g>
							<path class="st6" d="M24.6,13c-0.1-0.1-0.3-0.2-0.4-0.3C24.3,12.8,24.5,12.9,24.6,13C24.6,13,24.6,13,24.6,13z"/>
						</g>
					</g>
					<g>
						<path class="st2" d="M24.2,13.3c0.1,0.1,0.3,0.1,0.4,0c0-0.1-0.1-0.1-0.2-0.2C24.4,13,24.2,13,24.1,13
							C24.1,13.1,24.1,13.2,24.2,13.3z"/>
						<g>
							<path class="st6" d="M24.6,13.3c-0.1-0.1-0.3-0.1-0.4-0.2C24.3,13.2,24.5,13.2,24.6,13.3C24.6,13.3,24.6,13.3,24.6,13.3z"/>
						</g>
					</g>
					<g>
						<path class="st2" d="M24.3,13.6c0.1,0,0.3,0,0.4,0c0-0.1-0.1-0.1-0.2-0.2c-0.1,0-0.3-0.1-0.4,0C24.1,13.5,24.2,13.5,24.3,13.6
							z"/>
						<g>
							<path class="st6" d="M24.7,13.6c-0.2,0-0.3-0.1-0.5-0.2C24.4,13.5,24.6,13.5,24.7,13.6C24.7,13.6,24.7,13.6,24.7,13.6z"/>
						</g>
					</g>
					<g>
						<path class="st2" d="M24.5,13.9c0.1,0,0.3,0,0.4-0.1c0-0.1-0.1-0.1-0.2-0.2c-0.1,0-0.3,0-0.4,0C24.2,13.8,24.3,13.9,24.5,13.9
							z"/>
						<g>
							<path class="st6" d="M24.9,13.9c-0.2,0-0.3-0.1-0.5-0.1C24.5,13.8,24.7,13.8,24.9,13.9C24.8,13.8,24.9,13.9,24.9,13.9z"/>
						</g>
					</g>
					<g>
						<path class="st2" d="M24.7,14.2c0.1,0,0.3,0,0.4-0.1C25,14,24.9,14,24.8,14c-0.1,0-0.3,0-0.4,0.1
							C24.4,14.1,24.5,14.2,24.7,14.2z"/>
						<g>
							<path class="st6" d="M25.1,14.1c-0.2,0-0.3,0-0.5-0.1C24.7,14.1,24.9,14.1,25.1,14.1C25,14.1,25.1,14.1,25.1,14.1z"/>
						</g>
					</g>
					<g>
						<path class="st2" d="M25,14.4c0.1,0,0.3-0.1,0.4-0.1c-0.1-0.1-0.2-0.1-0.3-0.1c-0.1,0-0.3,0-0.4,0.1
							C24.7,14.4,24.8,14.5,25,14.4z"/>
						<g>
							<path class="st6" d="M25.3,14.3c-0.2,0-0.4,0-0.5,0C25,14.3,25.1,14.3,25.3,14.3C25.3,14.3,25.3,14.3,25.3,14.3z"/>
						</g>
					</g>
					<g>
						<path class="st2" d="M25.3,14.7c0.1,0,0.3-0.1,0.3-0.2c-0.1,0-0.2-0.1-0.3,0c-0.1,0-0.3,0.1-0.4,0.2
							C25,14.7,25.2,14.7,25.3,14.7z"/>
						<g>
							<path class="st6" d="M25.6,14.5c-0.2,0-0.4,0.1-0.5,0.1C25.3,14.6,25.4,14.5,25.6,14.5C25.6,14.5,25.6,14.5,25.6,14.5z"/>
						</g>
					</g>
					<g>
						<path class="st2" d="M25.7,14.9c0.1,0,0.2-0.1,0.3-0.2c-0.1,0-0.2,0-0.3,0c-0.1,0-0.2,0.1-0.3,0.2
							C25.4,14.9,25.6,14.9,25.7,14.9z"/>
						<g>
							<path class="st6" d="M26,14.6c-0.2,0.1-0.3,0.1-0.5,0.1C25.7,14.7,25.8,14.7,26,14.6C26,14.6,26,14.6,26,14.6z"/>
						</g>
					</g>
					<g>
						<path class="st2" d="M26.2,15c0.1-0.1,0.2-0.2,0.2-0.3c-0.1,0-0.2,0-0.4,0c-0.1,0.1-0.2,0.1-0.3,0.2C25.9,15,26.1,15,26.2,15z
							"/>
						<g>
							<path class="st6" d="M26.4,14.7c-0.2,0.1-0.3,0.1-0.5,0.2C26.1,14.9,26.2,14.8,26.4,14.7C26.4,14.7,26.4,14.7,26.4,14.7z"/>
						</g>
					</g>
				</g>
				<g>
					<g>
						<path class="st2" d="M26.3,11.7c-0.1-0.1-0.2-0.1-0.2-0.2c0.1,0,0.2,0,0.3,0c0.1,0.1,0.2,0.2,0.2,0.3
							C26.5,11.7,26.4,11.7,26.3,11.7z"/>
						<g>
							<path class="st6" d="M26.1,11.4c0.1,0.1,0.3,0.1,0.4,0.2C26.3,11.6,26.2,11.5,26.1,11.4C26,11.4,26,11.4,26.1,11.4z"/>
						</g>
					</g>
					<g>
						<path class="st2" d="M25.9,11.8c-0.1,0-0.2-0.1-0.3-0.2c0.1,0,0.2-0.1,0.3,0c0.1,0,0.2,0.1,0.3,0.2
							C26.2,11.8,26.1,11.8,25.9,11.8z"/>
						<g>
							<path class="st6" d="M25.7,11.5c0.2,0.1,0.3,0.1,0.4,0.2C26,11.7,25.8,11.6,25.7,11.5C25.6,11.6,25.7,11.5,25.7,11.5z"/>
						</g>
					</g>
					<g>
						<path class="st2" d="M25.7,11.9c-0.1,0-0.2-0.1-0.3-0.2c0.1-0.1,0.2-0.1,0.3,0c0.1,0,0.2,0.1,0.3,0.2
							C25.9,11.9,25.8,11.9,25.7,11.9z"/>
						<g>
							<path class="st6" d="M25.4,11.7c0.2,0,0.3,0.1,0.5,0.1C25.7,11.8,25.5,11.8,25.4,11.7C25.3,11.7,25.3,11.7,25.4,11.7z"/>
						</g>
					</g>
					<g>
						<path class="st2" d="M25.4,12.1c-0.1,0-0.3-0.1-0.4-0.1c0.1-0.1,0.2-0.1,0.3-0.1c0.1,0,0.2,0.1,0.3,0.2
							C25.6,12.1,25.6,12.1,25.4,12.1z"/>
						<g>
							<path class="st6" d="M25.1,11.9c0.2,0,0.3,0,0.5,0.1C25.4,12,25.2,12,25.1,11.9C25.1,12,25.1,11.9,25.1,11.9z"/>
						</g>
					</g>
					<g>
						<path class="st2" d="M25.3,12.3c-0.1,0-0.3,0-0.4-0.1c0-0.1,0.1-0.1,0.3-0.1c0.1,0,0.3,0,0.4,0.1
							C25.5,12.2,25.4,12.3,25.3,12.3z"/>
						<g>
							<path class="st6" d="M24.9,12.2c0.2,0,0.3,0,0.5,0C25.2,12.2,25,12.2,24.9,12.2C24.9,12.2,24.9,12.2,24.9,12.2z"/>
						</g>
					</g>
					<g>
						<path class="st2" d="M25.1,12.5c-0.1,0-0.3,0-0.4,0c0-0.1,0.1-0.1,0.2-0.1c0.1,0,0.3,0,0.4,0.1C25.3,12.4,25.2,12.5,25.1,12.5
							z"/>
						<g>
							<path class="st6" d="M24.7,12.4c0.2,0,0.3,0,0.5,0C25,12.4,24.9,12.4,24.7,12.4C24.7,12.5,24.7,12.4,24.7,12.4z"/>
						</g>
					</g>
					<g>
						<path class="st2" d="M25,12.7c-0.1,0-0.3,0-0.4,0c0-0.1,0.1-0.1,0.2-0.2c0.1,0,0.3,0,0.4,0C25.2,12.6,25.2,12.7,25,12.7z"/>
						<g>
							<path class="st6" d="M24.6,12.7c0.2,0,0.3-0.1,0.5-0.1C24.9,12.6,24.8,12.7,24.6,12.7C24.6,12.7,24.6,12.7,24.6,12.7z"/>
						</g>
					</g>
					<g>
						<path class="st2" d="M25,12.9c-0.1,0-0.2,0.1-0.4,0.1c0-0.1,0-0.2,0.2-0.2c0.1,0,0.3,0,0.4,0C25.2,12.9,25.1,12.9,25,12.9z"/>
						<g>
							<path class="st6" d="M24.6,13c0.1-0.1,0.3-0.1,0.4-0.2C24.9,12.9,24.8,13,24.6,13C24.6,13,24.6,13,24.6,13z"/>
						</g>
					</g>
					<g>
						<path class="st2" d="M25,13.2c-0.1,0.1-0.2,0.1-0.4,0.1c0-0.1,0-0.2,0.1-0.2C24.9,13,25,13,25.1,13
							C25.1,13.1,25.1,13.1,25,13.2z"/>
						<g>
							<path class="st6" d="M24.6,13.3c0.1-0.1,0.3-0.1,0.4-0.2C24.9,13.1,24.8,13.2,24.6,13.3C24.6,13.3,24.6,13.3,24.6,13.3z"/>
						</g>
					</g>
					<g>
						<path class="st2" d="M25.1,13.4c-0.1,0.1-0.2,0.1-0.3,0.2c0-0.1,0-0.2,0.1-0.2c0.1-0.1,0.2-0.1,0.4-0.1
							C25.2,13.3,25.1,13.4,25.1,13.4z"/>
						<g>
							<path class="st6" d="M24.7,13.6c0.1-0.1,0.2-0.2,0.3-0.3C24.9,13.4,24.8,13.5,24.7,13.6C24.7,13.6,24.7,13.6,24.7,13.6z"/>
						</g>
					</g>
					<g>
						<path class="st2" d="M25.2,13.6c-0.1,0.1-0.2,0.1-0.3,0.2c-0.1-0.1,0-0.2,0-0.2c0.1-0.1,0.2-0.1,0.3-0.2
							C25.3,13.5,25.2,13.6,25.2,13.6z"/>
						<g>
							<path class="st6" d="M24.8,13.8c0.1-0.1,0.2-0.2,0.3-0.3C25,13.6,25,13.7,24.8,13.8C24.9,13.8,24.9,13.8,24.8,13.8z"/>
						</g>
					</g>
					<g>
						<path class="st2" d="M25.3,13.9c-0.1,0.1-0.1,0.2-0.3,0.2C25,14,25,13.9,25,13.9c0.1-0.1,0.2-0.2,0.3-0.2
							C25.4,13.7,25.4,13.8,25.3,13.9z"/>
						<g>
							<path class="st6" d="M25,14.1c0.1-0.1,0.1-0.2,0.2-0.3C25.2,13.9,25.1,14,25,14.1C25.1,14.1,25.1,14.1,25,14.1z"/>
						</g>
					</g>
					<g>
						<path class="st2" d="M25.5,14c0,0.1-0.1,0.2-0.2,0.3c-0.1,0-0.1-0.1-0.1-0.2c0-0.1,0.1-0.2,0.2-0.2C25.5,13.9,25.6,14,25.5,14
							z"/>
						<g>
							<path class="st6" d="M25.3,14.3c0-0.1,0.1-0.2,0.1-0.3C25.4,14.1,25.4,14.2,25.3,14.3C25.3,14.3,25.3,14.3,25.3,14.3z"/>
						</g>
					</g>
					<g>
						<path class="st2" d="M25.8,14.2c0,0.1-0.1,0.2-0.1,0.3c-0.1,0-0.2-0.1-0.1-0.2c0-0.1,0.1-0.2,0.2-0.3
							C25.7,14,25.8,14.1,25.8,14.2z"/>
						<g>
							<path class="st6" d="M25.6,14.5c0-0.1,0-0.2,0.1-0.4C25.6,14.2,25.6,14.4,25.6,14.5C25.6,14.5,25.6,14.5,25.6,14.5z"/>
						</g>
					</g>
					<g>
						<path class="st2" d="M26.1,14.3c0,0.1,0,0.2-0.1,0.3c-0.1,0-0.2-0.1-0.2-0.2c0-0.1,0-0.2,0.1-0.3C26,14.2,26,14.2,26.1,14.3z"
							/>
						<g>
							<path class="st6" d="M26,14.6c0-0.1,0-0.2,0-0.4C25.9,14.4,26,14.5,26,14.6C26,14.6,26,14.6,26,14.6z"/>
						</g>
					</g>
					<g>
						<path class="st2" d="M26.4,14.4c0,0.1,0.1,0.2,0,0.3c-0.1,0-0.2-0.1-0.3-0.2c0-0.1,0-0.2,0.1-0.3
							C26.3,14.3,26.4,14.3,26.4,14.4z"/>
						<g>
							<path class="st6" d="M26.4,14.7c-0.1-0.1-0.1-0.2-0.1-0.3C26.3,14.5,26.4,14.6,26.4,14.7C26.4,14.7,26.4,14.7,26.4,14.7z"/>
						</g>
					</g>
				</g>
				<path class="st4" d="M27,14.8c0,0-0.1,0-0.3,0c-0.1,0-0.2,0-0.3,0c-0.1,0-0.2,0-0.4-0.1c-0.1,0-0.3-0.1-0.4-0.1
					c-0.1-0.1-0.3-0.2-0.4-0.3c-0.1-0.1-0.3-0.2-0.4-0.4c-0.1-0.2-0.2-0.3-0.2-0.5c0-0.2,0-0.4,0-0.6c0-0.2,0.1-0.4,0.2-0.5
					c0.1-0.2,0.2-0.3,0.3-0.4c0.1-0.1,0.1-0.1,0.2-0.1c0.1,0,0.1-0.1,0.2-0.1c0.1-0.1,0.2-0.1,0.3-0.2c0.1,0,0.2-0.1,0.3-0.1
					c0.2,0,0.2,0,0.2,0s-0.1,0-0.2,0.1c-0.1,0-0.2,0-0.3,0.1c-0.1,0-0.2,0.1-0.3,0.2c-0.1,0-0.1,0.1-0.2,0.1c-0.1,0-0.1,0.1-0.2,0.1
					c-0.1,0.1-0.2,0.2-0.3,0.4c-0.1,0.1-0.1,0.3-0.2,0.5c0,0.2,0,0.4,0,0.5c0,0.2,0.1,0.3,0.2,0.5c0.1,0.2,0.2,0.3,0.3,0.4
					c0.1,0.1,0.3,0.2,0.4,0.3c0.1,0.1,0.3,0.1,0.4,0.2c0.1,0,0.3,0.1,0.4,0.1c0.1,0,0.2,0,0.3,0C26.9,14.8,27,14.8,27,14.8z"/>
				<g>
					<path class="st2" d="M26.6,11.2c-0.1,0-0.3,0.1-0.3,0.2c0.1,0.1,0.2,0.1,0.3,0.1c0.1,0,0.2-0.1,0.3-0.1
						C26.9,11.2,26.7,11.2,26.6,11.2z"/>
					<g>
						<path class="st6" d="M26.3,11.3c0.2,0,0.3,0,0.5,0C26.6,11.3,26.4,11.3,26.3,11.3C26.3,11.3,26.3,11.3,26.3,11.3z"/>
					</g>
				</g>
			</g>
			<g>
				<g>
					<g>
						<path class="st2" d="M28,11.1c0.1,0.1,0,0.2,0,0.3c-0.1,0-0.2-0.1-0.3-0.2c-0.1-0.1-0.1-0.2,0-0.3C27.8,11,27.9,11,28,11.1z"
							/>
						<g>
							<path class="st6" d="M28,11.4c-0.1-0.1-0.1-0.2-0.3-0.4C27.8,11.2,27.9,11.3,28,11.4C27.9,11.4,27.9,11.4,28,11.4z"/>
						</g>
					</g>
					<g>
						<path class="st2" d="M28.4,11.3c0,0.1,0,0.2-0.1,0.3c-0.1,0-0.2-0.1-0.2-0.2c0-0.1,0-0.2,0-0.3C28.3,11.1,28.4,11.2,28.4,11.3
							z"/>
						<g>
							<path class="st6" d="M28.3,11.6c0-0.1-0.1-0.3-0.1-0.4C28.2,11.3,28.3,11.4,28.3,11.6C28.3,11.5,28.3,11.5,28.3,11.6z"/>
						</g>
					</g>
					<g>
						<path class="st2" d="M28.8,11.5c0,0.1-0.1,0.2-0.2,0.3c-0.1,0-0.1-0.1-0.1-0.2c0-0.1,0-0.2,0.1-0.3
							C28.7,11.3,28.8,11.3,28.8,11.5z"/>
						<g>
							<path class="st6" d="M28.6,11.7c0-0.1,0-0.3,0-0.4C28.6,11.5,28.6,11.6,28.6,11.7C28.6,11.7,28.6,11.7,28.6,11.7z"/>
						</g>
					</g>
					<g>
						<path class="st2" d="M29.1,11.7c0,0.1-0.1,0.2-0.2,0.2c-0.1-0.1-0.1-0.1-0.1-0.2c0-0.1,0.1-0.2,0.2-0.3
							C29.1,11.5,29.1,11.6,29.1,11.7z"/>
						<g>
							<path class="st6" d="M28.9,12c0-0.1,0.1-0.3,0.1-0.4C29,11.7,28.9,11.8,28.9,12C28.9,11.9,28.9,11.9,28.9,12z"/>
						</g>
					</g>
					<g>
						<path class="st2" d="M29.4,12c0,0.1-0.2,0.2-0.3,0.2c-0.1-0.1-0.1-0.1,0-0.2c0-0.1,0.1-0.2,0.2-0.2
							C29.4,11.8,29.4,11.9,29.4,12z"/>
						<g>
							<path class="st6" d="M29.1,12.2c0.1-0.1,0.1-0.2,0.2-0.4C29.2,11.9,29.1,12.1,29.1,12.2C29.1,12.2,29.1,12.2,29.1,12.2z"/>
						</g>
					</g>
					<g>
						<path class="st2" d="M29.5,12.3c-0.1,0.1-0.2,0.2-0.3,0.2c0-0.1,0-0.2,0-0.2c0.1-0.1,0.2-0.2,0.3-0.2
							C29.6,12.1,29.6,12.2,29.5,12.3z"/>
						<g>
							<path class="st6" d="M29.2,12.5c0.1-0.1,0.2-0.2,0.2-0.4C29.4,12.2,29.3,12.3,29.2,12.5C29.2,12.4,29.2,12.5,29.2,12.5z"/>
						</g>
					</g>
					<g>
						<path class="st2" d="M29.7,12.6c-0.1,0.1-0.2,0.1-0.4,0.1c0-0.1,0-0.2,0.1-0.2c0.1-0.1,0.2-0.1,0.3-0.2
							C29.8,12.4,29.8,12.5,29.7,12.6z"/>
						<g>
							<path class="st6" d="M29.3,12.7c0.1-0.1,0.2-0.2,0.3-0.3C29.5,12.5,29.4,12.6,29.3,12.7C29.3,12.7,29.3,12.7,29.3,12.7z"/>
						</g>
					</g>
					<g>
						<path class="st2" d="M29.7,12.9C29.6,13,29.5,13,29.3,13c0-0.1,0-0.2,0.1-0.2c0.1-0.1,0.2-0.1,0.4-0.1
							C29.9,12.7,29.8,12.8,29.7,12.9z"/>
						<g>
							<path class="st6" d="M29.4,13c0.1-0.1,0.3-0.2,0.4-0.3C29.6,12.8,29.5,12.9,29.4,13C29.3,13,29.3,13,29.4,13z"/>
						</g>
					</g>
					<g>
						<path class="st2" d="M29.7,13.3c-0.1,0.1-0.3,0.1-0.4,0c0-0.1,0.1-0.1,0.2-0.2c0.1-0.1,0.2-0.1,0.4-0.1
							C29.9,13.1,29.8,13.2,29.7,13.3z"/>
						<g>
							<path class="st6" d="M29.3,13.3c0.1-0.1,0.3-0.1,0.4-0.2C29.6,13.2,29.5,13.2,29.3,13.3C29.3,13.3,29.3,13.3,29.3,13.3z"/>
						</g>
					</g>
					<g>
						<path class="st2" d="M29.6,13.6c-0.1,0-0.3,0-0.4,0c0-0.1,0.1-0.1,0.2-0.2c0.1,0,0.3-0.1,0.4,0C29.8,13.5,29.8,13.5,29.6,13.6
							z"/>
						<g>
							<path class="st6" d="M29.2,13.6c0.2,0,0.3-0.1,0.5-0.2C29.6,13.5,29.4,13.5,29.2,13.6C29.2,13.6,29.2,13.6,29.2,13.6z"/>
						</g>
					</g>
					<g>
						<path class="st2" d="M29.5,13.9c-0.1,0-0.3,0-0.4-0.1c0-0.1,0.1-0.1,0.2-0.2c0.1,0,0.3,0,0.4,0C29.7,13.8,29.6,13.9,29.5,13.9
							z"/>
						<g>
							<path class="st6" d="M29.1,13.9c0.2,0,0.3-0.1,0.5-0.1C29.4,13.8,29.3,13.8,29.1,13.9C29.1,13.8,29.1,13.9,29.1,13.9z"/>
						</g>
					</g>
					<g>
						<path class="st2" d="M29.3,14.2c-0.1,0-0.3,0-0.4-0.1C28.9,14,29,14,29.2,14c0.1,0,0.3,0,0.4,0.1
							C29.5,14.1,29.4,14.2,29.3,14.2z"/>
						<g>
							<path class="st6" d="M28.9,14.1c0.2,0,0.3,0,0.5-0.1C29.2,14.1,29.1,14.1,28.9,14.1C28.9,14.1,28.9,14.1,28.9,14.1z"/>
						</g>
					</g>
					<g>
						<path class="st2" d="M29,14.4c-0.1,0-0.3-0.1-0.4-0.1c0.1-0.1,0.2-0.1,0.3-0.1c0.1,0,0.3,0,0.4,0.1
							C29.3,14.4,29.1,14.5,29,14.4z"/>
						<g>
							<path class="st6" d="M28.6,14.3c0.2,0,0.4,0,0.5,0C29,14.3,28.8,14.3,28.6,14.3C28.6,14.3,28.6,14.3,28.6,14.3z"/>
						</g>
					</g>
					<g>
						<path class="st2" d="M28.7,14.7c-0.1,0-0.3-0.1-0.3-0.2c0.1,0,0.2-0.1,0.3,0c0.1,0,0.3,0.1,0.4,0.2
							C28.9,14.7,28.8,14.7,28.7,14.7z"/>
						<g>
							<path class="st6" d="M28.3,14.5c0.2,0,0.4,0.1,0.5,0.1C28.7,14.6,28.5,14.5,28.3,14.5C28.3,14.5,28.3,14.5,28.3,14.5z"/>
						</g>
					</g>
					<g>
						<path class="st2" d="M28.2,14.9c-0.1,0-0.2-0.1-0.3-0.2c0.1,0,0.2,0,0.3,0c0.1,0,0.2,0.1,0.3,0.2
							C28.5,14.9,28.4,14.9,28.2,14.9z"/>
						<g>
							<path class="st6" d="M27.9,14.6c0.2,0.1,0.3,0.1,0.5,0.1C28.3,14.7,28.1,14.7,27.9,14.6C28,14.6,28,14.6,27.9,14.6z"/>
						</g>
					</g>
					<g>
						<path class="st2" d="M27.8,15c-0.1-0.1-0.2-0.2-0.2-0.3c0.1,0,0.2,0,0.4,0c0.1,0.1,0.2,0.1,0.3,0.2C28.1,15,27.9,15,27.8,15z"
							/>
						<g>
							<path class="st6" d="M27.5,14.7c0.2,0.1,0.3,0.1,0.5,0.2C27.9,14.9,27.7,14.8,27.5,14.7C27.5,14.7,27.5,14.7,27.5,14.7z"/>
						</g>
					</g>
				</g>
				<g>
					<g>
						<path class="st2" d="M27.7,11.7c0.1-0.1,0.2-0.1,0.2-0.2c-0.1,0-0.2,0-0.3,0c-0.1,0.1-0.2,0.2-0.2,0.3
							C27.5,11.7,27.6,11.7,27.7,11.7z"/>
						<g>
							<path class="st6" d="M27.9,11.4c-0.1,0.1-0.3,0.1-0.4,0.2C27.6,11.6,27.8,11.5,27.9,11.4C27.9,11.4,27.9,11.4,27.9,11.4z"/>
						</g>
					</g>
					<g>
						<path class="st2" d="M28,11.8c0.1,0,0.2-0.1,0.3-0.2c-0.1,0-0.2-0.1-0.3,0c-0.1,0-0.2,0.1-0.3,0.2
							C27.8,11.8,27.9,11.8,28,11.8z"/>
						<g>
							<path class="st6" d="M28.3,11.5c-0.2,0.1-0.3,0.1-0.4,0.2C28,11.7,28.1,11.6,28.3,11.5C28.3,11.6,28.3,11.5,28.3,11.5z"/>
						</g>
					</g>
					<g>
						<path class="st2" d="M28.3,11.9c0.1,0,0.2-0.1,0.3-0.2c-0.1-0.1-0.2-0.1-0.3,0c-0.1,0-0.2,0.1-0.3,0.2
							C28.1,11.9,28.2,11.9,28.3,11.9z"/>
						<g>
							<path class="st6" d="M28.6,11.7c-0.2,0-0.3,0.1-0.5,0.1C28.3,11.8,28.5,11.8,28.6,11.7C28.6,11.7,28.6,11.7,28.6,11.7z"/>
						</g>
					</g>
					<g>
						<path class="st2" d="M28.5,12.1c0.1,0,0.3-0.1,0.4-0.1c-0.1-0.1-0.2-0.1-0.3-0.1c-0.1,0-0.2,0.1-0.3,0.2
							C28.3,12.1,28.4,12.1,28.5,12.1z"/>
						<g>
							<path class="st6" d="M28.9,11.9c-0.2,0-0.3,0-0.5,0.1C28.5,12,28.7,12,28.9,11.9C28.9,12,28.9,11.9,28.9,11.9z"/>
						</g>
					</g>
					<g>
						<path class="st2" d="M28.7,12.3c0.1,0,0.3,0,0.4-0.1c0-0.1-0.1-0.1-0.3-0.1c-0.1,0-0.3,0-0.4,0.1
							C28.5,12.2,28.6,12.3,28.7,12.3z"/>
						<g>
							<path class="st6" d="M29.1,12.2c-0.2,0-0.3,0-0.5,0C28.7,12.2,28.9,12.2,29.1,12.2C29.1,12.2,29.1,12.2,29.1,12.2z"/>
						</g>
					</g>
					<g>
						<path class="st2" d="M28.8,12.5c0.1,0,0.3,0,0.4,0c0-0.1-0.1-0.1-0.2-0.1c-0.1,0-0.3,0-0.4,0.1C28.6,12.4,28.7,12.5,28.8,12.5
							z"/>
						<g>
							<path class="st6" d="M29.2,12.4c-0.2,0-0.3,0-0.5,0C28.9,12.4,29.1,12.4,29.2,12.4C29.2,12.5,29.2,12.4,29.2,12.4z"/>
						</g>
					</g>
					<g>
						<path class="st2" d="M28.9,12.7c0.1,0,0.3,0,0.4,0c0-0.1-0.1-0.1-0.2-0.2c-0.1,0-0.3,0-0.4,0C28.7,12.6,28.8,12.7,28.9,12.7z"
							/>
						<g>
							<path class="st6" d="M29.3,12.7c-0.2,0-0.3-0.1-0.5-0.1C29,12.6,29.2,12.7,29.3,12.7C29.3,12.7,29.3,12.7,29.3,12.7z"/>
						</g>
					</g>
					<g>
						<path class="st2" d="M28.9,12.9c0.1,0,0.2,0.1,0.4,0.1c0-0.1,0-0.2-0.2-0.2c-0.1,0-0.3,0-0.4,0C28.8,12.9,28.8,12.9,28.9,12.9
							z"/>
						<g>
							<path class="st6" d="M29.3,13c-0.1-0.1-0.3-0.1-0.4-0.2C29.1,12.9,29.2,13,29.3,13C29.3,13,29.3,13,29.3,13z"/>
						</g>
					</g>
					<g>
						<path class="st2" d="M28.9,13.2c0.1,0.1,0.2,0.1,0.4,0.1c0-0.1,0-0.2-0.1-0.2C29.1,13,28.9,13,28.8,13
							C28.8,13.1,28.8,13.1,28.9,13.2z"/>
						<g>
							<path class="st6" d="M29.3,13.3c-0.1-0.1-0.3-0.1-0.4-0.2C29.1,13.1,29.2,13.2,29.3,13.3C29.3,13.3,29.3,13.3,29.3,13.3z"/>
						</g>
					</g>
					<g>
						<path class="st2" d="M28.9,13.4c0.1,0.1,0.2,0.1,0.3,0.2c0-0.1,0-0.2-0.1-0.2c-0.1-0.1-0.2-0.1-0.4-0.1
							C28.8,13.3,28.8,13.4,28.9,13.4z"/>
						<g>
							<path class="st6" d="M29.2,13.6c-0.1-0.1-0.2-0.2-0.3-0.3C29,13.4,29.1,13.5,29.2,13.6C29.2,13.6,29.2,13.6,29.2,13.6z"/>
						</g>
					</g>
					<g>
						<path class="st2" d="M28.8,13.6c0.1,0.1,0.2,0.1,0.3,0.2c0.1-0.1,0-0.2,0-0.2c-0.1-0.1-0.2-0.1-0.3-0.2
							C28.7,13.5,28.7,13.6,28.8,13.6z"/>
						<g>
							<path class="st6" d="M29.1,13.8c-0.1-0.1-0.2-0.2-0.3-0.3C28.9,13.6,29,13.7,29.1,13.8C29.1,13.8,29.1,13.8,29.1,13.8z"/>
						</g>
					</g>
					<g>
						<path class="st2" d="M28.6,13.9c0.1,0.1,0.1,0.2,0.3,0.2c0.1-0.1,0.1-0.1,0-0.2c-0.1-0.1-0.2-0.2-0.3-0.2
							C28.6,13.7,28.6,13.8,28.6,13.9z"/>
						<g>
							<path class="st6" d="M28.9,14.1c-0.1-0.1-0.1-0.2-0.2-0.3C28.8,13.9,28.8,14,28.9,14.1C28.9,14.1,28.9,14.1,28.9,14.1z"/>
						</g>
					</g>
					<g>
						<path class="st2" d="M28.4,14c0,0.1,0.1,0.2,0.2,0.3c0.1,0,0.1-0.1,0.1-0.2c0-0.1-0.1-0.2-0.2-0.2C28.4,13.9,28.4,14,28.4,14z
							"/>
						<g>
							<path class="st6" d="M28.7,14.3c0-0.1-0.1-0.2-0.1-0.3C28.6,14.1,28.6,14.2,28.7,14.3C28.6,14.3,28.6,14.3,28.7,14.3z"/>
						</g>
					</g>
					<g>
						<path class="st2" d="M28.2,14.2c0,0.1,0.1,0.2,0.1,0.3c0.1,0,0.2-0.1,0.1-0.2c0-0.1-0.1-0.2-0.2-0.3
							C28.2,14,28.2,14.1,28.2,14.2z"/>
						<g>
							<path class="st6" d="M28.4,14.5c0-0.1,0-0.2-0.1-0.4C28.3,14.2,28.3,14.4,28.4,14.5C28.3,14.5,28.3,14.5,28.4,14.5z"/>
						</g>
					</g>
					<g>
						<path class="st2" d="M27.9,14.3c0,0.1,0,0.2,0.1,0.3c0.1,0,0.2-0.1,0.2-0.2c0-0.1,0-0.2-0.1-0.3
							C27.9,14.2,27.9,14.2,27.9,14.3z"/>
						<g>
							<path class="st6" d="M28,14.6c0-0.1,0-0.2,0-0.4C28,14.4,28,14.5,28,14.6C27.9,14.6,28,14.6,28,14.6z"/>
						</g>
					</g>
					<g>
						<path class="st2" d="M27.5,14.4c0,0.1-0.1,0.2,0,0.3c0.1,0,0.2-0.1,0.3-0.2c0-0.1,0-0.2-0.1-0.3
							C27.7,14.3,27.6,14.3,27.5,14.4z"/>
						<g>
							<path class="st6" d="M27.6,14.7c0.1-0.1,0.1-0.2,0.1-0.3C27.7,14.5,27.6,14.6,27.6,14.7C27.5,14.7,27.5,14.7,27.6,14.7z"/>
						</g>
					</g>
				</g>
				<path class="st4" d="M27,14.8c0,0,0.1,0,0.3,0c0.1,0,0.2,0,0.3,0c0.1,0,0.2,0,0.4-0.1c0.1,0,0.3-0.1,0.4-0.2
					c0.1-0.1,0.3-0.2,0.4-0.3c0.1-0.1,0.3-0.2,0.3-0.4c0.1-0.1,0.2-0.3,0.2-0.5c0-0.2,0-0.4,0-0.5c0-0.2-0.1-0.3-0.2-0.5
					c-0.1-0.1-0.2-0.3-0.3-0.4c-0.1-0.1-0.1-0.1-0.2-0.1c-0.1,0-0.1-0.1-0.2-0.1c-0.1-0.1-0.2-0.1-0.3-0.2c-0.1,0-0.2-0.1-0.3-0.1
					c-0.2,0-0.2-0.1-0.2-0.1s0.1,0,0.2,0c0.1,0,0.2,0,0.3,0.1c0.1,0,0.2,0.1,0.3,0.2c0.1,0,0.1,0.1,0.2,0.1c0.1,0,0.1,0.1,0.2,0.1
					c0.1,0.1,0.2,0.2,0.3,0.4c0.1,0.2,0.2,0.3,0.2,0.5c0,0.2,0,0.4,0,0.6c0,0.2-0.1,0.4-0.2,0.5c-0.1,0.2-0.2,0.3-0.4,0.4
					c-0.1,0.1-0.3,0.2-0.4,0.3c-0.1,0.1-0.3,0.1-0.4,0.1c-0.1,0-0.3,0.1-0.4,0.1c-0.1,0-0.2,0-0.3,0C27.1,14.8,27,14.8,27,14.8z"/>
				<g>
					<path class="st2" d="M27.4,11.2c0.1,0,0.3,0.1,0.3,0.2c-0.1,0.1-0.2,0.1-0.3,0.1c-0.1,0-0.2-0.1-0.3-0.1
						C27.1,11.2,27.2,11.2,27.4,11.2z"/>
					<g>
						<path class="st6" d="M27.7,11.3c-0.2,0-0.3,0-0.5,0C27.3,11.3,27.5,11.3,27.7,11.3C27.7,11.3,27.7,11.3,27.7,11.3z"/>
					</g>
				</g>
			</g>
		</g>
		<g>
			<path class="st7" d="M23.8,18.6H27v-4.2v0c0,0,0,0,0,0c0,0,0,0,0,0v0c-0.1,0.1-1.2,0.7-2.4-0.2l-1.2,1.5c0,0,1,0.8,0.5,2.4
				C23.9,18.4,23.9,18.5,23.8,18.6z"/>
			<path class="st3" d="M27,18.7h-3.2l0.1-0.4c0.5-1.6-0.5-2.4-0.5-2.4l0,0l1.2-1.6l0,0c1.1,0.9,2.2,0.3,2.3,0.2v0l0,0l0,0l0,0.1
				V18.7z M23.9,18.6h3.1v-4.1c-0.2,0.1-1.3,0.7-2.4-0.2l-1.1,1.5c0.2,0.1,1,0.9,0.5,2.4L23.9,18.6z"/>
		</g>
		<g>
			<path class="st1" d="M30.1,18.6H27v-4.2v0c0,0,0,0,0,0c0,0,0,0,0,0v0c0.1,0.1,1.2,0.7,2.4-0.2l1.2,1.5c0,0-1,0.8-0.5,2.4
				C30.1,18.4,30.1,18.5,30.1,18.6z"/>
			<path class="st3" d="M30.2,18.7h-3.2v-4.3l0,0l0,0l0,0c0.2,0.1,1.2,0.7,2.3-0.2l0,0l1.2,1.6l0,0c0,0-1,0.8-0.5,2.4L30.2,18.7z
				 M27,18.6h3.1L30,18.3c-0.4-1.5,0.4-2.3,0.5-2.4l-1.1-1.5c-1.1,0.8-2.1,0.3-2.4,0.2V18.6z"/>
		</g>
		<path class="st2" d="M21.7,17.5c0,0,0.3-1.3,1.2-2.1c0.6-0.6-0.7,0-1.1,0.6c0,0,0.8-1.2,1.9-1.9c0.8-0.5-1,0.1-1.3,0.5
			c0,0,0.5-0.6,1-0.9c0.4-0.2-0.9,0.1-1.3,0.7c0,0,0.5-1.1,1.6-1.5c0.5-0.2-1.1-0.2-1.9,1.2c0,0,0.1-0.7,0.2-1
			c0.1-0.2-0.7,0.5-0.8,1.3s0,1.1,0,1.1s-0.3-1.3-0.6-1.2c-0.3,0,0.1,1.1,0.1,1.1s-0.4-0.5-0.4-0.4s0,0.7,0,0.7s-0.3-0.5-0.3-0.4
			s0.1,0.6,0.1,0.6s-0.4-0.1-0.4,0.2c0,0.3,0.1,0.7,0.2,0.7s0.1-0.4,0.1-0.5c0,0,0.9,0.8,1,2.1c0,0-0.9-1.2-1.4-1.7
			c0,0-0.3,0.2,0.6,1.2c0,0-0.5-0.3-0.6-0.3c-0.1,0,0.4,0.8,0.4,0.8s-0.3-0.1-0.4,0c-0.1,0.1,0,0.9,0.1,0.8c0.1-0.1,0.1-0.5,0.1-0.5
			s1.1,1,1.6,1.9c0,0-1.4-0.9-1.7-0.9c-0.3,0,1,1.1,1,1.1s-0.7-0.2-0.7-0.2s1.3,1,1.3,1s-0.8-0.1-0.9-0.1s0.6,0.4,1.1,0.6
			s1,0.6,1.1,0.7c0,0-1.3-0.5-1.6-0.6c0,0,0.5,0.9,2.5,1.6c0.4,0.1,2.1,0.4,2.1,0.4s2.4,0.4,3.2,0.6c0.8,0.2,1,0.2,1,0
			c0-0.2-0.3-0.4-1.2-0.6s-3.8-0.4-4.4-0.9c-0.6-0.5-2.2-1.5-1.6-3.9c0,0-0.3,0.4-0.4,0.9c0,0,0,0.1,0,0.1c-0.1,0.5-0.2-1.2,0.8-2.2
			c0,0-0.3-0.1-0.7,0.4c0,0,0.4-0.8,1-1.1c0,0-0.5-0.3-1.3,0.9c0,0,0.4-1,0.9-1.4c0.5-0.4-0.7,0.2-0.9,0.6c0,0,0.3-0.7,0.6-1.1
			C23.1,16.2,22.1,16.6,21.7,17.5z"/>
		<path class="st4" d="M24.8,23.8c0,0-0.2,0-0.4-0.2c-0.3-0.1-0.6-0.3-1-0.6c-0.2-0.2-0.4-0.3-0.5-0.6c-0.2-0.2-0.3-0.5-0.4-0.8
			c-0.1-0.3-0.2-0.6-0.4-0.9c-0.1-0.3-0.2-0.6-0.3-0.9c-0.1-0.3-0.2-0.6-0.2-0.9c0-0.2-0.1-0.3-0.1-0.5c0-0.2-0.1-0.3-0.1-0.5
			c0-0.3-0.1-0.6-0.1-0.9c0-0.1,0-0.3,0-0.4c0-0.1,0-0.3,0-0.4c0-0.1,0-0.2,0-0.3c0-0.1,0-0.2,0.1-0.3c0-0.2,0.1-0.4,0.1-0.5
			c0.1-0.3,0.1-0.4,0.1-0.4s0,0.2-0.1,0.4c0,0.1-0.1,0.3-0.1,0.5c0,0.1,0,0.2,0,0.3c0,0.1,0,0.2,0,0.3c0,0.1,0,0.2,0,0.4
			c0,0.1,0,0.3,0,0.4c0,0.3,0,0.6,0.1,0.9c0,0.1,0,0.3,0.1,0.4c0,0.2,0.1,0.3,0.1,0.5c0.1,0.3,0.2,0.6,0.2,0.9
			c0.1,0.3,0.2,0.6,0.3,0.9c0.1,0.3,0.2,0.6,0.3,0.8c0.1,0.3,0.2,0.5,0.4,0.8c0.2,0.2,0.3,0.4,0.5,0.6c0.2,0.2,0.4,0.3,0.5,0.4
			c0.2,0.1,0.3,0.2,0.4,0.2C24.6,23.8,24.8,23.8,24.8,23.8z"/>
		<path class="st4" d="M23.8,23.4c0,0-0.1,0-0.2-0.1c-0.1,0-0.1,0-0.2-0.1c-0.1,0-0.2,0-0.2-0.1c-0.2-0.1-0.3-0.1-0.5-0.1
			c-0.1,0-0.2-0.1-0.2-0.1s0.1,0,0.2,0c0.1,0,0.1,0,0.2,0c0.1,0,0.2,0,0.3,0.1c0.1,0,0.2,0.1,0.2,0.1c0.1,0,0.1,0.1,0.2,0.1
			C23.7,23.3,23.8,23.4,23.8,23.4z"/>
		<path class="st4" d="M22.9,22.4c0,0-0.1,0-0.2-0.1c-0.1,0-0.2-0.1-0.2-0.1c-0.1,0-0.2-0.1-0.3-0.1C22,22,21.9,22,21.8,22
			c-0.1,0-0.2-0.1-0.2-0.1c-0.1,0-0.1,0-0.2-0.1c0,0-0.1,0-0.1,0s0,0,0.1,0c0,0,0.1,0,0.2,0c0.1,0,0.2,0,0.3,0.1
			c0.1,0,0.2,0.1,0.3,0.1c0.2,0.1,0.4,0.2,0.5,0.3C22.8,22.4,22.9,22.4,22.9,22.4z"/>
		<path class="st4" d="M22.6,22c0,0-0.1-0.1-0.2-0.2c-0.1-0.1-0.1-0.1-0.2-0.2c-0.1-0.1-0.2-0.1-0.2-0.2c-0.1-0.1-0.2-0.1-0.3-0.2
			c0,0-0.1-0.1-0.1-0.1c0,0-0.1,0-0.1-0.1c0,0-0.1,0-0.1,0c0,0-0.1,0-0.1,0c0,0-0.1,0-0.1,0s0,0,0.1,0c0,0,0.1,0,0.1,0
			c0,0,0.1,0,0.1,0c0.1,0,0.2,0.1,0.3,0.1c0.1,0.1,0.2,0.1,0.3,0.2c0.1,0.1,0.2,0.1,0.2,0.2c0.1,0.1,0.1,0.1,0.2,0.2
			C22.6,21.9,22.6,22,22.6,22z"/>
		<path class="st4" d="M22.4,21.5c0,0,0,0-0.1-0.1c0,0-0.1-0.1-0.1-0.1c0,0-0.1-0.1-0.1-0.1c0,0-0.1-0.1-0.1-0.1
			c0,0-0.1-0.1-0.1-0.1c0,0-0.1-0.1-0.1-0.1c0,0,0,0,0,0s0,0,0,0c0,0,0.1,0,0.1,0.1c0,0,0.1,0.1,0.1,0.1c0,0,0.1,0.1,0.1,0.1
			c0,0,0.1,0.1,0.1,0.1c0,0,0.1,0.1,0.1,0.1C22.4,21.5,22.4,21.5,22.4,21.5z"/>
		<path class="st4" d="M22.5,21.8c0,0,0-0.1,0-0.2c0,0,0-0.1,0-0.2c0-0.1,0-0.1,0-0.2c0-0.1,0-0.1,0-0.2c0-0.1,0-0.1,0-0.2
			c0-0.1,0-0.2,0-0.2s0,0.3,0.1,0.5c0,0.1,0,0.1,0,0.2c0,0.1,0,0.1,0,0.2C22.5,21.8,22.5,21.8,22.5,21.8z"/>
		<path class="st4" d="M22.1,20.7c0,0-0.1-0.1-0.3-0.3c-0.2-0.2-0.3-0.5-0.6-0.8c-0.1-0.1-0.2-0.3-0.3-0.4c-0.1-0.1-0.2-0.2-0.3-0.3
			c0,0-0.1-0.1-0.1-0.1c0,0-0.1-0.1-0.1-0.1c-0.1,0-0.1-0.1-0.1-0.1s0,0,0.1,0.1c0,0,0.1,0.1,0.1,0.1c0,0,0.1,0.1,0.1,0.1
			c0.1,0.1,0.2,0.2,0.3,0.3c0.1,0.1,0.2,0.3,0.3,0.4c0.1,0.1,0.2,0.3,0.3,0.4c0.1,0.1,0.2,0.3,0.2,0.4C22,20.5,22.1,20.7,22.1,20.7z
			"/>
		<path class="st4" d="M20.6,18.2c0,0,0.1,0.1,0.2,0.2c0.1,0.1,0.3,0.3,0.4,0.5c0.1,0.1,0.1,0.2,0.2,0.3c0.1,0.1,0.1,0.2,0.2,0.3
			c0,0.1,0.1,0.1,0.1,0.2c0,0,0,0.1,0,0.1s0,0,0-0.1c0,0-0.1-0.1-0.1-0.2c0-0.1-0.1-0.2-0.2-0.3c-0.1-0.1-0.1-0.2-0.2-0.3
			c-0.1-0.1-0.1-0.2-0.2-0.3c-0.1-0.1-0.1-0.2-0.2-0.2C20.7,18.3,20.6,18.2,20.6,18.2z"/>
		<path class="st4" d="M22.1,20.8c0,0,0-0.1,0-0.3c0-0.2,0-0.4,0-0.6c0-0.1,0-0.2,0.1-0.3c0-0.1,0.1-0.2,0.1-0.3
			c0-0.1,0.1-0.1,0.1-0.2c0,0,0-0.1,0-0.1s0,0,0,0.1c0,0,0,0.1-0.1,0.2c0,0.1,0,0.2-0.1,0.3c0,0.1,0,0.2-0.1,0.3c0,0.1,0,0.2,0,0.3
			c0,0.1,0,0.2,0,0.3C22.1,20.7,22.1,20.8,22.1,20.8z"/>
		<path class="st4" d="M21.8,20c0,0,0-0.1,0-0.2c0-0.1,0-0.3,0-0.5c0-0.1,0-0.2,0.1-0.2c0-0.1,0-0.1,0.1-0.2c0-0.1,0.1-0.1,0.1-0.1
			c0,0,0,0,0,0s0,0,0,0c0,0,0,0.1-0.1,0.1c0,0.1,0,0.1-0.1,0.2c0,0.1,0,0.2,0,0.2c0,0.1,0,0.2,0,0.2c0,0.1,0,0.1,0,0.2
			C21.8,19.9,21.8,20,21.8,20z"/>
		<path class="st4" d="M21.6,19.2c0,0,0-0.1,0-0.2c0-0.1,0.1-0.3,0.1-0.5c0-0.1,0.1-0.2,0.1-0.3c0-0.1,0.1-0.2,0.1-0.2
			c0.1-0.1,0.1-0.2,0.1-0.2s0,0.1-0.1,0.2c0,0.1-0.1,0.3-0.1,0.5c0,0.2-0.1,0.4-0.1,0.5C21.6,19.1,21.6,19.2,21.6,19.2z"/>
		<path class="st4" d="M21.5,18.4c0,0,0,0,0-0.1c0,0,0-0.1,0-0.1c0,0,0-0.1,0-0.1c0,0,0-0.1,0-0.1c0,0,0-0.1,0-0.1
			c0-0.1,0.1-0.1,0.1-0.1s0,0,0,0.1c0,0,0,0.1,0,0.1c0,0,0,0.1,0,0.1c0,0,0,0.1,0,0.1c0,0,0,0.1,0,0.1
			C21.5,18.4,21.5,18.4,21.5,18.4z"/>
		<path class="st4" d="M21.3,17.5c0,0-0.1-0.1-0.1-0.2c0-0.1-0.1-0.1-0.1-0.2c0-0.1-0.1-0.2-0.2-0.3c-0.1-0.2-0.2-0.3-0.3-0.5
			c0-0.1-0.1-0.1-0.1-0.1c0,0,0-0.1,0-0.1s0,0,0.1,0c0,0,0,0,0.1,0.1c0,0,0,0,0.1,0.1c0.1,0.1,0.1,0.1,0.2,0.2
			c0.1,0.1,0.1,0.2,0.2,0.3c0.1,0.2,0.2,0.4,0.3,0.5C21.3,17.4,21.3,17.5,21.3,17.5z"/>
		<path class="st4" d="M21.3,16.8c0,0,0-0.1-0.1-0.2c0-0.1-0.1-0.1-0.1-0.2c0-0.1-0.1-0.2-0.1-0.2c0-0.1-0.1-0.2-0.1-0.2
			c0-0.1-0.1-0.1-0.1-0.2c0-0.1-0.1-0.1-0.1-0.1c0,0,0,0,0,0s0,0,0,0c0,0,0.1,0.1,0.1,0.1c0,0.1,0.1,0.1,0.1,0.2
			c0,0.1,0.1,0.2,0.1,0.2c0.1,0.2,0.1,0.3,0.2,0.5C21.3,16.7,21.3,16.8,21.3,16.8z"/>
		<path class="st4" d="M21.3,17.2c0,0,0-0.1,0.1-0.2c0-0.1,0.1-0.1,0.1-0.2c0-0.1,0.1-0.1,0.1-0.2c0-0.1,0.1-0.1,0.1-0.2
			c0-0.1,0.1-0.1,0.1-0.2C22,16.1,22,16,22,16s-0.1,0.1-0.1,0.2c-0.1,0.1-0.2,0.2-0.2,0.4c-0.1,0.1-0.2,0.3-0.2,0.4
			C21.4,17.1,21.3,17.2,21.3,17.2z"/>
		<path class="st4" d="M22.4,14.8L22.4,14.8l-0.2,0.1c0,0.1-0.1,0.1-0.1,0.2c-0.1,0.1-0.2,0.2-0.2,0.4c-0.1,0.1-0.2,0.2-0.2,0.4
			c-0.1,0.1-0.1,0.3-0.2,0.4l0,0l0,0c-0.1-0.1-0.1-0.2-0.2-0.3c-0.1-0.1-0.1-0.2-0.2-0.3c0.1,0.1,0.1,0.2,0.2,0.3l0.2,0.3l0,0
			c0.1-0.3,0.3-0.5,0.4-0.8c0.1-0.1,0.2-0.2,0.3-0.3c0-0.1,0.1-0.1,0.2-0.2L22.4,14.8C22.3,14.8,22.4,14.8,22.4,14.8z"/>
		<path class="st4" d="M21.6,15.4c0,0,0-0.1,0-0.2c0-0.1,0-0.1,0-0.2c0-0.1,0-0.2,0-0.3c0-0.1,0-0.2,0-0.3c0-0.1,0-0.2,0-0.2
			c0-0.1,0-0.1,0.1-0.2c0,0,0-0.1,0-0.1s0,0,0,0.1c0,0,0,0.1,0,0.2c0,0.1,0,0.1,0,0.2c0,0.1,0,0.2,0,0.3c0,0.2,0,0.4,0,0.5
			C21.6,15.3,21.6,15.4,21.6,15.4z"/>
		<path class="st4" d="M29.5,24.6c-0.1,0-0.2,0.1-0.1,0.3c0.1,0.1,0.6,0.1,0.5,0C29.8,24.7,29.6,24.6,29.5,24.6z"/>
		<path class="st4" d="M24.7,24.6c0.1,0,0.2,0.1,0.1,0.3c-0.1,0.1-0.6,0.1-0.5,0C24.4,24.7,24.6,24.6,24.7,24.6z"/>
		<path class="st2" d="M30.4,14.2c0,0-0.2-0.1-0.3,0c0,0,0.3,0.5,0.6,0.6c0.6,0.3,1.5,0.3,1.7,0.8c0,0-0.2-0.8-0.1-1.1
			c0.1-0.3,0.6-1.5-0.9-2.1c0,0-0.2,0.5-0.1,0.7c0,0-0.7-0.3-1.1-0.3c0,0,0,0.6,0.2,0.7c0,0-0.4,0.1-0.5,0.2
			C29.9,13.8,30.3,14.1,30.4,14.2z"/>
		<path class="st4" d="M30.5,14.4c0.1,0.1,0.2,0.2,0.4,0.2c0.1,0.1,0.3,0.1,0.4,0.1c0.1,0,0.1,0,0.2,0c0.1,0,0.1,0,0.2,0.1
			c0.1,0,0.3,0.1,0.4,0.2l0,0.1c-0.2-0.1-0.3-0.2-0.5-0.3c-0.1-0.1-0.3-0.2-0.4-0.3c-0.1-0.1-0.2-0.3-0.3-0.4c0-0.1-0.1-0.2-0.1-0.2
			c0-0.1-0.1-0.1-0.2-0.2c0.1,0,0.1,0.1,0.2,0.2c0.1,0.1,0.1,0.1,0.2,0.2c0.1,0.1,0.2,0.3,0.3,0.4c0.3,0.2,0.6,0.4,0.9,0.6l0,0.1
			c-0.1-0.1-0.3-0.1-0.4-0.2c-0.1,0-0.3-0.1-0.4-0.1C31,14.7,30.7,14.6,30.5,14.4z"/>
		<path class="st4" d="M30.2,13.9c0,0,0.1,0,0.1,0c0.1,0,0.2,0.1,0.3,0.1c0.1,0,0.1,0.1,0.1,0.1c0,0,0.1,0.1,0.1,0.1
			c0.1,0.1,0.1,0.1,0.1,0.1s0,0,0,0c0,0-0.1,0-0.1-0.1c-0.1,0-0.2-0.1-0.3-0.1c0,0-0.1,0-0.1-0.1c0,0-0.1,0-0.1-0.1
			C30.3,13.9,30.2,13.9,30.2,13.9z"/>
		<path class="st4" d="M31,13.6c0,0,0.1,0.1,0.2,0.2c0.1,0.1,0.3,0.3,0.4,0.4c0.1,0.1,0.1,0.2,0.2,0.3c0.1,0.1,0.1,0.2,0.1,0.2
			c0,0.1,0.1,0.1,0.1,0.2c0,0,0,0.1,0,0.1s0,0,0-0.1c0,0-0.1-0.1-0.1-0.2c0-0.1-0.1-0.1-0.2-0.2c-0.1-0.1-0.1-0.2-0.2-0.2
			c-0.1-0.1-0.1-0.2-0.2-0.2c-0.1-0.1-0.1-0.1-0.2-0.2C31.1,13.6,31,13.6,31,13.6z"/>
		<path class="st4" d="M32.3,14.6c0,0,0-0.1-0.1-0.3c0-0.1-0.1-0.2-0.1-0.3c0-0.1-0.1-0.2-0.1-0.3c0-0.1-0.1-0.2-0.1-0.3
			c0-0.1-0.1-0.2-0.1-0.3c-0.1-0.2-0.1-0.3-0.1-0.3s0.1,0.1,0.1,0.3c0.1,0.2,0.2,0.4,0.2,0.6c0,0.1,0.1,0.2,0.1,0.3
			c0,0.1,0.1,0.2,0.1,0.3C32.3,14.5,32.3,14.6,32.3,14.6z"/>
		<path class="st4" d="M31.4,13.3c0,0,0.1,0,0.1,0c0,0,0.1,0,0.1,0.1c0,0,0.1,0.1,0.1,0.1c0,0,0.1,0.1,0.1,0.1
			c0,0.1,0.1,0.1,0.1,0.1c0,0,0,0.1,0,0.1c0,0,0,0,0,0s0,0,0,0c0,0,0-0.1-0.1-0.1c0,0-0.1-0.1-0.1-0.1c0,0-0.1-0.1-0.1-0.1
			c-0.1-0.1-0.2-0.2-0.2-0.2C31.5,13.3,31.4,13.3,31.4,13.3z"/>
		<g>
			<circle class="st0" cx="31.6" cy="15.3" r="0.2"/>
			<path class="st2" d="M31.6,15.5c-0.1,0-0.2-0.1-0.2-0.2c0-0.1,0.1-0.2,0.2-0.2s0.2,0.1,0.2,0.2C31.8,15.4,31.7,15.5,31.6,15.5z
				 M31.6,15.2c-0.1,0-0.1,0.1-0.1,0.1c0,0.1,0.1,0.1,0.1,0.1s0.1-0.1,0.1-0.1C31.8,15.2,31.7,15.2,31.6,15.2z"/>
		</g>
		<path class="st2" d="M32.4,15.7c0,0,0.2-0.8,0.2-1c-0.1-0.2,0.1-0.2,0.1-0.2l0.4,0.3C33,14.7,32.6,15.1,32.4,15.7z"/>
		<path class="st2" d="M32.6,18.6c0,0,0.2-0.6-0.1-0.8c-0.3-0.2-1.3-0.2-1.6-1.1c0,0,0.2-0.1,0.3,0c0,0-0.1-0.4,0-0.6
			c0,0,0.4,0,0.5,0.1s-0.2-0.4-0.2-0.7c0,0,0.3,0,0.4,0.1c0,0,0.1-0.3,0.1-0.4c0,0,0.2,0.3,0.3,0.4c0,0,0.2-0.4,0.5-0.5
			c0,0,0.3,0.4,0.3,0.6c0,0,0.2-0.2,0.3-0.3c0,0,0.3,0.7,0.1,1.4l0.3,0c0,0-0.5,0.6-0.8,0.8c-0.3,0.2-0.4,0.9-0.4,0.9l-0.1,0.2
			L32.6,18.6z"/>
		<path class="st4" d="M31.1,16.9c0,0,0.1,0.1,0.2,0.2c0.1,0.1,0.3,0.2,0.4,0.3c0.1,0.1,0.2,0.1,0.2,0.2c0.1,0.1,0.2,0.1,0.2,0.1
			c0.1,0,0.1,0.1,0.2,0.1c0,0,0.1,0,0.1,0s-0.1,0-0.2-0.1c-0.1,0-0.1-0.1-0.2-0.1c-0.1-0.1-0.2-0.1-0.2-0.2
			c-0.1-0.1-0.2-0.1-0.2-0.2c-0.1-0.1-0.1-0.1-0.2-0.2C31.2,16.9,31.1,16.9,31.1,16.9z"/>
		<path class="st4" d="M31.3,16.4c0.3,0.2,0.5,0.5,0.8,0.7c0.1,0.1,0.1,0.1,0.2,0.2c0.1,0.1,0.1,0.1,0.2,0.2
			c0.1,0.1,0.1,0.1,0.2,0.2l0.1,0.1c0,0,0,0.1,0.1,0.1l-0.1,0c0.2-0.3,0.3-0.6,0.5-1c0.1-0.2,0.1-0.3,0.2-0.5c0,0,0-0.1,0-0.1
			c0,0,0-0.1,0-0.1c0-0.1,0-0.2,0-0.3c0,0.1,0,0.2,0,0.3c0,0,0,0.1,0,0.1c0,0,0,0.1,0,0.1c0,0.2-0.1,0.3-0.2,0.5
			c-0.1,0.3-0.3,0.7-0.5,1l0,0.1l0-0.1c0,0,0-0.1-0.1-0.1l-0.1-0.1c0-0.1-0.1-0.1-0.1-0.2c-0.1-0.1-0.2-0.3-0.3-0.4
			C31.8,16.9,31.5,16.6,31.3,16.4z"/>
		<path class="st4" d="M32.9,18c0,0,0-0.1,0.1-0.1c0,0,0-0.1,0.1-0.1c0,0,0.1-0.1,0.1-0.1c0,0,0.1-0.1,0.1-0.1c0,0,0.1-0.1,0.1-0.1
			c0.1-0.1,0.1-0.1,0.1-0.1s0,0-0.1,0.1c-0.1,0.1-0.1,0.2-0.2,0.3c0,0-0.1,0.1-0.1,0.1c0,0-0.1,0.1-0.1,0.1C33,17.9,32.9,18,32.9,18
			z"/>
		<path class="st4" d="M32.7,17.7c0,0,0-0.1-0.1-0.4c0-0.1,0-0.2,0-0.4c0-0.1,0-0.3,0-0.4c0-0.1,0-0.3,0-0.4c0-0.1,0-0.3,0-0.4
			c0-0.1,0-0.1,0-0.1c0,0,0-0.1,0-0.1c0-0.1,0-0.1,0-0.1s0,0,0,0.1c0,0,0,0.1,0,0.1c0,0,0,0.1,0,0.1c0,0.2,0,0.5,0,0.8
			c0,0.1,0,0.3,0,0.4c0,0.1,0,0.3,0,0.4C32.7,17.6,32.7,17.7,32.7,17.7z"/>
		<path class="st4" d="M31.8,16.3c0,0,0.1,0,0.2,0.1c0.1,0,0.1,0.1,0.2,0.1c0.1,0.1,0.1,0.1,0.2,0.2c0.1,0.1,0.1,0.1,0.2,0.2
			c0,0.1,0.1,0.1,0.1,0.2c0,0.1,0.1,0.1,0.1,0.1c0,0,0,0.1,0,0.1s0,0,0,0c0,0-0.1-0.1-0.1-0.1c0-0.1-0.1-0.1-0.1-0.2
			c-0.1-0.1-0.1-0.1-0.2-0.2c-0.1-0.1-0.2-0.2-0.3-0.3C31.8,16.4,31.8,16.3,31.8,16.3z"/>
		<path class="st4" d="M32.1,15.7c0,0,0,0.1,0,0.2c0,0,0,0.1,0,0.2c0,0.1,0,0.1,0,0.2c0,0.1,0,0.3,0.1,0.4c0,0.1,0,0.2,0,0.2
			s0-0.1-0.1-0.2c0,0,0-0.1,0-0.2c0-0.1,0-0.1,0-0.2c0-0.1,0-0.1,0-0.2c0-0.1,0-0.1,0-0.2C32,15.7,32.1,15.7,32.1,15.7z"/>
		<path class="st4" d="M32.5,15.7C32.5,15.7,32.5,15.7,32.5,15.7c-0.1,0.1-0.1,0.1-0.1,0.2c0,0-0.1,0.1-0.1,0.1
			c-0.1,0.1-0.1,0.1-0.1,0.2c0,0,0,0.1,0,0.1c0,0,0,0,0,0s0,0,0,0c0,0,0-0.1,0-0.1c0,0,0-0.1,0-0.1c0,0,0-0.1,0.1-0.1
			C32.3,15.9,32.4,15.8,32.5,15.7C32.5,15.7,32.5,15.7,32.5,15.7z"/>
		<path class="st4" d="M32.7,16.7c0,0,0-0.1,0-0.1c0,0,0-0.1,0-0.1c0,0,0-0.1,0.1-0.1c0,0,0-0.1,0.1-0.1c0,0,0.1-0.1,0.1-0.1
			C33,16,33,16,33,16s0,0-0.1,0.1c0,0.1-0.1,0.2-0.1,0.2c0,0,0,0.1-0.1,0.1c0,0,0,0.1-0.1,0.1C32.7,16.7,32.7,16.7,32.7,16.7z"/>
		<path class="st2" d="M31.8,21.6c0,0,0-0.7-0.4-1.1c-0.4-0.4-0.8-1.7-0.7-2.6c0,0,0.3,0.1,0.3,0.1c0,0,0-0.5,0.1-0.6
			c0,0,0.4,0.4,0.4,0.5l0.1-0.2c0,0,0.8,0.8,0.9,1.2c0,0,0.7-0.9,1.2-0.9c0,0,0,0.6-0.1,0.8c0,0,0.5-0.1,0.6-0.2
			c0,0,0.1,1.8-1.4,2.2C32.4,21,32,21.6,32,21.6l-0.2,0.2V21.6z"/>
		<path class="st4" d="M30.8,18.3c0.1,0.2,0.2,0.5,0.3,0.7c0.1,0.1,0.1,0.2,0.2,0.3c0,0.1,0.1,0.1,0.1,0.2c0,0,0.1,0.1,0.1,0.1l0,0
			l0,0c0,0.2,0.1,0.5,0.1,0.7c0,0.2,0,0.5,0,0.7c0-0.2,0-0.5-0.1-0.7c0-0.2,0-0.5-0.1-0.7l0,0c-0.1,0-0.1-0.1-0.1-0.1
			c0-0.1-0.1-0.1-0.1-0.2c-0.1-0.1-0.1-0.2-0.2-0.3C31,18.8,30.9,18.6,30.8,18.3z"/>
		<path class="st4" d="M32.1,18.5c0,0,0,0.1-0.1,0.2c0,0.1-0.1,0.1-0.1,0.2c0,0.1-0.1,0.1-0.1,0.2c0,0.1-0.1,0.1-0.1,0.2
			c0,0.1-0.1,0.1-0.1,0.2c0,0.1,0,0.1-0.1,0.1c0,0,0,0.1,0,0.1s0-0.1,0-0.2c0-0.1,0.1-0.3,0.2-0.4c0-0.1,0.1-0.1,0.1-0.2
			c0-0.1,0.1-0.1,0.1-0.2C32.1,18.6,32.1,18.5,32.1,18.5z"/>
		<path class="st4" d="M31.1,18.2c0,0,0.1,0,0.1,0.1c0,0,0.1,0.1,0.1,0.1c0,0,0.1,0.1,0.1,0.1c0,0,0.1,0.1,0.1,0.1
			c0,0,0.1,0.1,0.1,0.1c0.1,0.1,0.1,0.1,0.1,0.1s0-0.1-0.1-0.1c-0.1-0.1-0.2-0.1-0.3-0.2c0,0-0.1-0.1-0.1-0.1c0,0-0.1-0.1-0.1-0.1
			C31.1,18.3,31.1,18.2,31.1,18.2z"/>
		<path class="st4" d="M31.2,17.7c0,0,0,0,0.1,0.1c0,0,0,0.1,0,0.1c0,0,0,0.1,0,0.1c0,0,0,0.1,0,0.1c0,0,0,0.1,0,0.1
			c0,0.1,0,0.1,0,0.1s0,0-0.1-0.1c0,0,0-0.1,0-0.1c0,0,0-0.1,0-0.1c0,0,0-0.1,0-0.1c0,0,0-0.1,0-0.1C31.2,17.8,31.2,17.7,31.2,17.7z
			"/>
		<path class="st4" d="M31.9,18.8c0,0,0,0-0.1-0.1c0,0,0-0.1-0.1-0.1c0,0,0-0.1-0.1-0.1c0,0,0-0.1,0-0.1c0,0,0-0.1,0-0.1
			c0,0,0-0.1,0-0.1c0,0,0,0,0,0s0,0,0.1,0.1c0,0,0,0.1,0.1,0.1c0,0,0,0.1,0.1,0.1c0,0,0,0.1,0,0.1c0,0,0,0.1,0,0.1
			C31.9,18.8,31.9,18.8,31.9,18.8z"/>
		<path class="st4" d="M30.9,19.2c0,0,0,0.1,0.1,0.2c0,0.1,0.1,0.1,0.1,0.2c0,0.1,0.1,0.2,0.1,0.2c0,0.1,0.1,0.2,0.1,0.2
			c0,0.1,0.1,0.2,0.1,0.2c0,0.1,0.1,0.1,0.1,0.1c0,0,0,0.1,0,0.1s0,0,0,0c0,0-0.1-0.1-0.1-0.1c-0.1-0.1-0.2-0.3-0.3-0.5
			c0-0.1-0.1-0.2-0.1-0.3c0-0.1-0.1-0.2-0.1-0.2C31,19.3,30.9,19.2,30.9,19.2z"/>
		<path class="st4" d="M32.1,18.8c0,0.4-0.1,0.9-0.1,1.3l-0.1,1.3l-0.1,0c0.4-0.4,0.7-0.8,1-1.1c0.2-0.2,0.3-0.4,0.5-0.6
			c0.2-0.2,0.3-0.4,0.5-0.6c-0.1,0.2-0.3,0.4-0.5,0.6c-0.2,0.2-0.3,0.4-0.5,0.6c-0.3,0.4-0.7,0.8-1,1.1l-0.1,0.1l0-0.1l0.1-1.3
			C32,19.7,32.1,19.2,32.1,18.8z"/>
		<path class="st4" d="M33.5,18.3c0,0,0,0.1-0.1,0.2c0,0.1-0.1,0.1-0.1,0.2c0,0.1-0.1,0.1-0.1,0.2c-0.1,0.1-0.2,0.3-0.3,0.4
			c-0.1,0.1-0.1,0.2-0.1,0.2s0-0.1,0.1-0.2c0-0.1,0.1-0.1,0.1-0.2c0-0.1,0.1-0.1,0.1-0.2c0-0.1,0.1-0.1,0.1-0.2
			c0-0.1,0.1-0.1,0.1-0.2C33.4,18.4,33.5,18.3,33.5,18.3z"/>
		<path class="st4" d="M32.5,20.8c0,0,0.1-0.1,0.1-0.3c0-0.1,0.1-0.2,0.1-0.3c0-0.1,0-0.2,0.1-0.3c0-0.1,0-0.1,0-0.2
			c0-0.1,0-0.1,0-0.2c0-0.1,0-0.1,0-0.1c0,0,0-0.1-0.1-0.1c0,0,0-0.1-0.1-0.1c0,0,0,0-0.1-0.1c0,0-0.1-0.1-0.1-0.1s0,0,0.1,0
			c0,0,0,0,0.1,0.1c0,0,0.1,0.1,0.1,0.1c0,0,0,0.1,0.1,0.1c0,0,0,0.1,0.1,0.2c0,0.1,0,0.1,0,0.2c0,0.1,0,0.1,0,0.2
			c0,0.1,0,0.2-0.1,0.3c0,0.1-0.1,0.2-0.1,0.3C32.6,20.7,32.5,20.8,32.5,20.8z"/>
		<path class="st4" d="M33.7,19.1c0,0-0.1,0-0.2,0.1c-0.1,0-0.2,0.1-0.3,0.2c-0.1,0-0.1,0.1-0.2,0.1c0,0-0.1,0.1-0.1,0.1
			c0,0-0.1,0.1-0.1,0.1c0,0,0,0,0,0s0,0,0,0c0,0,0-0.1,0.1-0.1c0,0,0.1-0.1,0.1-0.1c0.1,0,0.1-0.1,0.2-0.1c0.1,0,0.1-0.1,0.2-0.1
			c0.1,0,0.1,0,0.2-0.1C33.6,19.1,33.7,19.1,33.7,19.1z"/>
		<path class="st4" d="M31.1,21.5c0,0.1-0.1,0.2-0.1,0.3c0,0.1-0.1,0.2-0.1,0.2c-0.1,0.2-0.2,0.3-0.3,0.5c-0.2,0.3-0.4,0.6-0.7,0.9
			l0-0.1c0.4-0.2,0.7-0.3,1-0.5c0.2-0.1,0.3-0.2,0.5-0.3c0.1-0.1,0.2-0.1,0.2-0.2c0.1-0.1,0.1-0.1,0.2-0.2c-0.3,0.3-0.6,0.5-0.9,0.7
			c-0.2,0.1-0.3,0.2-0.5,0.3c-0.2,0.1-0.3,0.2-0.5,0.3l-0.1,0.1l0.1-0.1c0.2-0.3,0.5-0.6,0.7-0.9c0.1-0.1,0.2-0.3,0.3-0.5
			c0.1-0.1,0.1-0.2,0.1-0.2C31,21.7,31.1,21.6,31.1,21.5z"/>
		<path class="st4" d="M31.3,21.9c0,0,0,0.1-0.1,0.2c0,0.1,0,0.1-0.1,0.2c0,0.1-0.1,0.1-0.1,0.2c0,0.1-0.1,0.1-0.1,0.2
			c0,0.1-0.1,0.1-0.1,0.2c0,0-0.1,0.1-0.1,0.1c0,0,0,0,0,0s0,0,0,0c0,0,0-0.1,0.1-0.1c0,0,0.1-0.1,0.1-0.2c0-0.1,0.1-0.1,0.1-0.2
			c0-0.1,0.1-0.1,0.1-0.2c0-0.1,0.1-0.1,0.1-0.2C31.2,22,31.3,21.9,31.3,21.9z"/>
		<path class="st4" d="M29.9,23.4c0,0,0.2,0,0.4,0c0.1,0,0.3,0,0.4,0c0.1,0,0.2,0,0.2,0c0.1,0,0.2,0,0.2-0.1
			c0.2-0.1,0.3-0.1,0.4-0.2c0.1-0.1,0.3-0.1,0.4-0.2c0.2-0.1,0.4-0.1,0.4-0.1s-0.2,0.1-0.4,0.2c-0.1,0.1-0.2,0.1-0.4,0.2
			c-0.1,0-0.1,0.1-0.2,0.1c-0.1,0-0.2,0.1-0.2,0.1c-0.1,0-0.2,0.1-0.2,0.1c-0.1,0-0.2,0-0.2,0c-0.2,0-0.3,0-0.4,0
			C30,23.4,29.9,23.4,29.9,23.4z"/>
		<path class="st4" d="M31.8,22.5c0,0-0.1,0.1-0.2,0.2c0,0-0.1,0.1-0.2,0.2c-0.1,0.1-0.1,0.1-0.2,0.2c-0.1,0.1-0.1,0.1-0.2,0.2
			c-0.1,0-0.1,0.1-0.2,0.1c-0.1,0-0.1,0.1-0.1,0.1c0,0-0.1,0-0.1,0s0,0,0.1,0c0,0,0.1,0,0.1-0.1c0.1,0,0.1-0.1,0.2-0.1
			c0.1,0,0.1-0.1,0.2-0.2c0.1-0.1,0.1-0.1,0.2-0.2c0.1,0,0.1-0.1,0.2-0.1C31.8,22.6,31.8,22.5,31.8,22.5z"/>
		<g>
			<path class="st0" d="M23,24l0.4,0.4c0,0-0.3,0.2-0.4,0.3c0,0,0.9,0.1,1.2,0s0.4-0.1,1.2,0.3c0.8,0.3,1.7-0.5,1.7-0.5
				s-0.8,0.2-1.2,0.1c-0.3,0-0.7-0.4-1.3-0.4C23.9,24.1,23.3,24.2,23,24z"/>
			<path class="st3" d="M25.8,25c-0.1,0-0.3,0-0.4-0.1l-0.2-0.1c-0.6-0.3-0.7-0.3-1-0.2c-0.3,0.1-1.2,0-1.2,0c0,0,0,0,0,0
				c0,0,0,0,0,0c0.1,0,0.3-0.2,0.4-0.2L23,24c0,0,0,0,0,0c0,0,0,0,0,0c0.2,0.2,0.7,0.2,1.2,0.2c0.1,0,0.3,0,0.4,0
				c0.4,0,0.7,0.2,0.9,0.3c0.1,0.1,0.3,0.1,0.4,0.2c0.3,0,1.2-0.1,1.2-0.1c0,0,0,0,0,0c0,0,0,0,0,0C27.1,24.5,26.5,25,25.8,25z
				 M24.4,24.6c0.2,0,0.4,0.1,0.8,0.2l0.2,0.1c0.6,0.3,1.3-0.2,1.6-0.4c-0.3,0-0.8,0.1-1,0.1c-0.1,0-0.3-0.1-0.4-0.2
				c-0.2-0.1-0.5-0.3-0.9-0.3c-0.1,0-0.3,0-0.4,0c-0.4,0-0.8,0-1-0.1l0.3,0.3c0,0,0,0,0,0c0,0,0,0,0,0c0,0-0.2,0.1-0.3,0.2
				c0.3,0,0.8,0.1,1,0C24.3,24.6,24.3,24.6,24.4,24.6z"/>
		</g>
		<g>
			<path class="st0" d="M27,23.9c0,0,0-0.7-1-0.9c-0.2,0-0.6,0.1-0.7,0.4s0.8,0.5,0.8,0.5L27,23.9z"/>
			<path class="st3" d="M27,23.9l-0.9,0c0,0-0.8-0.2-0.9-0.4c0,0,0-0.1,0-0.1c0.2-0.3,0.6-0.4,0.7-0.4C27,23.2,27,23.9,27,23.9
				L27,23.9z M25.9,23c-0.2,0-0.5,0.1-0.6,0.4c0,0,0,0.1,0,0.1c0.1,0.2,0.6,0.3,0.8,0.4l0.8,0C26.9,23.7,26.9,23.2,25.9,23
				C26,23,26,23,25.9,23z"/>
		</g>
		<g>
			<path class="st1" d="M23.3,24.3c0,0,0.3,0.1,0.6,0.1c0.3,0,0.9-0.1,1.2,0.1c0.5,0.3,1,0.4,1.8,0.1l0.2,0c0,0-0.6,0.3-1.1,0.4
				c-0.5,0-0.9-0.3-1.3-0.4c-0.4-0.1-1,0.2-1.4,0.1l0.1-0.1L23.3,24.3z"/>
			<path class="st3" d="M25.9,24.8c-0.3,0-0.5-0.1-0.8-0.2c-0.1-0.1-0.3-0.1-0.5-0.2c-0.2,0-0.5,0-0.7,0.1c-0.3,0.1-0.5,0.1-0.7,0
				l0,0l0.1-0.2l-0.2-0.2l0.1,0c0,0,0.3,0.1,0.6,0.1c0.1,0,0.2,0,0.2,0c0.3,0,0.7,0,1,0.1c0.4,0.2,1,0.4,1.8,0.1l0,0l0.4-0.1
				l-0.2,0.1C27.1,24.5,26.5,24.8,25.9,24.8C26,24.8,26,24.8,25.9,24.8z M24.5,24.4c0.1,0,0.1,0,0.2,0c0.2,0,0.3,0.1,0.5,0.2
				c0.3,0.1,0.5,0.2,0.8,0.2c0.1,0,0.3,0,0.4-0.1c-0.6,0.1-1,0-1.3-0.2c-0.3-0.1-0.7-0.1-1-0.1c-0.1,0-0.2,0-0.2,0
				c-0.2,0-0.4,0-0.5,0l0.1,0.1l-0.1,0.1c0.2,0,0.4,0,0.6-0.1C24.2,24.4,24.4,24.4,24.5,24.4z"/>
		</g>
		<g>
			<path class="st1" d="M26.4,23.9c0,0-0.8-0.3-0.9-0.4c0,0,0.7,0.2,1,0.4H26.4z"/>
			<path class="st3" d="M26.6,23.9l-0.2,0c0,0-0.8-0.3-0.9-0.5l-0.1-0.1l0.1,0C25.6,23.4,26.3,23.6,26.6,23.9L26.6,23.9z M26.4,23.8
				L26.4,23.8c-0.2-0.1-0.6-0.3-0.8-0.3C25.9,23.6,26.2,23.8,26.4,23.8z"/>
		</g>
		<g>
			<path class="st1" d="M26.8,23.9c0,0-0.5-0.6-1.4-0.7c0,0,0.1-0.1,0.3-0.2c0,0,0.8,0.1,1.3,0.7l0,0.1H26.8z"/>
			<path class="st3" d="M27,23.9h-0.2l0,0c0,0-0.5-0.6-1.4-0.7l-0.1,0l0,0c0,0,0.1-0.1,0.3-0.2l0,0l0,0c0,0,0.8,0.1,1.3,0.7l0,0
				L27,23.9z M26.8,23.9h0.1l0-0.1c-0.4-0.5-1.2-0.7-1.2-0.7c-0.1,0-0.2,0.1-0.2,0.1C26.3,23.3,26.7,23.8,26.8,23.9z"/>
		</g>
		<g>
			<path class="st0" d="M31,24l-0.4,0.4c0,0,0.3,0.2,0.4,0.3c0,0-0.9,0.1-1.2,0s-0.4-0.1-1.2,0.3c-0.8,0.3-1.7-0.5-1.7-0.5
				s0.8,0.2,1.2,0.1c0.3,0,0.7-0.4,1.3-0.4C30,24.1,30.7,24.2,31,24z"/>
			<path class="st3" d="M28.2,25c-0.7,0-1.3-0.5-1.3-0.6c0,0,0,0,0,0c0,0,0,0,0,0c0,0,0.8,0.2,1.2,0.1c0.1,0,0.3-0.1,0.4-0.2
				c0.2-0.1,0.5-0.3,0.9-0.3c0.1,0,0.3,0,0.4,0c0.5,0,1,0,1.2-0.2c0,0,0,0,0,0c0,0,0,0,0,0l-0.4,0.4c0.1,0.1,0.3,0.2,0.4,0.2
				c0,0,0,0,0,0c0,0,0,0,0,0c0,0-0.9,0.1-1.2,0c-0.3-0.1-0.4-0.1-1,0.2L28.6,25C28.4,25,28.3,25,28.2,25z M27,24.5
				c0.3,0.2,1,0.6,1.6,0.4l0.2-0.1c0.6-0.3,0.8-0.3,1-0.2c0.2,0.1,0.8,0,1,0c-0.2-0.1-0.3-0.2-0.3-0.2c0,0,0,0,0,0c0,0,0,0,0,0
				l0.3-0.3c-0.3,0.1-0.6,0.1-1,0.1c-0.1,0-0.3,0-0.4,0c-0.4,0-0.7,0.1-0.9,0.3c-0.2,0.1-0.3,0.1-0.4,0.2
				C27.8,24.6,27.2,24.6,27,24.5z"/>
		</g>
		<g>
			<path class="st0" d="M27,23.9c0,0,0-0.7,1-0.9c0.2,0,0.6,0.1,0.7,0.4s-0.8,0.5-0.8,0.5L27,23.9z"/>
			<path class="st3" d="M26.9,23.9L26.9,23.9c0,0,0-0.7,1-1c0.2,0,0.6,0.1,0.7,0.4c0,0,0,0.1,0,0.1c-0.1,0.2-0.8,0.4-0.9,0.4
				L26.9,23.9z M28,23C28,23,28,23,28,23c-0.9,0.2-1,0.7-1,0.8l0.8,0c0.2,0,0.7-0.2,0.8-0.4c0,0,0-0.1,0-0.1
				C28.5,23.1,28.2,23,28,23z"/>
		</g>
		<g>
			<path class="st1" d="M30.7,24.3c0,0-0.3,0.1-0.6,0.1c-0.3,0-0.9-0.1-1.2,0.1c-0.5,0.3-1,0.4-1.8,0.1l-0.2,0c0,0,0.6,0.3,1.1,0.4
				c0.5,0,0.9-0.3,1.3-0.4c0.4-0.1,1,0.2,1.4,0.1l-0.1-0.1L30.7,24.3z"/>
			<path class="st3" d="M28,24.8C28,24.8,28,24.8,28,24.8c-0.5,0-1.1-0.4-1.2-0.4l-0.2-0.1l0.4,0.1c0.8,0.4,1.3,0.2,1.8-0.1
				c0.3-0.2,0.7-0.1,1-0.1c0.1,0,0.2,0,0.2,0c0.3,0,0.6-0.1,0.6-0.1l0.1,0l-0.2,0.2l0.1,0.2l0,0c-0.2,0.1-0.5,0-0.7,0
				c-0.2-0.1-0.5-0.1-0.7-0.1c-0.2,0-0.3,0.1-0.5,0.2C28.5,24.7,28.3,24.8,28,24.8z M27.5,24.7c0.1,0,0.3,0.1,0.4,0.1
				c0.3,0,0.6-0.1,0.8-0.2c0.2-0.1,0.3-0.1,0.5-0.2c0.2-0.1,0.5,0,0.7,0.1c0.2,0,0.5,0.1,0.6,0.1l-0.1-0.1l0.1-0.1
				c-0.1,0-0.3,0-0.5,0c-0.1,0-0.2,0-0.3,0c-0.3,0-0.7,0-1,0.1C28.5,24.6,28.1,24.8,27.5,24.7z"/>
		</g>
		<g>
			<path class="st1" d="M27.6,23.9c0,0,0.8-0.3,0.9-0.4c0,0-0.7,0.2-1,0.4H27.6z"/>
			<path class="st3" d="M27.6,23.9h-0.2l0.1-0.1c0.3-0.2,1-0.4,1-0.5l0.1,0l-0.1,0.1C28.3,23.7,27.6,23.9,27.6,23.9L27.6,23.9z
				 M27.5,23.8L27.5,23.8c0.2-0.1,0.6-0.2,0.8-0.3C28.1,23.6,27.8,23.7,27.5,23.8z"/>
		</g>
		<g>
			<path class="st1" d="M27.2,23.9c0,0,0.5-0.6,1.4-0.7c0,0-0.1-0.1-0.3-0.2c0,0-0.8,0.1-1.3,0.7l0,0.1H27.2z"/>
			<path class="st3" d="M27.2,23.9h-0.2l0-0.2l0,0c0.5-0.6,1.3-0.7,1.3-0.7l0,0l0,0c0.2,0,0.3,0.2,0.3,0.2l0,0l-0.1,0
				C27.7,23.3,27.2,23.9,27.2,23.9L27.2,23.9z M27,23.9h0.1c0.1-0.1,0.5-0.6,1.3-0.7c0,0-0.1-0.1-0.2-0.1
				C28.2,23.1,27.5,23.2,27,23.9L27,23.9z"/>
		</g>
		<g>
			<g>
				<path class="st2" d="M29.6,16.7c-0.1,0-0.2,0-0.2,0.1c0.1,0.1,0.1,0.1,0.2,0.1c0.1,0,0.2,0,0.2-0.1
					C29.8,16.8,29.7,16.8,29.6,16.7z"/>
				<g>
					<path class="st6" d="M29.4,16.8c0.1,0,0.2,0,0.3,0C29.6,16.9,29.5,16.9,29.4,16.8C29.4,16.9,29.4,16.8,29.4,16.8z"/>
				</g>
			</g>
			<g>
				<path class="st2" d="M29.4,17c-0.1,0-0.2,0-0.2,0.1c0.1,0.1,0.1,0.1,0.2,0.1c0.1,0,0.2,0,0.2-0.1C29.6,17,29.5,17,29.4,17z"/>
				<g>
					<path class="st6" d="M29.2,17c0.1,0,0.2,0,0.3,0C29.4,17.1,29.3,17.1,29.2,17C29.2,17.1,29.2,17.1,29.2,17z"/>
				</g>
			</g>
			<g>
				<path class="st2" d="M29.2,17.2c-0.1,0-0.2,0-0.2,0.1c0.1,0.1,0.1,0.1,0.2,0.1c0.1,0,0.2,0,0.2-0.1
					C29.3,17.2,29.3,17.2,29.2,17.2z"/>
				<g>
					<path class="st6" d="M28.9,17.3c0.1,0,0.2,0,0.3,0C29.2,17.3,29,17.3,28.9,17.3C28.9,17.3,28.9,17.3,28.9,17.3z"/>
				</g>
			</g>
			<g>
				<path class="st2" d="M28.9,17.4c-0.1,0-0.2,0-0.2,0.1c0.1,0.1,0.1,0.1,0.2,0.1c0.1,0,0.2,0,0.2-0.1C29.1,17.4,29,17.4,28.9,17.4
					z"/>
				<g>
					<path class="st6" d="M28.7,17.5c0.1,0,0.2,0,0.3,0C28.9,17.5,28.8,17.5,28.7,17.5C28.7,17.5,28.7,17.5,28.7,17.5z"/>
				</g>
			</g>
			<g>
				<path class="st2" d="M29.5,16.6c0,0.1-0.1,0.2-0.1,0.2c-0.1-0.1-0.1-0.2-0.1-0.2c0-0.1,0-0.2,0.1-0.2
					C29.5,16.4,29.5,16.5,29.5,16.6z"/>
				<g>
					<path class="st6" d="M29.4,16.8c0-0.1,0-0.2,0-0.4C29.4,16.6,29.4,16.7,29.4,16.8C29.4,16.8,29.4,16.8,29.4,16.8z"/>
				</g>
			</g>
			<g>
				<path class="st2" d="M29.3,16.8c0,0.1-0.1,0.2-0.1,0.2c-0.1-0.1-0.1-0.2-0.1-0.2c0-0.1,0-0.2,0.1-0.2
					C29.3,16.6,29.3,16.7,29.3,16.8z"/>
				<g>
					<path class="st6" d="M29.2,17c0-0.1,0-0.2,0-0.4C29.2,16.8,29.2,16.9,29.2,17C29.2,17,29.2,17,29.2,17z"/>
				</g>
			</g>
			<g>
				<path class="st2" d="M29.1,17c0,0.1-0.1,0.2-0.1,0.2c-0.1-0.1-0.1-0.2-0.1-0.2c0-0.1,0-0.2,0.1-0.2C29,16.8,29.1,16.9,29.1,17z"
					/>
				<g>
					<path class="st6" d="M28.9,17.2c0-0.1,0-0.2,0-0.4C29,17,28.9,17.1,28.9,17.2C28.9,17.2,28.9,17.2,28.9,17.2z"/>
				</g>
			</g>
			<g>
				<path class="st2" d="M28.8,17.2c0,0.1-0.1,0.2-0.1,0.2c-0.1-0.1-0.1-0.2-0.1-0.2c0-0.1,0-0.2,0.1-0.2
					C28.8,17,28.8,17.1,28.8,17.2z"/>
				<g>
					<path class="st6" d="M28.7,17.5c0-0.1,0-0.2,0-0.4C28.7,17.2,28.7,17.3,28.7,17.5C28.7,17.4,28.7,17.5,28.7,17.5z"/>
				</g>
			</g>
			<path class="st4" d="M28.6,17.5c0,0,0.1-0.1,0.2-0.2c0,0,0.1-0.1,0.2-0.2c0.1-0.1,0.1-0.1,0.2-0.2c0.1-0.1,0.1-0.1,0.2-0.2
				c0.1-0.1,0.1-0.1,0.2-0.1c0.1-0.1,0.2-0.1,0.2-0.1s-0.1,0.1-0.2,0.2c0,0-0.1,0.1-0.2,0.2c-0.1,0.1-0.1,0.1-0.2,0.2
				c-0.1,0.1-0.1,0.1-0.2,0.2c-0.1,0.1-0.1,0.1-0.2,0.1C28.7,17.5,28.6,17.5,28.6,17.5z"/>
			<g>
				<path class="st2" d="M29.7,16.4c-0.1,0.1-0.1,0.2-0.1,0.2c0.1,0,0.2,0,0.2-0.1c0.1-0.1,0.1-0.1,0.1-0.2
					C29.9,16.3,29.8,16.4,29.7,16.4z"/>
				<g>
					<path class="st6" d="M29.6,16.6c0.1-0.1,0.2-0.2,0.3-0.2C29.8,16.5,29.7,16.6,29.6,16.6C29.6,16.7,29.6,16.6,29.6,16.6z"/>
				</g>
			</g>
		</g>
		<g>
			<g>
				<path class="st2" d="M29.4,15.8c-0.1,0-0.2,0-0.2,0.1c0,0.1,0.1,0.1,0.2,0.1c0.1,0,0.1,0,0.2-0.1C29.6,15.9,29.5,15.8,29.4,15.8
					z"/>
				<g>
					<path class="st6" d="M29.3,15.9c0.1,0,0.2,0,0.3,0C29.4,15.9,29.3,15.9,29.3,15.9C29.3,15.9,29.3,15.9,29.3,15.9z"/>
				</g>
			</g>
			<g>
				<path class="st2" d="M29.2,16c-0.1,0-0.2,0-0.2,0.1c0,0.1,0.1,0.1,0.2,0.1c0.1,0,0.1,0,0.2-0.1C29.4,16.1,29.3,16,29.2,16z"/>
				<g>
					<path class="st6" d="M29,16.1c0.1,0,0.2,0,0.3,0C29.2,16.1,29.1,16.1,29,16.1C29,16.1,29,16.1,29,16.1z"/>
				</g>
			</g>
			<g>
				<path class="st2" d="M29,16.2c-0.1,0-0.2,0-0.2,0.1c0,0.1,0.1,0.1,0.2,0.1c0.1,0,0.1,0,0.2-0.1C29.2,16.3,29.1,16.2,29,16.2z"/>
				<g>
					<path class="st6" d="M28.8,16.3c0.1,0,0.2,0,0.3,0C29,16.3,28.9,16.3,28.8,16.3C28.8,16.3,28.8,16.3,28.8,16.3z"/>
				</g>
			</g>
			<g>
				<path class="st2" d="M28.8,16.4c-0.1,0-0.2,0-0.2,0.1c0,0.1,0.1,0.1,0.2,0.1c0.1,0,0.1,0,0.2-0.1C29,16.4,28.9,16.4,28.8,16.4z"
					/>
				<g>
					<path class="st6" d="M28.6,16.4c0.1,0,0.2,0,0.3,0C28.8,16.5,28.7,16.5,28.6,16.4C28.6,16.5,28.6,16.4,28.6,16.4z"/>
				</g>
			</g>
			<g>
				<path class="st2" d="M29.4,15.7c0,0.1-0.1,0.2-0.1,0.2c0-0.1-0.1-0.1-0.1-0.2c0-0.1,0-0.1,0.1-0.2
					C29.3,15.5,29.4,15.6,29.4,15.7z"/>
				<g>
					<path class="st6" d="M29.2,15.9c0-0.1,0-0.2,0-0.3C29.3,15.7,29.3,15.8,29.2,15.9C29.2,15.9,29.2,15.9,29.2,15.9z"/>
				</g>
			</g>
			<g>
				<path class="st2" d="M29.2,15.9c0,0.1-0.1,0.2-0.1,0.2c0-0.1-0.1-0.1-0.1-0.2c0-0.1,0-0.1,0.1-0.2
					C29.1,15.7,29.2,15.8,29.2,15.9z"/>
				<g>
					<path class="st6" d="M29,16.1c0-0.1,0-0.2,0-0.3C29.1,15.9,29,16,29,16.1C29,16.1,29,16.1,29,16.1z"/>
				</g>
			</g>
			<g>
				<path class="st2" d="M28.9,16.1c0,0.1-0.1,0.2-0.1,0.2c0-0.1-0.1-0.1-0.1-0.2c0-0.1,0-0.1,0.1-0.2C28.9,15.9,29,16,28.9,16.1z"
					/>
				<g>
					<path class="st6" d="M28.8,16.3c0-0.1,0-0.2,0-0.3C28.9,16,28.8,16.2,28.8,16.3C28.8,16.2,28.8,16.3,28.8,16.3z"/>
				</g>
			</g>
			<g>
				<path class="st2" d="M28.7,16.2c0,0.1-0.1,0.2-0.1,0.2c0-0.1-0.1-0.1-0.1-0.2c0-0.1,0-0.1,0.1-0.2
					C28.7,16.1,28.7,16.2,28.7,16.2z"/>
				<g>
					<path class="st6" d="M28.6,16.4c0-0.1,0-0.2,0-0.3C28.6,16.2,28.6,16.3,28.6,16.4C28.6,16.4,28.6,16.4,28.6,16.4z"/>
				</g>
			</g>
			<path class="st4" d="M28.5,16.5c0,0,0.1-0.1,0.1-0.1c0,0,0.1-0.1,0.1-0.1c0.1,0,0.1-0.1,0.2-0.1c0.1,0,0.1-0.1,0.2-0.1
				c0.1,0,0.1-0.1,0.2-0.1c0.1-0.1,0.2-0.1,0.2-0.1s-0.1,0.1-0.1,0.1c0,0-0.1,0.1-0.1,0.1c-0.1,0-0.1,0.1-0.2,0.1
				c-0.1,0-0.1,0.1-0.2,0.1c-0.1,0-0.1,0.1-0.2,0.1C28.6,16.5,28.5,16.5,28.5,16.5z"/>
			<g>
				<path class="st2" d="M29.5,15.5c-0.1,0.1-0.1,0.1-0.1,0.2c0.1,0,0.1,0,0.2-0.1c0.1,0,0.1-0.1,0.1-0.2
					C29.7,15.5,29.6,15.5,29.5,15.5z"/>
				<g>
					<path class="st6" d="M29.4,15.7c0.1-0.1,0.1-0.1,0.2-0.2C29.6,15.6,29.5,15.7,29.4,15.7C29.4,15.7,29.4,15.7,29.4,15.7z"/>
				</g>
			</g>
		</g>
		<g>
			<path class="st2" d="M28.9,15.3c-0.1,0-0.2,0-0.2,0.1c0,0.1,0.1,0.1,0.2,0.1c0.1,0,0.1,0,0.2-0.1C29.1,15.4,29,15.3,28.9,15.3z"
				/>
			<g>
				<path class="st6" d="M28.7,15.4c0.1,0,0.2,0,0.3,0C28.9,15.4,28.8,15.4,28.7,15.4C28.7,15.4,28.7,15.4,28.7,15.4z"/>
			</g>
		</g>
		<g>
			<path class="st2" d="M28.8,15.2c0,0.1-0.1,0.2-0.1,0.2c0-0.1-0.1-0.1-0.1-0.2c0-0.1,0-0.1,0.1-0.2C28.8,15,28.8,15.1,28.8,15.2z"
				/>
			<g>
				<path class="st6" d="M28.7,15.4c0-0.1,0-0.2,0-0.3C28.7,15.2,28.7,15.3,28.7,15.4C28.7,15.4,28.7,15.4,28.7,15.4z"/>
			</g>
		</g>
		<path class="st4" d="M28.6,15.5C28.6,15.5,28.6,15.5,28.6,15.5C28.6,15.5,28.6,15.5,28.6,15.5C28.6,15.5,28.6,15.4,28.6,15.5
			c0.1-0.1,0.1-0.1,0.1-0.1c0,0,0,0,0,0c0,0,0,0,0,0s0,0,0,0c0,0,0,0,0,0C28.7,15.5,28.7,15.5,28.6,15.5
			C28.6,15.5,28.6,15.5,28.6,15.5C28.6,15.5,28.6,15.5,28.6,15.5C28.6,15.5,28.6,15.5,28.6,15.5z"/>
		<g>
			<path class="st2" d="M28.2,15.3c0.1,0,0.2,0,0.2,0.1c0,0.1-0.1,0.1-0.2,0.1c-0.1,0-0.1,0-0.2-0.1C28,15.4,28.1,15.3,28.2,15.3z"
				/>
			<g>
				<path class="st6" d="M28.4,15.4c-0.1,0-0.2,0-0.3,0C28.2,15.4,28.3,15.4,28.4,15.4C28.4,15.4,28.4,15.4,28.4,15.4z"/>
			</g>
		</g>
		<g>
			<path class="st2" d="M28.3,15.2c0,0.1,0.1,0.2,0.1,0.2c0-0.1,0.1-0.1,0.1-0.2c0-0.1,0-0.1-0.1-0.2C28.3,15,28.3,15.1,28.3,15.2z"
				/>
			<g>
				<path class="st6" d="M28.4,15.4c0-0.1,0-0.2,0-0.3C28.4,15.2,28.4,15.3,28.4,15.4C28.4,15.4,28.4,15.4,28.4,15.4z"/>
			</g>
		</g>
		<path class="st4" d="M28.5,15.5C28.5,15.5,28.5,15.5,28.5,15.5C28.5,15.5,28.5,15.5,28.5,15.5C28.4,15.5,28.4,15.5,28.5,15.5
			c-0.1,0-0.1-0.1-0.1-0.1c0,0,0,0,0,0c0,0,0,0,0,0s0,0,0,0c0,0,0,0,0,0C28.4,15.4,28.5,15.4,28.5,15.5
			C28.5,15.4,28.5,15.5,28.5,15.5C28.5,15.5,28.5,15.5,28.5,15.5C28.5,15.5,28.5,15.5,28.5,15.5z"/>
		<g>
			<g>
				<path class="st2" d="M27.4,16.7c0.1,0,0.2,0,0.2,0.1c-0.1,0.1-0.1,0.1-0.2,0.1c-0.1,0-0.2,0-0.2-0.1
					C27.2,16.8,27.3,16.8,27.4,16.7z"/>
				<g>
					<path class="st6" d="M27.6,16.8c-0.1,0-0.2,0-0.3,0C27.4,16.9,27.5,16.9,27.6,16.8C27.6,16.9,27.6,16.8,27.6,16.8z"/>
				</g>
			</g>
			<g>
				<path class="st2" d="M27.6,17c0.1,0,0.2,0,0.2,0.1c-0.1,0.1-0.1,0.1-0.2,0.1c-0.1,0-0.2,0-0.2-0.1C27.5,17,27.5,17,27.6,17z"/>
				<g>
					<path class="st6" d="M27.9,17c-0.1,0-0.2,0-0.3,0C27.6,17.1,27.7,17.1,27.9,17C27.9,17.1,27.9,17.1,27.9,17z"/>
				</g>
			</g>
			<g>
				<path class="st2" d="M27.9,17.2c0.1,0,0.2,0,0.2,0.1c-0.1,0.1-0.1,0.1-0.2,0.1c-0.1,0-0.2,0-0.2-0.1
					C27.7,17.2,27.8,17.2,27.9,17.2z"/>
				<g>
					<path class="st6" d="M28.1,17.3c-0.1,0-0.2,0-0.3,0C27.9,17.3,28,17.3,28.1,17.3C28.1,17.3,28.1,17.3,28.1,17.3z"/>
				</g>
			</g>
			<g>
				<path class="st2" d="M28.1,17.4c0.1,0,0.2,0,0.2,0.1c-0.1,0.1-0.1,0.1-0.2,0.1c-0.1,0-0.2,0-0.2-0.1
					C27.9,17.4,28,17.4,28.1,17.4z"/>
				<g>
					<path class="st6" d="M28.3,17.5c-0.1,0-0.2,0-0.3,0C28.1,17.5,28.2,17.5,28.3,17.5C28.3,17.5,28.3,17.5,28.3,17.5z"/>
				</g>
			</g>
			<g>
				<path class="st2" d="M27.5,16.6c0,0.1,0.1,0.2,0.1,0.2c0.1-0.1,0.1-0.2,0.1-0.2c0-0.1,0-0.2-0.1-0.2
					C27.5,16.4,27.5,16.5,27.5,16.6z"/>
				<g>
					<path class="st6" d="M27.6,16.8c0-0.1,0-0.2,0-0.4C27.6,16.6,27.6,16.7,27.6,16.8C27.6,16.8,27.6,16.8,27.6,16.8z"/>
				</g>
			</g>
			<g>
				<path class="st2" d="M27.7,16.8c0,0.1,0.1,0.2,0.1,0.2c0.1-0.1,0.1-0.2,0.1-0.2c0-0.1,0-0.2-0.1-0.2
					C27.8,16.6,27.7,16.7,27.7,16.8z"/>
				<g>
					<path class="st6" d="M27.9,17c0-0.1,0-0.2,0-0.4C27.8,16.8,27.9,16.9,27.9,17C27.9,17,27.9,17,27.9,17z"/>
				</g>
			</g>
			<g>
				<path class="st2" d="M28,17c0,0.1,0.1,0.2,0.1,0.2c0.1-0.1,0.1-0.2,0.1-0.2c0-0.1,0-0.2-0.1-0.2C28,16.8,28,16.9,28,17z"/>
				<g>
					<path class="st6" d="M28.1,17.2c0-0.1,0-0.2,0-0.4C28.1,17,28.1,17.1,28.1,17.2C28.1,17.2,28.1,17.2,28.1,17.2z"/>
				</g>
			</g>
			<g>
				<path class="st2" d="M28.2,17.2c0,0.1,0.1,0.2,0.1,0.2c0.1-0.1,0.1-0.2,0.1-0.2c0-0.1,0-0.2-0.1-0.2
					C28.2,17,28.2,17.1,28.2,17.2z"/>
				<g>
					<path class="st6" d="M28.3,17.5c0-0.1,0-0.2,0-0.4C28.3,17.2,28.3,17.3,28.3,17.5C28.3,17.4,28.3,17.5,28.3,17.5z"/>
				</g>
			</g>
			<path class="st4" d="M28.4,17.5c0,0-0.1,0-0.2-0.1c-0.1,0-0.1-0.1-0.2-0.1c-0.1-0.1-0.1-0.1-0.2-0.2c-0.1-0.1-0.1-0.1-0.2-0.2
				c-0.1-0.1-0.1-0.1-0.2-0.2c-0.1-0.1-0.2-0.2-0.2-0.2s0.1,0,0.2,0.1c0.1,0,0.1,0.1,0.2,0.1c0.1,0.1,0.1,0.1,0.2,0.2
				c0.1,0.1,0.1,0.1,0.2,0.2c0.1,0.1,0.1,0.1,0.2,0.2C28.4,17.5,28.4,17.5,28.4,17.5z"/>
			<g>
				<path class="st2" d="M27.3,16.4c0.1,0.1,0.1,0.2,0.1,0.2c-0.1,0-0.2,0-0.2-0.1c-0.1-0.1-0.1-0.1-0.1-0.2
					C27.2,16.3,27.3,16.4,27.3,16.4z"/>
				<g>
					<path class="st6" d="M27.4,16.6c-0.1-0.1-0.2-0.2-0.3-0.2C27.3,16.5,27.3,16.6,27.4,16.6C27.4,16.7,27.4,16.6,27.4,16.6z"/>
				</g>
			</g>
		</g>
		<g>
			<g>
				<path class="st2" d="M27.6,15.8c0.1,0,0.2,0,0.2,0.1c0,0.1-0.1,0.1-0.2,0.1c-0.1,0-0.1,0-0.2-0.1C27.4,15.9,27.5,15.8,27.6,15.8
					z"/>
				<g>
					<path class="st6" d="M27.8,15.9c-0.1,0-0.2,0-0.3,0C27.6,15.9,27.7,15.9,27.8,15.9C27.8,15.9,27.8,15.9,27.8,15.9z"/>
				</g>
			</g>
			<g>
				<path class="st2" d="M27.8,16c0.1,0,0.2,0,0.2,0.1c0,0.1-0.1,0.1-0.2,0.1c-0.1,0-0.1,0-0.2-0.1C27.6,16.1,27.7,16,27.8,16z"/>
				<g>
					<path class="st6" d="M28,16.1c-0.1,0-0.2,0-0.3,0C27.8,16.1,27.9,16.1,28,16.1C28,16.1,28,16.1,28,16.1z"/>
				</g>
			</g>
			<g>
				<path class="st2" d="M28,16.2c0.1,0,0.2,0,0.2,0.1c0,0.1-0.1,0.1-0.2,0.1c-0.1,0-0.1,0-0.2-0.1C27.8,16.3,27.9,16.2,28,16.2z"/>
				<g>
					<path class="st6" d="M28.2,16.3c-0.1,0-0.2,0-0.3,0C28,16.3,28.1,16.3,28.2,16.3C28.2,16.3,28.2,16.3,28.2,16.3z"/>
				</g>
			</g>
			<g>
				<path class="st2" d="M28.2,16.4c0.1,0,0.2,0,0.2,0.1c0,0.1-0.1,0.1-0.2,0.1c-0.1,0-0.1,0-0.2-0.1C28.1,16.4,28.1,16.4,28.2,16.4
					z"/>
				<g>
					<path class="st6" d="M28.4,16.4c-0.1,0-0.2,0-0.3,0C28.2,16.5,28.3,16.5,28.4,16.4C28.4,16.5,28.4,16.4,28.4,16.4z"/>
				</g>
			</g>
			<g>
				<path class="st2" d="M27.7,15.7c0,0.1,0.1,0.2,0.1,0.2c0-0.1,0.1-0.1,0.1-0.2c0-0.1,0-0.1-0.1-0.2
					C27.7,15.5,27.7,15.6,27.7,15.7z"/>
				<g>
					<path class="st6" d="M27.8,15.9c0-0.1,0-0.2,0-0.3C27.8,15.7,27.8,15.8,27.8,15.9C27.8,15.9,27.8,15.9,27.8,15.9z"/>
				</g>
			</g>
			<g>
				<path class="st2" d="M27.9,15.9c0,0.1,0.1,0.2,0.1,0.2c0-0.1,0.1-0.1,0.1-0.2c0-0.1,0-0.1-0.1-0.2
					C27.9,15.7,27.9,15.8,27.9,15.9z"/>
				<g>
					<path class="st6" d="M28,16.1c0-0.1,0-0.2,0-0.3C28,15.9,28,16,28,16.1C28,16.1,28,16.1,28,16.1z"/>
				</g>
			</g>
			<g>
				<path class="st2" d="M28.1,16.1c0,0.1,0.1,0.2,0.1,0.2c0-0.1,0.1-0.1,0.1-0.2c0-0.1,0-0.1-0.1-0.2C28.1,15.9,28.1,16,28.1,16.1z
					"/>
				<g>
					<path class="st6" d="M28.2,16.3c0-0.1,0-0.2,0-0.3C28.2,16,28.2,16.2,28.2,16.3C28.2,16.2,28.2,16.3,28.2,16.3z"/>
				</g>
			</g>
			<g>
				<path class="st2" d="M28.3,16.2c0,0.1,0.1,0.2,0.1,0.2c0-0.1,0.1-0.1,0.1-0.2c0-0.1,0-0.1-0.1-0.2
					C28.3,16.1,28.3,16.2,28.3,16.2z"/>
				<g>
					<path class="st6" d="M28.4,16.4c0-0.1,0-0.2,0-0.3C28.4,16.2,28.4,16.3,28.4,16.4C28.4,16.4,28.4,16.4,28.4,16.4z"/>
				</g>
			</g>
			<path class="st4" d="M28.5,16.5c0,0-0.1,0-0.2-0.1c0,0-0.1-0.1-0.2-0.1c-0.1,0-0.1-0.1-0.2-0.1c-0.1-0.1-0.1-0.1-0.2-0.1
				c-0.1,0-0.1-0.1-0.1-0.1c-0.1-0.1-0.1-0.1-0.1-0.1s0.1,0,0.2,0.1c0,0,0.1,0.1,0.2,0.1c0.1,0,0.1,0.1,0.2,0.1
				c0.1,0.1,0.1,0.1,0.2,0.1c0.1,0,0.1,0.1,0.1,0.1C28.4,16.4,28.5,16.5,28.5,16.5z"/>
			<g>
				<path class="st2" d="M27.5,15.5c0.1,0.1,0.1,0.1,0.1,0.2c-0.1,0-0.1,0-0.2-0.1c-0.1,0-0.1-0.1-0.1-0.2
					C27.4,15.5,27.5,15.5,27.5,15.5z"/>
				<g>
					<path class="st6" d="M27.6,15.7c-0.1-0.1-0.1-0.1-0.2-0.2C27.5,15.6,27.5,15.7,27.6,15.7C27.6,15.7,27.6,15.7,27.6,15.7z"/>
				</g>
			</g>
		</g>
		<g>
			<path class="st8" d="M28.7,18.3c0-0.1,0-3-0.2-3c-0.1,0-0.2,2.9-0.2,3c0,0.1-0.1,0.2-0.1,0.2h0.3h0.3
				C28.8,18.5,28.7,18.4,28.7,18.3z"/>
			<path class="st3" d="M28.8,18.5h-0.7l0.1,0c0,0,0.1-0.1,0.1-0.2c0-0.1,0-0.8,0-1.6c0-1.5,0.1-1.5,0.2-1.5l0,0l0,0
				c0,0,0.1,0,0.2,1.5c0,0.7,0,1.5,0,1.6l0,0C28.7,18.4,28.8,18.5,28.8,18.5L28.8,18.5L28.8,18.5z M28.3,18.5h0.5
				c0,0-0.1-0.1-0.1-0.2l0,0c0-0.2,0-2.9-0.1-3c-0.1,0.1-0.2,2.9-0.1,3C28.4,18.4,28.3,18.4,28.3,18.5z"/>
		</g>
		<g>
			<path class="st4" d="M24.4,18.4c0,0,0.1,0.1,0.2,0c0-0.1-0.1-0.2-0.1-0.2c0-0.1,0-0.5,0.1-0.8c0,0,0,0.7,0.1,0.9
				c0,0,0,0.2,0.2,0.2c0.1,0,0.1-0.2,0-0.2c0-0.1-0.2-0.5-0.1-0.8s0.1-0.3,0.1-0.4c0,0,0.2,0.2,0.5,0.2c0,0,0,0.6,0,0.8
				c0,0.2-0.1,0.5-0.1,0.5s0.2,0.1,0.2,0c0-0.1-0.1-0.1-0.1-0.1s0.2-0.8,0.2-1c0,0,0,0.8,0.1,0.9c0,0.1,0,0.2,0.2,0.2
				c0.2,0,0.1-0.1,0-0.2c-0.1-0.1-0.1-1.1-0.1-1.1s0.6-0.1,0.6-0.7c0-0.5,0.1-0.8,0.1-0.8s0.1,0.1,0.1,0c0.1-0.1,0.2,0,0.2-0.1
				c0-0.1,0-0.1-0.2-0.2c0,0,0-0.2-0.3-0.2c-0.1,0-0.1,0-0.1,0s-0.1,0-0.2-0.1c0,0,0,0.1,0.1,0.2c0,0-0.1,0.2-0.1,0.4
				c0,0.2-0.1,0.5-0.2,0.5c-0.1,0-0.9-0.2-1.2-0.1c-0.2,0.1-0.6,0.3-0.6,0.5c0,0.2,0.1,0,0.1,0s0,0.1,0.1,0.3c0,0.1,0,0.6,0,0.8
				C24.3,17.9,24.3,18.4,24.4,18.4z"/>
			<path class="st5" d="M25.4,18.5c-0.1,0-0.2,0-0.2,0c0,0-0.1-0.1,0-0.5c0-0.1,0-0.6,0-0.7c-0.2,0-0.4-0.1-0.4-0.2c0,0,0,0,0,0
				c0,0.1,0,0.1-0.1,0.3c-0.1,0.2,0,0.6,0.1,0.8c0.1,0,0.1,0.1,0.1,0.2c0,0.1-0.1,0.1-0.1,0.1c-0.1,0-0.2-0.1-0.2-0.2
				c-0.1-0.1-0.1-0.5-0.1-0.7c-0.1,0.3-0.1,0.6-0.1,0.6c0,0,0,0,0,0.1c0,0,0.1,0.1,0.1,0.2c0,0,0,0,0,0c-0.1,0-0.2,0-0.2,0l0,0
				c-0.2-0.1-0.1-0.7-0.1-0.8c0,0,0-0.1,0-0.2c0-0.2,0-0.5,0-0.6c0-0.1,0-0.2,0-0.2c0,0-0.1,0-0.1,0c0,0,0-0.1,0-0.1
				c0-0.2,0.3-0.5,0.6-0.5c0.1,0,0.5,0,0.7,0.1c0.2,0,0.4,0.1,0.4,0.1c0.1,0,0.2-0.3,0.2-0.5c0-0.1,0-0.3,0.1-0.4
				C26,15.3,26,15.1,26,15.1l0,0l0.2,0.1l0.1,0c0.3,0,0.3,0.2,0.3,0.2l0,0c0.1,0,0.1,0.1,0.2,0.2c0,0,0,0.1,0,0.1c0,0-0.1,0-0.1,0
				c0,0-0.1,0-0.1,0c-0.1,0-0.1,0-0.1,0c0,0.1-0.1,0.3-0.1,0.7c0,0.5-0.5,0.7-0.6,0.7c0,0.5,0.1,1,0.1,1l0,0
				c0.1,0.1,0.1,0.1,0.1,0.2c0,0-0.1,0.1-0.1,0.1c-0.2,0-0.2-0.1-0.2-0.1c0,0,0,0,0-0.1c0-0.1-0.1-0.4-0.1-0.7
				c0,0.2-0.1,0.5-0.1,0.7c0,0,0,0,0.1,0c0,0,0,0,0.1,0.1C25.5,18.4,25.5,18.4,25.4,18.5C25.5,18.5,25.4,18.5,25.4,18.5z M25.3,18.4
				c0.1,0,0.1,0,0.2,0c0,0,0,0,0,0c0,0,0,0,0,0c0,0,0,0-0.1,0L25.3,18.4L25.3,18.4c0.1-0.1,0.2-0.9,0.2-1.1l0-0.3l0,0.3
				c0,0.2,0.1,0.8,0.1,0.9c0,0,0,0,0,0.1c0,0.1,0,0.1,0.1,0.1c0.1,0,0.1,0,0.1,0c0,0,0-0.1-0.1-0.1l0,0c-0.1-0.1-0.1-0.9-0.1-1.1
				l0,0l0,0c0,0,0.5-0.1,0.6-0.7c0-0.5,0.1-0.8,0.1-0.8l0,0l0,0c0,0,0,0,0.1,0c0,0,0.1,0,0.1,0c0,0,0.1,0,0.1,0c0,0,0,0,0,0
				c0-0.1,0-0.1-0.1-0.1l-0.1,0l0,0c0,0,0-0.2-0.3-0.2l-0.1,0l-0.1,0c0,0,0,0.1,0.1,0.1l0,0l0,0c0,0-0.1,0.2-0.1,0.4
				c0,0.2-0.1,0.5-0.2,0.5c-0.1,0-0.2,0-0.5-0.1c-0.3,0-0.6-0.1-0.7-0.1c-0.2,0.1-0.5,0.3-0.5,0.5c0,0,0,0.1,0,0.1c0,0,0,0,0.1,0
				l0,0l0,0.1c0,0,0,0.1,0.1,0.3c0,0.1,0,0.4,0,0.6c0,0.1,0,0.1,0,0.2c0,0.3,0,0.7,0.1,0.7c0,0,0.1,0,0.1,0c0-0.1,0-0.1,0-0.1
				c0,0,0,0-0.1-0.1c0-0.1-0.1-0.5,0.1-0.8l0.1-0.1l0,0.1c0,0,0,0.7,0.1,0.8l0,0c0,0,0,0.1,0.1,0.1c0,0,0,0,0,0c0,0,0.1,0,0.1,0
				c0,0,0-0.1-0.1-0.1l0,0l0,0c0-0.1-0.2-0.5-0.1-0.8c0-0.2,0.1-0.2,0.1-0.3c0,0,0-0.1,0-0.1l0,0l0,0c0,0,0.2,0.2,0.5,0.2l0,0l0,0
				c0,0,0,0.6,0,0.8C25.3,18.3,25.3,18.4,25.3,18.4z"/>
		</g>
		<g>
			<path class="st1" d="M25.7,17.2c0,0-0.1-0.5,0-0.6c0.1-0.1,0.6-0.1,0.6-0.1S26.4,16.9,25.7,17.2z"/>
			<path class="st5" d="M25.7,17.2L25.7,17.2c0-0.1-0.1-0.6,0.1-0.7c0.1-0.1,0.5-0.1,0.6-0.1l0,0l0,0C26.3,16.5,26.4,16.9,25.7,17.2
				L25.7,17.2z M26.3,16.5c-0.1,0-0.4,0-0.5,0.1c-0.1,0-0.1,0.3,0,0.5C26.2,16.9,26.3,16.6,26.3,16.5z"/>
		</g>
		<g>
			<path class="st1" d="M25.4,17.2c0.1-0.2,0.1-0.4,0.1-0.4s-0.4,0.4-0.8-0.2c0,0,0.1,0.6-0.1,0.8c0,0,0.2,0,0.2-0.1
				c0-0.1,0.1-0.3,0.1-0.3S25.1,17.2,25.4,17.2z"/>
			<path class="st5" d="M24.6,17.4C24.6,17.4,24.6,17.4,24.6,17.4l-0.1,0L24.6,17.4c0.1-0.3,0-0.9,0-0.9l0-0.2l0.1,0.2
				c0.1,0.2,0.3,0.3,0.4,0.3c0.2,0,0.3-0.1,0.3-0.1l0,0l0,0.1c0,0,0,0.2-0.1,0.4l0,0l0,0c-0.2,0-0.4-0.1-0.5-0.2l-0.1,0.2
				C24.8,17.4,24.7,17.4,24.6,17.4z M24.7,16.7c0,0.2,0,0.5-0.1,0.7c0,0,0.1,0,0.1-0.1l0.1-0.3l0,0c0,0,0.2,0.1,0.5,0.2
				c0.1-0.1,0.1-0.2,0.1-0.3c-0.1,0-0.2,0.1-0.3,0.1C25,16.9,24.8,16.9,24.7,16.7z"/>
		</g>
		<g>
			<path class="st1" d="M26.4,15.7c0,0-0.2-0.1-0.2-0.2c0.1-0.2,0.1-0.1,0.2,0c0.1,0.1,0.1,0,0.2,0.1c0,0,0.1,0.2,0.1,0.2
				s-0.1,0-0.1,0C26.5,15.7,26.5,15.7,26.4,15.7z"/>
			<path class="st5" d="M26.5,15.8C26.5,15.8,26.4,15.8,26.5,15.8c-0.1,0-0.2-0.1-0.3-0.2c0,0,0-0.1,0-0.1c0,0,0-0.1,0.1-0.1
				c0.1,0,0.1,0,0.1,0.1c0,0,0.1,0,0.1,0c0,0,0.1,0,0.1,0c0.1,0,0.1,0.2,0.1,0.2l0,0l0,0C26.7,15.7,26.6,15.7,26.5,15.8
				C26.5,15.8,26.5,15.8,26.5,15.8z M26.3,15.4C26.3,15.4,26.3,15.4,26.3,15.4C26.3,15.4,26.3,15.4,26.3,15.4
				c-0.1,0.1-0.1,0.1,0,0.2c0,0.1,0.1,0.1,0.1,0.1l0,0c0,0,0.1,0,0.1,0c0,0,0.1,0,0.1,0c0,0,0-0.1,0-0.1c0,0,0,0-0.1,0
				C26.5,15.5,26.4,15.5,26.3,15.4C26.4,15.4,26.3,15.4,26.3,15.4z"/>
		</g>
		<circle class="st9" cx="26.5" cy="15.4" r="0.1"/>
		<g>
			<circle class="st0" cx="33" cy="14.7" r="0.2"/>
			<path class="st2" d="M33,14.9c-0.1,0-0.2-0.1-0.2-0.2c0-0.1,0.1-0.2,0.2-0.2c0.1,0,0.2,0.1,0.2,0.2C33.2,14.8,33.1,14.9,33,14.9z
				 M33,14.6c-0.1,0-0.1,0.1-0.1,0.1c0,0.1,0.1,0.1,0.1,0.1c0.1,0,0.1-0.1,0.1-0.1C33.2,14.6,33.1,14.6,33,14.6z"/>
		</g>
		<g>
			<circle class="st0" cx="32.7" cy="14.5" r="0.2"/>
			<path class="st2" d="M32.7,14.7c-0.1,0-0.2-0.1-0.2-0.2s0.1-0.2,0.2-0.2s0.2,0.1,0.2,0.2S32.8,14.7,32.7,14.7z M32.7,14.3
				c-0.1,0-0.1,0.1-0.1,0.1c0,0.1,0.1,0.1,0.1,0.1s0.1-0.1,0.1-0.1C32.8,14.4,32.7,14.3,32.7,14.3z"/>
		</g>
		<g>
			<circle class="st0" cx="32.3" cy="18.1" r="0.2"/>
			<path class="st2" d="M32.3,18.3c-0.1,0-0.2-0.1-0.2-0.2s0.1-0.2,0.2-0.2c0.1,0,0.2,0.1,0.2,0.2S32.4,18.3,32.3,18.3z M32.3,18
				c-0.1,0-0.1,0.1-0.1,0.1s0.1,0.1,0.1,0.1c0.1,0,0.1-0.1,0.1-0.1S32.4,18,32.3,18z"/>
		</g>
		<g>
			<circle class="st0" cx="33" cy="18" r="0.2"/>
			<path class="st2" d="M33,18.2c-0.1,0-0.2-0.1-0.2-0.2c0-0.1,0.1-0.2,0.2-0.2c0.1,0,0.2,0.1,0.2,0.2C33.2,18.2,33.1,18.2,33,18.2z
				 M33,17.9c-0.1,0-0.1,0.1-0.1,0.1s0.1,0.1,0.1,0.1c0.1,0,0.1-0.1,0.1-0.1S33.1,17.9,33,17.9z"/>
		</g>
		<g>
			<circle class="st0" cx="33.2" cy="21.1" r="0.2"/>
			<path class="st2" d="M33.2,21.3c-0.1,0-0.2-0.1-0.2-0.2c0-0.1,0.1-0.2,0.2-0.2c0.1,0,0.2,0.1,0.2,0.2
				C33.4,21.2,33.3,21.3,33.2,21.3z M33.2,20.9c-0.1,0-0.1,0.1-0.1,0.1s0.1,0.1,0.1,0.1c0.1,0,0.1-0.1,0.1-0.1S33.3,20.9,33.2,20.9z
				"/>
		</g>
		<g>
			<circle class="st0" cx="32.9" cy="21.5" r="0.2"/>
			<path class="st2" d="M32.9,21.7c-0.1,0-0.2-0.1-0.2-0.2c0-0.1,0.1-0.2,0.2-0.2s0.2,0.1,0.2,0.2C33.1,21.6,33,21.7,32.9,21.7z
				 M32.9,21.4c-0.1,0-0.1,0.1-0.1,0.1c0,0.1,0.1,0.1,0.1,0.1s0.1-0.1,0.1-0.1C33,21.4,33,21.4,32.9,21.4z"/>
		</g>
		<g>
			<circle class="st0" cx="31.4" cy="20.8" r="0.2"/>
			<path class="st2" d="M31.4,21.1c-0.1,0-0.2-0.1-0.2-0.2c0-0.1,0.1-0.2,0.2-0.2s0.2,0.1,0.2,0.2C31.6,21,31.5,21.1,31.4,21.1z
				 M31.4,20.7c-0.1,0-0.1,0.1-0.1,0.1c0,0.1,0.1,0.1,0.1,0.1s0.1-0.1,0.1-0.1C31.5,20.8,31.5,20.7,31.4,20.7z"/>
		</g>
		<g>
			<circle class="st4" cx="27.9" cy="21.7" r="0.3"/>
			<path class="st5" d="M27.9,22.1c-0.2,0-0.3-0.1-0.3-0.3s0.1-0.3,0.3-0.3s0.3,0.1,0.3,0.3S28.1,22.1,27.9,22.1z M27.9,21.5
				c-0.1,0-0.2,0.1-0.2,0.2c0,0.1,0.1,0.2,0.2,0.2c0.1,0,0.2-0.1,0.2-0.2C28.2,21.6,28.1,21.5,27.9,21.5z"/>
		</g>
		<g>
			<circle class="st4" cx="28.2" cy="21.7" r="0.3"/>
			<path class="st5" d="M28.2,22.1c-0.2,0-0.3-0.1-0.3-0.3s0.1-0.3,0.3-0.3s0.3,0.1,0.3,0.3S28.4,22.1,28.2,22.1z M28.2,21.5
				c-0.1,0-0.2,0.1-0.2,0.2c0,0.1,0.1,0.2,0.2,0.2c0.1,0,0.2-0.1,0.2-0.2C28.4,21.6,28.3,21.5,28.2,21.5z"/>
		</g>
		<g>
			<circle class="st4" cx="27.4" cy="22" r="0.3"/>
			<path class="st5" d="M27.4,22.3c-0.2,0-0.3-0.1-0.3-0.3s0.1-0.3,0.3-0.3c0.2,0,0.3,0.1,0.3,0.3S27.6,22.3,27.4,22.3z M27.4,21.8
				c-0.1,0-0.2,0.1-0.2,0.2c0,0.1,0.1,0.2,0.2,0.2c0.1,0,0.2-0.1,0.2-0.2C27.6,21.9,27.5,21.8,27.4,21.8z"/>
		</g>
		<g>
			<circle class="st4" cx="27.7" cy="22" r="0.3"/>
			<path class="st5" d="M27.7,22.3c-0.2,0-0.3-0.1-0.3-0.3s0.1-0.3,0.3-0.3S28,21.8,28,22S27.8,22.3,27.7,22.3z M27.7,21.8
				c-0.1,0-0.2,0.1-0.2,0.2c0,0.1,0.1,0.2,0.2,0.2c0.1,0,0.2-0.1,0.2-0.2C27.9,21.9,27.8,21.8,27.7,21.8z"/>
		</g>
		<g>
			<circle class="st4" cx="25.7" cy="21.8" r="0.3"/>
			<path class="st5" d="M25.7,22.1c-0.2,0-0.3-0.1-0.3-0.3c0-0.2,0.1-0.3,0.3-0.3s0.3,0.1,0.3,0.3C26,22,25.8,22.1,25.7,22.1z
				 M25.7,21.6c-0.1,0-0.2,0.1-0.2,0.2c0,0.1,0.1,0.2,0.2,0.2s0.2-0.1,0.2-0.2C25.9,21.7,25.8,21.6,25.7,21.6z"/>
		</g>
		<g>
			<circle class="st4" cx="25.2" cy="21.7" r="0.3"/>
			<path class="st5" d="M25.2,22c-0.2,0-0.3-0.1-0.3-0.3c0-0.2,0.1-0.3,0.3-0.3c0.2,0,0.3,0.1,0.3,0.3C25.5,21.9,25.3,22,25.2,22z
				 M25.2,21.5c-0.1,0-0.2,0.1-0.2,0.2c0,0.1,0.1,0.2,0.2,0.2c0.1,0,0.2-0.1,0.2-0.2C25.4,21.6,25.3,21.5,25.2,21.5z"/>
		</g>
		<g>
			<circle class="st4" cx="26.5" cy="21.7" r="0.3"/>
			<path class="st5" d="M26.5,22c-0.2,0-0.3-0.1-0.3-0.3s0.1-0.3,0.3-0.3s0.3,0.1,0.3,0.3S26.7,22,26.5,22z M26.5,21.5
				c-0.1,0-0.2,0.1-0.2,0.2c0,0.1,0.1,0.2,0.2,0.2c0.1,0,0.2-0.1,0.2-0.2C26.8,21.6,26.7,21.5,26.5,21.5z"/>
		</g>
		<g>
			<circle class="st4" cx="27" cy="22" r="0.3"/>
			<path class="st5" d="M27,22.3c-0.2,0-0.3-0.1-0.3-0.3s0.1-0.3,0.3-0.3s0.3,0.1,0.3,0.3S27.2,22.3,27,22.3z M27,21.8
				c-0.1,0-0.2,0.1-0.2,0.2c0,0.1,0.1,0.2,0.2,0.2c0.1,0,0.2-0.1,0.2-0.2C27.2,21.9,27.1,21.8,27,21.8z"/>
		</g>
		<g>
			<rect x="26.5" y="23.9" class="st0" width="1" height="0.8"/>
			<path class="st3" d="M27.5,24.7h-1.1v-0.9h1.1V24.7z M26.5,24.6h0.9v-0.7h-0.9V24.6z"/>
		</g>
		<g>
			<rect x="26.8" y="23.9" class="st1" width="0.4" height="0.8"/>
			<path class="st3" d="M27.2,24.7h-0.5v-0.9h0.5V24.7z M26.8,24.6h0.3v-0.7h-0.3V24.6z"/>
		</g>
	</g>
</g>
</svg>
