<?xml version="1.0" encoding="utf-8"?>
<!-- Generator: Adobe Illustrator 22.0.1, SVG Export Plug-In . SVG Version: 6.00 Build 0)  -->
<svg version="1.1" id="Capa_1" xmlns="http://www.w3.org/2000/svg" xmlns:xlink="http://www.w3.org/1999/xlink" x="0px" y="0px"
	 viewBox="0 0 155 155" style="enable-background:new 0 0 155 155;" xml:space="preserve">
<style type="text/css">
	.st0{fill-rule:evenodd;clip-rule:evenodd;fill:#070308;}
</style>
<g>
	<path class="st0" d="M77.5,2.5c-41.4,0-75,33.6-75,75c0,41.4,33.6,75,75,75c41.4,0,75-33.6,75-75C152.5,36.1,118.9,2.5,77.5,2.5z
		 M77.5,147.2c-38.4,0-69.7-31.3-69.7-69.7c0-38.4,31.3-69.7,69.7-69.7c38.4,0,69.7,31.3,69.7,69.7
		C147.2,115.9,115.9,147.2,77.5,147.2z"/>
	<path class="st0" d="M98.1,26.5H82.2c-11.6,0-21.1,9.4-21.1,21.1v9.2h-4.2c-3,0-5.4,2.4-5.4,5.4v13.9c0,3,2.4,5.4,5.4,5.4h4.2v41.8
		c0,3,2.4,5.4,5.4,5.4h16.8c3,0,5.4-2.4,5.4-5.4V81.3h8c2.8,0,5.1-2.1,5.4-4.9l1.2-13.9c0.1-1.5-0.4-3-1.4-4.1c-1-1.1-2.4-1.7-4-1.7
		h-9.2l0-5.6h9.4c3,0,5.4-2.4,5.4-5.4V31.9C103.4,28.9,101,26.5,98.1,26.5z M83.4,51.1V62h14.5l0.1,0.1L96.8,76c0,0,0,0.1-0.1,0.1
		H83.4v47.1c0,0,0,0.1-0.1,0.1H66.5c0,0-0.1,0-0.1-0.1V76h-9.5c0,0-0.1,0-0.1-0.1V62.1c0,0,0-0.1,0.1-0.1h9.5V47.5
		c0-8.7,7.1-15.8,15.8-15.8h15.9c0,0,0.1,0,0.1,0.1v13.9c0,0,0,0.1-0.1,0.1h-9.4C85.8,45.8,83.4,48.2,83.4,51.1z"/>
</g>
</svg>
