<?xml version="1.0" encoding="utf-8"?>
<!-- Generator: Adobe Illustrator 22.0.1, SVG Export Plug-In . SVG Version: 6.00 Build 0)  -->
<svg version="1.1" id="Capa_1" xmlns="http://www.w3.org/2000/svg" xmlns:xlink="http://www.w3.org/1999/xlink" x="0px" y="0px"
	 viewBox="0 0 155 155" style="enable-background:new 0 0 155 155;" xml:space="preserve">
<style type="text/css">
	.st0{fill:#070308;}
</style>
<g>
	<path class="st0" d="M101,64.7c5.6,0,10.1-4.5,10.1-10.1s-4.5-10.1-10.1-10.1c-5.6,0-10.1,4.5-10.1,10.1S95.4,64.7,101,64.7z
		 M101,50.1c2.5,0,4.5,2,4.5,4.5c0,2.5-2,4.5-4.5,4.5s-4.5-2-4.5-4.5C96.5,52.1,98.5,50.1,101,50.1z"/>
	<path class="st0" d="M77.7,97.9c10.9,0,19.8-8.9,19.8-19.8c0-10.9-8.9-19.8-19.8-19.8c-10.9,0-19.8,8.9-19.8,19.8
		C57.9,89,66.8,97.9,77.7,97.9z M77.7,64c7.8,0,14.2,6.3,14.2,14.2c0,7.8-6.3,14.1-14.2,14.1c-7.8,0-14.1-6.3-14.1-14.1
		C63.5,70.3,69.9,64,77.7,64z"/>
	<path class="st0" d="M96.9,33.6H58.1c-13.5,0-24.5,11-24.5,24.5v38.7c0,13.5,11,24.5,24.5,24.5h38.7c13.5,0,24.5-11,24.5-24.5V58.1
		C121.4,44.6,110.4,33.6,96.9,33.6z M58.1,39.2h38.7c10.4,0,18.9,8.5,18.9,18.9v38.7c0,10.4-8.5,18.9-18.9,18.9H58.1
		c-10.4,0-18.9-8.5-18.9-18.9V58.1C39.2,47.7,47.7,39.2,58.1,39.2z"/>
	<path class="st0" d="M77.5,2.5c-41.4,0-75,33.6-75,75c0,41.4,33.6,75,75,75s75-33.6,75-75C152.5,36.1,118.9,2.5,77.5,2.5z
		 M77.5,146.9c-38.2,0-69.4-31.1-69.4-69.4c0-38.3,31.1-69.4,69.4-69.4s69.4,31.1,69.4,69.4C146.9,115.8,115.7,146.9,77.5,146.9z"/>
</g>
</svg>
