<?xml version="1.0" encoding="utf-8"?>
<!-- Generator: Adobe Illustrator 22.0.1, SVG Export Plug-In . SVG Version: 6.00 Build 0)  -->
<svg version="1.1" id="Capa_1" xmlns="http://www.w3.org/2000/svg" xmlns:xlink="http://www.w3.org/1999/xlink" x="0px" y="0px"
	 viewBox="0 0 155 155" style="enable-background:new 0 0 155 155;" xml:space="preserve">
<g>
	<path d="M77.5,2.5c-41.4,0-75,33.6-75,75c0,41.4,33.6,75,75,75c41.4,0,75-33.6,75-75C152.5,36.1,118.9,2.5,77.5,2.5z M77.5,147.1
		c-38.4,0-69.6-31.1-69.6-69.6c0-38.4,31.1-69.6,69.6-69.6c38.4,0,69.6,31.1,69.6,69.6C147.1,115.9,115.9,147.1,77.5,147.1z"/>
	<path d="M121.7,47.5c0.9-2.5,0.1-5.2-2.1-6.7l-0.5-0.3l-0.5-0.2c-0.7-0.3-1.5-0.5-2.3-0.5c-0.9,0-1.8,0.2-2.7,0.7l-0.1,0.1
		c-2,1-4,1.9-6.2,2.6c-1.6-1.3-3.4-2.3-5.3-3.1c-2.6-1.1-5.4-1.6-8.3-1.6c-0.5,0-0.9,0-1.4,0c-3.2,0.2-6.2,1.1-9.1,2.6
		c-2.8,1.5-5.3,3.5-7.3,5.9c-2.1,2.6-3.6,5.6-4.4,8.8c-0.2,0.7-0.3,1.5-0.4,2.2c-10.3-2.4-18-6.9-24.4-14.2
		c-1.6-1.8-3.4-2.2-4.6-2.2c-1.2,0-3.3,0.4-5,2.8c-3.9,5.8-3.8,13.2-1.4,19.3c-0.9,1-1.5,2.2-1.6,3.7l0,0.1c-0.1,1.1,0,2.1,0.1,2.9
		c0.6,4.8,2.8,9.3,6,12.7c-0.3,1.2-0.2,2.5,0.2,3.7c1.7,4.7,4.4,7.8,7.2,10c-2.4,0.6-4.9,1-7.2,1c-0.7,0-1.5,0-2.2-0.1
		c-0.5-0.1-0.9-0.1-1.4-0.1c-1,0-1.9,0.2-2.8,0.7l-0.2,0.1L34,98.5c-1.6,0.9-2.6,2.6-2.7,4.4c-0.1,1.1,0.1,3.2,2.3,5l0.2,0.2
		l0.2,0.1c1,0.6,2,1.3,3.3,2c3.4,1.8,6.9,3.2,10.4,4.1c5.2,1.4,10.6,2.2,15.9,2.2c14.5,0,27.8-5.2,37.3-14.8
		c9.3-9.2,14.4-22.4,14.8-38.2c2.2-1.8,4.3-4.1,6.5-7c1-1.3,1.5-2.9,1.5-4.6c0-2-1-3.4-1.6-4L121.7,47.5z M118.3,52
		c0,0.2,0,0.7-0.4,1.3c-1.9,2.6-3.9,4.9-6.5,6.8c-0.4,0.3-1,0.6-1,1.1c0,13.5-3.4,27-13.3,36.7c-12.5,12.4-31.3,15.8-48,11.2
		c-3.2-0.9-6.3-2.1-9.3-3.7c-1-0.5-1.9-1.1-2.9-1.7c-0.2-0.2-0.4-0.4-0.2-0.5c0.2-0.1,0.4-0.1,1.1,0c4.7,0.5,9.5-0.2,13.9-1.8
		c2.4-0.8,7.6-2.6,9.1-4.8c0-0.1,0.1-0.1,0.1-0.1c-0.6-0.1-1.2-0.1-1.8-0.2c-4.5-1.3-10.6-3.6-13.4-11.2c-0.2-0.4,0-0.7,0.5-0.6
		c3.7,0.3,5.1,0.1,6.4-0.2c-0.7-0.1-1.5-0.4-2.2-0.7c-5.7-2.2-9.9-7.7-10.6-13.8c-0.1-0.7-0.1-1.3-0.1-1.9c0-0.4,0.2-0.6,0.6-0.3
		c2.9,1.5,6.2,1.9,6.5,1.8c-0.7-0.6-1.4-1.2-2.1-1.8c-5-4.7-6.9-14.2-2.9-20.2c0.3-0.5,0.5-0.5,0.9,0C51.9,57.7,63,62.5,76.5,64.5
		c0.4,0,0.4,0,0.3-0.4c-0.3-2.4-0.4-4.7,0.2-7c0.6-2.4,1.8-4.7,3.3-6.7c1.5-1.9,3.4-3.4,5.6-4.5c2.1-1.1,4.5-1.8,6.9-2
		c2.5-0.2,5,0.2,7.3,1.2c1.7,0.7,3.3,1.7,4.7,2.9c0.3,0.3,0.6,0.6,0.9,0.9c0.2,0.2,0.4,0.3,0.7,0.2c3.4-0.9,6.7-2.1,9.8-3.7
		c0.1-0.1,0.3-0.1,0.4,0c0.1,0.1,0.1,0.3,0,0.4c-0.6,1.8-1.5,3.5-2.7,5c-0.8,1-2.7,3.4-4.1,3.6c2.8-0.5,5.6-1.2,8.2-2.4
		C118.3,51.8,118.3,51.7,118.3,52C118.3,51.9,118.3,52,118.3,52z"/>
</g>
</svg>
