<svg id="Capa_1" data-name="Capa 1" xmlns="http://www.w3.org/2000/svg" viewBox="0 0 118 30"><defs><style>.cls-1{fill:#fff;}</style></defs><title>LOGO_BCP</title><path class="cls-1" d="M40.3,14.17a5.87,5.87,0,0,1,5.06,6.76c-.29,3.35-2.26,5.5-5.16,6.9a18.52,18.52,0,0,1-7.54,1.62A24.6,24.6,0,0,1,26,28.93a4.14,4.14,0,0,1-3.43-4.3,16.16,16.16,0,0,1,.66-4c1.4-6.29,2.84-12.58,4.24-18.87.09-.39.29-.44.61-.49a51.41,51.41,0,0,1,8-.6,17.5,17.5,0,0,1,6.68,1.1A7.27,7.27,0,0,1,45.93,4a5.81,5.81,0,0,1-1,7.93,9.75,9.75,0,0,1-4,2.07ZM31.43,24.62H32a8.84,8.84,0,0,0,4.64-1.18,3.74,3.74,0,0,0,1.83-3.94,3.19,3.19,0,0,0-2.68-2.63,18.43,18.43,0,0,0-4.69-.3c-.28,0-.24.2-.28.35l-1,4.55c-.15.7-.34,1.39-.46,2.09a.82.82,0,0,0,.89,1.06Zm2.68-12.51a11.48,11.48,0,0,0,1.8-.1,6.18,6.18,0,0,0,3.31-1.35,3,3,0,0,0,1-3.08,2.6,2.6,0,0,0-2.12-1.9,13.63,13.63,0,0,0-4.55-.13c-.25,0-.29.18-.33.38-.2,1-.42,1.92-.63,2.88-.17.76-.36,1.52-.49,2.29s.14,1,.86,1Z"/><path class="cls-1" d="M71.6,29.46q.7-3.13,1.39-6.24Q75.35,12.6,77.7,2c.07-.31.17-.49.52-.55a37,37,0,0,1,12.19-.2A9.34,9.34,0,0,1,95,3.2a6.46,6.46,0,0,1,2.35,5c.12,4.6-2,7.93-6,10.16a16.29,16.29,0,0,1-7.75,1.88,23.18,23.18,0,0,1-2.76-.13c-.33,0-.46,0-.53.37-.42,2-.87,3.94-1.32,5.91a4.25,4.25,0,0,1-1.33,2.37,2.64,2.64,0,0,1-1.64.7C74.59,29.49,73.11,29.46,71.6,29.46ZM86,5.66l-1.6.09a.42.42,0,0,0-.47.4c-.54,2.5-1.11,5-1.65,7.49-.21.93.2,1.46,1.17,1.55a10.59,10.59,0,0,0,2.18,0A5.93,5.93,0,0,0,91.2,9.81c.23-2.19-.69-3.67-2.94-4A14,14,0,0,0,86,5.66Z"/><path class="cls-1" d="M69.55,22.08c-.39,1.76-.72,3.39-1.15,5a2.81,2.81,0,0,1-1.8,1.85,12.78,12.78,0,0,1-4.28.8A16.08,16.08,0,0,1,56,28.87a10,10,0,0,1-6.78-8.3A18.3,18.3,0,0,1,52.54,6.26,14.51,14.51,0,0,1,63.2.34,16.81,16.81,0,0,1,71.11,1.4a5.83,5.83,0,0,1,1,.55,2.57,2.57,0,0,1,1.23,3.11c-.23.94-.51,1.87-.77,2.83a10.66,10.66,0,0,0-6.88-2.07,8.69,8.69,0,0,0-7.83,4.83,12.8,12.8,0,0,0-1.71,7.73,6.4,6.4,0,0,0,6.17,5.95,10.1,10.1,0,0,0,6.53-1.81C69.08,22.4,69.27,22.28,69.55,22.08Z"/><path class="cls-1" d="M10.78,3.31a.73.73,0,0,1,.45.14,27.16,27.16,0,0,1,7.85,6.86c2.14,2.76,2,5.7-.47,8.58a33.14,33.14,0,0,1-9.68,7.7c-3.18,1.72-6,.92-8.19-2.17-.63-.88-.62-.87.34-1.35a23.45,23.45,0,0,0,8.18-6.18,12,12,0,0,0,2.09-3.5.92.92,0,0,0,.25-.5,12,12,0,0,0,.84-4.74A7.49,7.49,0,0,0,10.78,3.31Z"/><path class="cls-1" d="M108,3.31c.15-.05.24.06.34.12a26.92,26.92,0,0,1,8,7,6.06,6.06,0,0,1,.12,7.68,26.65,26.65,0,0,1-5.58,5.44,29.68,29.68,0,0,1-5,3.25,5.61,5.61,0,0,1-6.77-1,11,11,0,0,1-1.49-1.91c-.21-.31-.11-.41.19-.55a25.94,25.94,0,0,0,6.77-4.38,15.74,15.74,0,0,0,4-5.49,11.62,11.62,0,0,0,.93-6.73A7.61,7.61,0,0,0,108,3.31Z"/><path class="cls-1" d="M10.78,3.31a7.49,7.49,0,0,1,1.66,4.84,12,12,0,0,1-.84,4.74.92.92,0,0,1-.25.5,23.42,23.42,0,0,0-7.3-5.24c-.72-.33-.71-.35-.36-1A8.88,8.88,0,0,1,7.31,3.18a3.39,3.39,0,0,1,2.37-.46A2.36,2.36,0,0,1,10.78,3.31Z"/><path class="cls-1" d="M108,3.31a7.61,7.61,0,0,1,1.46,3.4,11.62,11.62,0,0,1-.93,6.73,21.84,21.84,0,0,0-6.09-4.67c-.55-.29-1.11-.57-1.66-.84-.15-.08-.26-.13-.16-.35a9.23,9.23,0,0,1,3.9-4.42,3.07,3.07,0,0,1,3.38,0c0,.1,0,.14.1.15Z"/><path class="cls-1" d="M108,3.32c-.09,0-.13,0-.1-.15C107.9,3.22,108,3.23,108,3.32Z"/></svg>