<?xml version="1.0" encoding="utf-8"?>
<!-- Generator: Adobe Illustrator 22.1.0, SVG Export Plug-In . SVG Version: 6.00 Build 0)  -->
<svg version="1.1" id="DESIGNED_BY_FREEPIK" xmlns="http://www.w3.org/2000/svg" xmlns:xlink="http://www.w3.org/1999/xlink"
	 x="0px" y="0px" viewBox="0 0 392 102" style="enable-background:new 0 0 392 102;" xml:space="preserve">
<style type="text/css">
	.st0{fill:#FFFFFF;}
	.st1{fill:url(#SVGID_1_);}
</style>
<g>
	<g>
		<g>
			<g>
				<path class="st0" d="M164.8,63.3l6.2-17.7h-24.5l-9.1,26.9c-0.6,1.7-0.7,3.4-0.5,5c0.2,1.6,0.8,3.1,1.6,4.4
					c0.8,1.3,1.9,2.3,3.3,3.1c1.4,0.8,2.8,1.2,4.4,1.2h81.9l7.8-22.8H164.8z"/>
				<path class="st0" d="M148.3,39.6h24.5l5.4-15.8h71.4L257.4,1h-81.9c-1.6,0-3.3,0.4-5.2,1.2c-1.9,0.8-3.8,1.8-5.5,3.1
					c-1.8,1.3-3.3,2.8-4.7,4.4c-1.4,1.6-2.3,3.3-2.9,5l-3.2,9.1h0L148.3,39.6z"/>
				<polygon class="st0" points="151.1,1 126.5,1 113,39.6 137.6,39.6 				"/>
				<polygon class="st0" points="110.6,47.1 97.2,86.1 121.8,86.1 135.1,47.1 				"/>
				<path class="st0" d="M257.2,33.2l-2.2,6.5h24.4l0.4-1c0.1,0.4,0.2,0.7,0.3,1h26.3l-1.7-6.5l-2.5-9.3h0l-3.2-12.5
					c-0.7-2.8-2.1-5.1-4.4-6.9c-2.3-1.8-4.9-2.9-7.8-3.4h-4.9c-1.9,0-3.8,0.3-5.7,0.9c-1.9,0.6-3.6,1.4-5.1,2.5
					c-1.5,1-2.9,2.2-4,3.5c-1.1,1.3-1.9,2.6-2.4,3.8l-4.2,12.2h0L257.2,33.2z"/>
				<path class="st0" d="M389.6,4.4c-2-2.3-4.9-3.4-8.7-3.4h-8.6c-3.3,0.5-6.6,1.6-10.1,3.4c-3.4,1.8-6.5,4.1-9.2,6.9l-12,12.5h0
					l-8.8,9.3l-6.1,6.5h30.5c0.3-0.4,0.6-0.7,1-1l-0.4,1h24.4l2.2-6.5h0l3.2-9.3h0.1l4.2-12.2C392.1,9.1,391.6,6.6,389.6,4.4z"/>
				<polygon class="st0" points="238.9,86.1 263.3,86.1 276.8,47.1 252.4,47.1 				"/>
				<path class="st0" d="M309.1,85c2.2-0.8,4.9-2.8,8.2-5.9c3.5-3.4,8.9-8.6,16.2-15.6c5-4.8,10.4-10.3,16.2-16.4H319l-8.5,8.9
					l-2.3-8.9h-26.4c1.6,6.1,3.2,11.6,4.8,16.5c2.3,7.1,4.1,12.2,5.3,15.5c1.2,3.2,2.5,5.1,3.8,5.9c1.3,0.8,2.8,1.2,4.7,1.2h3.7
					C305.2,86.1,306.9,85.7,309.1,85z"/>
				<polygon class="st0" points="341.1,86.1 365.5,86.1 379,47.1 354.6,47.1 				"/>
			</g>
		</g>
	</g>
	<linearGradient id="SVGID_1_" gradientUnits="userSpaceOnUse" x1="-0.9259" y1="80.1751" x2="106.2895" y2="7.8859">
		<stop  offset="4.138720e-02" style="stop-color:#7C5821"/>
		<stop  offset="0.2238" style="stop-color:#A87A38"/>
		<stop  offset="0.3731" style="stop-color:#E4BC62"/>
		<stop  offset="0.5146" style="stop-color:#EFDD99"/>
		<stop  offset="0.6822" style="stop-color:#E4BC62"/>
	</linearGradient>
	<path class="st1" d="M105.7,0.2H28.4c-2.3,0-3.4,1.3-4.2,4.2L11.1,42.6l36-9.9l-40,21.7L0.3,73.9l54.3-30.1l-45,42.8H30l32-31.6
		L42.2,86.6H79c2.3,0,3.5-1.9,4.2-4.2L110,4.4C110,2.1,108.1,0.2,105.7,0.2z"/>
	<g>
		<rect x="136.8" y="94.4" class="st0" width="1.3" height="7.2"/>
		<polygon class="st0" points="146.2,98.9 142.7,94.4 141.6,94.4 141.6,101.6 143,101.6 143,96.8 146.8,101.6 146.8,101.6 
			147.6,101.6 147.6,94.4 146.3,94.4 		"/>
		<path class="st0" d="M150.5,95.6l2.3,0l0,6h1.4l0-6l2.3,0l0-1.2c-2.1,0-3.8,0-5.9,0L150.5,95.6z"/>
		<path class="st0" d="M159.3,101.6l5.4,0l0-1.3l-4,0l0-1.6l3.9,0l0-1.3l-3.9,0l0-1.7l4,0l0-1.3l-5.4,0
			C159.3,96.8,159.3,99.2,159.3,101.6z"/>
		<path class="st0" d="M173.8,96.8c0-1.2-0.9-2.4-2.6-2.4c-1.1,0-2.3,0-3.4,0l0,7.2l1.4,0l0-2.4h1.3l2.1,2.4l1.6,0v-0.1l-2.2-2.5
			C173.3,98.8,173.8,97.8,173.8,96.8z M169.1,98l0-2.3l2.1,0c0.9,0,1.2,0.6,1.2,1.2c0,0.6-0.4,1.2-1.2,1.2L169.1,98z"/>
		<polygon class="st0" points="181.5,98.9 178,94.4 176.9,94.4 176.9,101.6 178.2,101.6 178.2,96.8 182,101.6 182,101.6 
			182.9,101.6 182.9,94.4 181.5,94.4 		"/>
		<path class="st0" d="M188.7,94.4l-3.2,7.2h1.5l0.6-1.4l3.8,0l0.6,1.4h1.5l-3.2-7.2L188.7,94.4z M188.1,99l1.3-3.1l1.3,3.1
			L188.1,99z"/>
		<path class="st0" d="M194.4,95.7l2.3,0l0,6h1.4l0-6l2.3,0l0-1.2c-2.1,0-3.8,0-5.9,0L194.4,95.7z"/>
		<rect x="203.2" y="94.4" class="st0" width="1.3" height="7.2"/>
		<path class="st0" d="M211.5,94.3c-2.5,0-3.7,1.9-3.7,3.8c0,1.9,1.2,3.7,3.7,3.7c2.5,0,3.7-1.9,3.7-3.7
			C215.2,96.2,214,94.3,211.5,94.3z M211.5,100.6c-1.7,0-2.3-1.3-2.4-2.4c0-1.2,0.7-2.6,2.4-2.6c1.7,0,2.4,1.4,2.4,2.6
			C213.9,99.3,213.2,100.6,211.5,100.6z"/>
		<polygon class="st0" points="223,98.9 219.5,94.4 218.4,94.4 218.4,101.6 219.7,101.6 219.7,96.8 223.5,101.6 223.5,101.6 
			224.4,101.6 224.4,94.4 223,94.4 		"/>
		<path class="st0" d="M230.2,94.4l-3.2,7.2h1.5l0.6-1.4l3.8,0l0.6,1.4l1.5,0l-3.2-7.2L230.2,94.4z M229.6,99l1.3-3.1l1.3,3.1
			L229.6,99z"/>
		<polygon class="st0" points="239,94.4 237.6,94.4 237.6,101.6 242.7,101.6 242.7,100.4 239,100.4 		"/>
		<path class="st0" d="M253.5,100.5c-1.8,0-2.5-1.2-2.5-2.4c0-1.2,0.7-2.5,2.5-2.5c0.6,0,1.3,0.2,1.7,0.7l0.9-0.9
			c-0.7-0.7-1.7-1.1-2.6-1.1c-2.6,0-3.8,1.9-3.8,3.8c0,1.9,1.1,3.7,3.8,3.7c1,0,2-0.3,2.7-1.1l-0.9-0.9
			C254.8,100.3,254.1,100.5,253.5,100.5z"/>
		<path class="st0" d="M261.2,94.5l-3.2,7.2l1.5,0l0.6-1.4l3.8,0l0.6,1.4h1.5l-3.2-7.2L261.2,94.5z M260.6,99l1.3-3.1l1.3,3.1
			L260.6,99z"/>
		<path class="st0" d="M271.9,94.5c-1.1,0-2.3,0-3.4,0l0,7.2h1.4l0-2.1l2,0C275.4,99.5,275.4,94.5,271.9,94.5z M271.9,98.3l-2,0
			l0-2.5l2,0C273.6,95.7,273.6,98.3,271.9,98.3z"/>
		<rect x="277.5" y="94.5" class="st0" width="1.3" height="7.2"/>
		<path class="st0" d="M282.1,95.7l2.3,0l0,6l1.4,0l0-6l2.3,0l0-1.2c-2.1,0-3.8,0-5.9,0L282.1,95.7z"/>
		<path class="st0" d="M293.4,94.5l-3.2,7.2l1.5,0l0.6-1.4l3.8,0l0.6,1.4h1.5l-3.2-7.2L293.4,94.5z M292.8,99l1.3-3.1l1.3,3.1
			L292.8,99z"/>
		<polygon class="st0" points="302.2,94.5 300.9,94.5 300.9,101.7 305.9,101.7 305.9,100.4 302.2,100.4 		"/>
		<polygon class="st0" points="316.9,97.6 314.6,94.5 313.1,94.5 313.1,101.7 314.4,101.7 314.4,96.5 316.7,99.6 317,99.6 
			319.3,96.5 319.3,101.7 320.7,101.7 320.7,94.5 319.1,94.5 		"/>
		<path class="st0" d="M326.5,94.5l-3.2,7.2l1.5,0l0.6-1.4l3.8,0l0.6,1.4l1.5,0l-3.2-7.2H326.5z M325.9,99.1l1.3-3.1l1.3,3.1
			L325.9,99.1z"/>
		<path class="st0" d="M339.9,96.9c0-1.2-0.9-2.4-2.6-2.4c-1.1,0-2.3,0-3.4,0l0,7.2h1.4l0-2.4l1.3,0l2.1,2.4l1.6,0v-0.1l-2.2-2.5
			C339.5,98.9,339.9,97.9,339.9,96.9z M335.3,98.1l0-2.3l2.1,0c0.9,0,1.2,0.6,1.2,1.2c0,0.6-0.4,1.2-1.2,1.2L335.3,98.1z"/>
		<polygon class="st0" points="348.7,94.5 348.7,94.5 347,94.5 344.3,97.5 344.3,94.5 342.9,94.5 342.9,101.7 344.3,101.7 
			344.3,98.5 347.3,101.7 348.9,101.7 348.9,101.6 345.5,98 		"/>
		<path class="st0" d="M351.7,101.7l5.4,0l0-1.3l-4,0l0-1.6l3.9,0l0-1.3l-3.9,0l0-1.7l4,0l0-1.3l-5.4,0
			C351.7,96.9,351.7,99.3,351.7,101.7z"/>
		<path class="st0" d="M360.2,95.7l2.3,0l0,6l1.4,0l0-6l2.3,0l0-1.2c-2.1,0-3.8,0-5.9,0L360.2,95.7z"/>
	</g>
</g>
</svg>
