<?xml version="1.0" encoding="utf-8"?>
<!-- Generator: Adobe Illustrator 22.1.0, SVG Export Plug-In . SVG Version: 6.00 Build 0)  -->
<svg version="1.1" id="Capa_1" xmlns="http://www.w3.org/2000/svg" xmlns:xlink="http://www.w3.org/1999/xlink" x="0px" y="0px"
	 viewBox="0 0 152 31" style="enable-background:new 0 0 152 31;" xml:space="preserve">
<style type="text/css">
	.st0{fill:#FFFFFF;}
</style>
<g>
	<path class="st0" d="M95.5,11.8c0.5-0.5,0.9-1.2,1.6-1.7c2.2-1.5,5.5-0.8,7.3,1.5c2.7,3.4,2.4,9.2-0.6,12.4c-1.9,2-4.3,2.5-6.8,1.9
		c-2.5-0.6-4-2.3-4.7-4.7c-0.3-1-0.4-2-0.4-3.1c0-4,0-8.1,0-12.1c0-0.7,0.2-0.9,0.9-0.9c0.8,0.1,2-0.3,2.5,0.2
		c0.5,0.4,0.1,1.6,0.1,2.4C95.4,9.1,95.4,10.4,95.5,11.8c-0.2,0-0.2,0.1-0.1,0.1C95.4,11.9,95.5,11.9,95.5,11.8z M102.6,17.9
		c0.1-1.2-0.1-2.3-0.6-3.3c-0.9-2.2-3.9-2.6-5.5-0.8c-1.4,1.7-1.6,5.7-0.4,7.6c0.7,1.2,1.9,1.6,3.1,1.5c1.3,0,2.2-0.8,2.7-2
		C102.5,19.9,102.7,18.9,102.6,17.9z"/>
	<path class="st0" d="M141.8,17c1.4-1.9,2.7-3.5,3.9-5.2c1.5-2,3.5-2.4,5.9-2.1c-1.4,1.6-2.7,3.2-4,4.8c-0.6,0.7-1.1,1.5-1.7,2.1
		c-0.3,0.4-0.3,0.6,0,0.9c1.8,2.3,3.6,4.5,5.4,6.8c0.6,0.8,0.6,1.1-0.5,1.4c-1.5,0.4-2.6-0.2-3.6-1.3c-1.7-1.9-3.2-4-4.6-6
		c-0.2-0.3-0.3-0.6-0.8-0.8c0,2.3,0,4.6,0,6.9c0,1.2,0,1.2-1.2,1.2c-2.3,0-2.3,0-2.3-2.3c0-5.8,0-11.6,0-17.4c0-0.8,0.2-1.1,1-1
		c0.8,0.1,1.9-0.4,2.4,0.2c0.4,0.5,0.1,1.6,0.1,2.4C141.8,10.7,141.8,13.8,141.8,17z"/>
	<path class="st0" d="M79.4,22.4c0,0.5,0,1,0,1.5c0,1.2-0.2,1.5-1.4,1.8c-6.9,1.8-11-3.2-10.4-8.7c0.2-1.9,0.7-3.6,1.9-5.2
		c2.9-3.8,8.9-3.3,10.9,0.8c0.6,1.2,0.7,2.5,0.5,3.8c-0.2,1.2-1.1,1.9-2.2,2.3c-2,0.7-4.2,0.6-6.3,0.6c-1.2,0-1.5-0.1-0.8,1.4
		c0.9,1.9,3,2.7,5.5,2.3C77.9,22.9,78.6,22.6,79.4,22.4z M73.4,16.8c0.7,0,1.2-0.1,1.6-0.1c0.5-0.1,1-0.1,1.5-0.2
		c0.6-0.1,1-0.5,1.2-1.1c0.2-1-0.3-2.1-1.2-2.6c-2.4-1.2-5,0.3-5.2,3.1c0,0.7,0,1.1,0.9,1C72.6,16.8,73.1,16.8,73.4,16.8z"/>
	<path class="st0" d="M108.9,13.3c0-0.8,0-1.5,0-2.2c0-0.4,0.2-0.6,0.4-0.8c2.3-1.6,7-1.5,8.9,0.6c0.8,0.9,1.3,2,1.5,3.2
		c0.3,2.4,0.4,4.9,0.1,7.3c-0.3,2.4-2,4.1-4.4,4.4c-2.5,0.3-4.9,0.2-6.7-1.8c-2.2-2.4-1.4-6.2,1.7-7.4c1.7-0.6,3.4-0.9,5.2-0.8
		c0.9,0,1-0.3,0.9-1.1c-0.2-1.5-0.9-2.3-2.6-2.4c-1.4-0.1-2.7,0-4,0.5C109.6,13.1,109.3,13.2,108.9,13.3z M114.9,18.6
		c-0.8,0.1-1.8,0-2.8,0.5c-0.7,0.3-1,0.9-1,1.6c0,0.8,0.2,1.5,1,1.9c1,0.6,2.1,0.7,3.2,0.2c1.1-0.5,1.2-1.6,1.2-2.6
		C116.5,18.6,116.5,18.6,114.9,18.6z"/>
	<path class="st0" d="M46,20.5c0,1.5,0,3,0,4.5c0,0.5-0.1,0.8-0.7,0.8c-0.9-0.1-2.1,0.3-2.7-0.2c-0.6-0.5-0.2-1.7-0.2-2.6
		c0-2.7-0.2-5.3,0.1-8c0.4-3.5,2.9-5.7,6.5-5.7c3.5-0.1,6.1,2.1,6.6,5.6c0.1,0.6,0.1,1.2,0.1,1.9c0,2.8,0,5.5,0,8.3
		c0,0.5-0.1,0.8-0.7,0.8c-0.9-0.1-2.1,0.4-2.7-0.2c-0.4-0.5-0.1-1.7-0.2-2.5c0-2.3,0-4.6,0-6.9c0-1.8-0.9-3-2.2-3.4
		c-2.2-0.6-3.9,0.7-4,3.1C46,17.5,46.1,19,46,20.5C46.1,20.5,46.1,20.5,46,20.5z"/>
	<path class="st0" d="M122.2,20.3c0-1.6-0.1-3.1,0-4.7c0.1-2.9,1.9-5.2,4.5-6c2.9-0.9,5.8,0,7.5,2.3c0.9,1.3,1.3,2.9,1.3,4.5
		c0,2.9,0,5.8,0,8.7c0,0.6-0.2,0.8-0.7,0.7c-0.9-0.1-2.1,0.4-2.6-0.2c-0.6-0.5-0.2-1.7-0.2-2.5c0-2.2,0-4.4,0-6.6
		c0-0.8-0.1-1.6-0.5-2.3c-0.6-1.3-1.7-1.7-3-1.6c-1.2,0.1-2.1,0.8-2.5,2c-0.2,0.7-0.3,1.4-0.3,2c0,2.7,0,5.5,0,8.2
		c0,0.7-0.1,1-0.9,0.9c-0.8-0.1-1.9,0.3-2.5-0.2c-0.5-0.4-0.1-1.6-0.2-2.4C122.2,22.2,122.2,21.3,122.2,20.3z"/>
	<path class="st0" d="M67.2,22.3c0,0.7,0.1,1.4,0,2c-0.1,1-0.8,1.5-1.7,1.6c-3.3,0.6-6.8-0.6-6.9-5.1c-0.1-5,0-10.1-0.1-15.1
		c0-0.5,0.1-0.6,0.6-0.6c0,0,0.1,0,0.1,0c0.9,0,2.1-0.3,2.6,0.2C62.4,5.8,62,7.1,62,8c0,0.2,0,0.4,0,0.7c-0.1,0.6,0.2,0.8,0.7,0.7
		c1.3,0,2.5,0,3.8,0c0.5,0,0.7,0.1,0.7,0.7c0,1.9-0.6,2.6-2.6,2.6c-0.8,0-2-0.3-2.5,0.2c-0.6,0.5-0.2,1.7-0.2,2.5c0,1.4,0,2.8,0,4.2
		c0,2.4,0.9,3.2,3.3,3.1C65.9,22.6,66.5,22.5,67.2,22.3z"/>
	<path class="st0" d="M39.8,15.5c0,3.2,0,6.3,0,9.5c0,0.7-0.2,0.9-0.8,0.8c-0.9-0.1-2.1,0.4-2.6-0.2c-0.4-0.5-0.1-1.7-0.1-2.5
		c0-5.7,0-11.3,0-17c0-0.7,0.2-1,0.9-0.9c0.9,0.1,2-0.4,2.5,0.2C40,5.9,39.7,7,39.8,7.8C39.8,10.4,39.8,12.9,39.8,15.5z"/>
	<path class="st0" d="M82.9,19.7c0.1-1.6-0.2-3.6,0.1-5.6c0.5-3.3,2.8-5,6-4.7c0.8,0.1,1.4,0.3,1.2,1.3c0,0,0,0.1,0,0.1
		c0,0.6,0.2,1.2-0.1,1.7c-0.3,0.6-1,0.1-1.5,0.3c-1.4,0.3-2.2,1.3-2.2,3.4c0,2.9-0.1,5.8,0,8.8c0,0.9-0.3,1.1-1,1
		c-0.8-0.1-1.9,0.3-2.4-0.2c-0.5-0.5-0.1-1.6-0.2-2.4C82.8,22.2,82.9,21.1,82.9,19.7z"/>
	<path class="st0" d="M95.5,11.8c0,0-0.1,0.1-0.1,0.1C95.3,11.9,95.3,11.8,95.5,11.8C95.4,11.8,95.5,11.8,95.5,11.8z"/>
	<path class="st0" d="M27.9,14.1c0,4,0,8,0,12c0,2.7-1.5,4.2-4.1,4.2c-7.5,0-15,0-22.5,0c-0.8,0-0.9-0.2-0.9-0.9
		c0-8.1,0-16.1,0-24.2c0-2.4,1.5-4.5,4.3-4.4c7.4,0.1,14.8,0.1,22.2,0c0.8,0,1,0.2,1,1C27.9,5.9,27.9,10,27.9,14.1z M6.8,9.2
		c-0.1,0-0.1,0-0.2,0c0,0,0,0.1,0,0.2c0,5,0,10,0,15c0,0.2,0,0.4,0.2,0.5c0.2,0,0.5,0,0.7,0c4.4-0.9,8.8-1.7,13.2-2.6
		c0.6-0.1,0.7-0.4,0.7-0.9c0-4.7,0-9.4,0-14.2c0-0.8-0.2-0.9-1-0.8c-3.4,0.7-6.8,1.3-10.3,2C9.1,8.6,7.9,8.7,6.8,9.2z"/>
</g>
</svg>
